# Blender 5.1.1
# www.blender.org
mtllib ira.mtl
o ira
v 1.327610 3.600986 -0.747300
v 1.326476 3.909935 -0.755736
v 1.076684 3.648244 -0.603220
v 1.087639 3.906295 -0.619863
v 0.715479 3.695503 -0.747300
v 0.751925 3.902655 -0.755736
v 1.254422 3.470510 -0.745215
v 1.000000 3.470510 -0.576984
v 0.688121 3.470510 -0.746278
v 1.334414 4.112639 -0.775960
v 1.051122 4.155632 -0.625201
v 0.747340 4.198624 -0.765229
v 1.210381 4.419467 -0.798731
v 1.093051 4.415193 -0.630573
v 0.740858 4.445476 -0.639285
v 1.107229 4.580751 -0.892893
v 1.031563 4.557151 -0.648552
v 0.835415 4.576177 -0.653101
v 1.197848 3.202322 -0.988078
v 1.015215 3.158352 -0.978929
v 0.832582 3.114382 -0.988078
v 1.327610 3.600986 -1.000001
v 1.326476 3.909935 -1.000001
v 1.311879 3.470510 -1.000001
v 1.334414 4.112639 -1.000001
v 1.210381 4.419467 -1.000001
v 1.107190 4.580751 -1.000001
v 1.197848 3.202322 -1.000001
v 0.715479 3.695503 -1.000001
v 0.751925 3.902655 -1.000001
v 0.688121 3.470510 -1.000001
v 0.747340 4.198624 -1.000001
v 0.745800 4.456020 -1.000001
v 0.790525 4.580751 -1.000001
v 0.832582 3.114382 -1.000001
v 0.778781 4.281570 -0.638069
v 1.330574 4.269553 -0.791910
v 1.081382 4.296814 -0.630660
v 1.330574 4.269553 -1.000001
v 0.734737 4.362843 -1.000001
v 0.948877 4.679082 -0.878470
v 1.029904 4.657177 -0.916644
v 0.867850 4.700987 -0.916644
v 0.834288 4.710060 -1.000001
v 1.063207 4.648105 -1.000001
v 0.649901 3.351012 -0.848177
v 1.279094 3.351012 -0.848177
v 1.279094 3.351012 -1.000001
v 0.649901 3.351012 -1.000001
v 0.657431 3.200701 -0.892405
v 1.261422 3.284275 -0.892405
v 1.261422 3.284275 -1.000001
v 0.657431 3.200701 -1.000001
v 1.013715 3.157991 -1.000001
v 1.114998 3.289325 -0.570029
v 0.906843 3.289488 -0.541692
v 0.772493 3.242288 -0.606220
v 1.156413 3.075481 -0.922806
v 1.022063 3.028281 -0.987334
v 0.865709 3.030968 -0.973587
v 0.747071 3.082514 -0.851027
v 0.981140 2.443761 -0.590719
v 1.217440 3.154538 -0.768862
v 0.711466 3.163231 -0.724376
v 1.106614 2.441418 -0.599497
v 1.209554 3.204848 -0.642210
v 1.116734 2.842868 -0.548559
v 0.952783 2.839135 -0.536691
v 0.811021 2.828013 -0.607108
v 1.216171 2.813550 -0.903737
v 1.073721 2.803056 -0.974614
v 0.909166 2.798981 -0.962381
v 0.783379 2.802972 -0.871476
v 0.973269 2.356787 -0.614608
v 1.281473 2.826773 -0.774820
v 0.745468 2.814003 -0.735121
v 1.079952 2.338620 -0.623294
v 1.242627 2.838012 -0.638638
v 0.873141 2.454016 -0.646121
v 1.185864 2.479376 -0.875869
v 1.078350 2.489336 -0.931300
v 0.952728 2.491452 -0.923064
v 0.854834 2.483470 -0.853030
v 0.960564 2.221199 -0.596497
v 1.234933 2.464620 -0.774992
v 0.824033 2.468986 -0.746451
v 1.063897 2.205433 -0.606196
v 1.203464 2.450043 -0.668424
v 0.878219 2.366301 -0.666079
v 1.170107 2.306014 -0.879527
v 1.046841 2.320422 -0.930967
v 0.939965 2.339144 -0.922076
v 0.857688 2.355072 -0.856488
v 0.931413 1.988320 -0.589539
v 1.214030 2.305871 -0.787140
v 0.834013 2.365453 -0.758759
v 1.046421 1.937611 -0.600861
v 1.190701 2.318075 -0.689172
v 0.872411 2.232059 -0.653929
v 1.122478 2.187518 -0.888799
v 1.034834 2.201666 -0.945752
v 0.931636 2.217579 -0.935962
v 0.854751 2.229633 -0.863268
v 0.965378 1.258343 -0.690325
v 1.162910 2.182256 -0.786312
v 0.832202 2.234766 -0.755649
v 1.016586 1.251198 -0.694799
v 1.140154 2.189875 -0.678235
v 0.831977 2.031898 -0.649768
v 1.108539 1.902679 -0.893798
v 1.005337 1.942798 -0.955734
v 0.897140 1.993304 -0.946196
v 0.810259 2.036319 -0.869107
v 1.153318 1.885968 -0.788731
v 0.786414 2.050455 -0.756485
v 1.130341 1.899095 -0.677751
v 0.921218 1.263636 -0.717141
v 1.046448 1.243357 -0.827342
v 0.999083 1.247701 -0.881877
v 0.947775 1.254588 -0.877383
v 0.912382 1.262062 -0.815630
v 1.066690 1.241936 -0.779480
v 0.900976 1.265057 -0.765003
v 1.055284 1.244931 -0.728853
v 0.911271 4.409393 -0.439470
v 0.803566 4.577578 -0.867102
v 0.733940 4.364611 -0.823713
v 0.752504 4.459159 -0.840092
v 1.060859 4.415148 -0.531747
v 0.792442 4.311975 -0.530537
v 0.769566 4.439583 -0.538624
v 0.852083 4.550422 -0.547561
v 1.006042 4.535819 -0.544084
v 1.049598 4.325549 -0.521817
v 1.008469 4.408093 -0.442643
v 0.833146 4.346635 -0.434890
v 0.820392 4.423361 -0.448440
v 0.876810 4.496108 -0.460325
v 0.971195 4.487366 -0.457614
v 0.994917 4.354084 -0.429807
v 1.046376 4.085102 -0.495206
v 0.916509 4.061654 -0.535696
v 0.950699 4.160211 -0.328742
v 1.061722 4.128762 -0.401019
v 0.805482 4.088029 -0.469512
v 0.822524 4.137001 -0.367945
v 1.045565 3.958431 -0.443496
v 0.927930 3.934155 -0.488776
v 0.954184 4.030648 -0.276546
v 1.056224 4.005814 -0.340160
v 0.824722 3.957554 -0.422999
v 0.838531 4.006493 -0.317694
v 1.047274 3.897134 -0.410231
v 0.920954 3.878480 -0.453037
v 0.953224 3.970911 -0.256614
v 1.059410 3.941855 -0.315268
v 0.830837 3.906399 -0.390884
v 0.843968 3.949655 -0.300708
v 1.047583 3.828403 -0.384881
v 0.934099 3.804481 -0.427962
v 1.065173 3.881199 -0.274853
v 0.832276 3.830898 -0.361697
v 0.841017 3.883780 -0.252180
v 1.002799 3.406974 -0.163966
v 0.954678 3.409695 -0.185927
v 0.968386 3.447013 -0.077227
v 1.022310 3.437355 -0.110073
v 0.900755 3.419353 -0.153082
v 0.907609 3.438012 -0.098732
v 1.044057 3.266427 -0.028666
v 0.945994 3.267778 -0.045977
v 0.967596 3.265728 0.046303
v 1.055190 3.267572 0.010476
v 0.857735 3.262480 -0.019348
v 0.868869 3.263626 0.019794
v 1.044359 3.098363 0.038582
v 0.972448 3.101648 0.026372
v 0.988666 3.081994 0.082387
v 1.052469 3.088536 0.066589
v 0.908646 3.095106 0.042169
v 0.916755 3.085279 0.070177
v 0.874166 3.347448 -0.085124
v 0.882896 3.358134 -0.026728
v 1.047160 3.353074 -0.034148
v 1.027995 3.330631 -0.092086
v 0.948640 3.342837 -0.119530
v 0.966099 3.364207 -0.002738
v 1.084328 3.347317 -0.128363
v 1.095326 3.377412 -0.097104
v 1.055107 3.319967 -0.080185
v 1.063762 3.345818 -0.045512
v 1.136055 3.282336 -0.069066
v 1.136299 3.303896 -0.048436
v 1.120432 3.263965 -0.050819
v 1.120676 3.285525 -0.030188
v 0.873222 3.240045 0.032208
v 0.970411 3.240905 0.055420
v 0.948491 3.236188 -0.020999
v 0.862262 3.241431 -0.004366
v 1.056639 3.243832 0.024212
v 1.045680 3.245217 -0.012362
v 0.860345 3.302369 -0.044298
v 1.052015 3.310137 -0.007587
v 0.870989 3.307133 0.002148
v 1.041371 3.305373 -0.054032
v 0.944090 3.301764 -0.079586
v 0.965379 3.310742 0.027701
v 1.234400 3.268090 -0.734571
v 1.211260 3.387882 -0.666870
v 1.245218 3.236478 -0.846890
v 1.290690 3.470510 -0.842368
v 0.982412 4.804384 -0.882114
v 1.059932 4.746960 -0.919351
v 0.901202 4.836778 -0.919351
v 0.865146 4.835371 -1.000001
v 1.086048 4.727933 -1.000001
v 1.035166 0.978592 -0.633063
v 0.961306 0.978538 -0.626187
v 0.897530 0.978302 -0.664564
v 1.079242 0.977834 -0.822695
v 1.015466 0.977599 -0.861072
v 0.941346 0.977542 -0.854590
v 0.885194 0.977687 -0.805725
v 0.977673 0.978198 -0.710195
v 1.108314 0.978160 -0.754117
v 0.868458 0.977977 -0.733142
v 0.975735 0.977952 -0.767447
v 1.091318 0.978448 -0.681928
v 1.016664 1.114124 -0.660185
v 0.944421 1.114822 -0.658308
v 0.922621 1.110403 -0.879955
v 0.994864 1.109705 -0.885397
v 0.854002 1.112965 -0.749154
v 0.882290 1.114379 -0.690930
v 0.870362 1.111120 -0.810742
v 1.172408 1.118691 -0.810140
v 1.128248 1.123985 -0.836956
v 1.392098 1.030622 -0.647593
v 1.142547 1.126532 -0.677597
v 1.192650 1.117270 -0.762278
v 1.181244 1.120265 -0.711651
v 1.372798 1.025347 -0.841455
v 1.378643 0.978010 -0.861115
v 1.446858 1.029049 -0.689021
v 1.454495 0.978860 -0.681971
v 1.434930 1.025789 -0.808833
v 1.463218 1.027204 -0.750609
v 1.471491 0.978571 -0.754161
v 1.442419 0.978246 -0.822738
v 1.398343 0.979004 -0.633106
v 1.094180 2.395758 -0.609687
v 1.051416 2.258579 -0.612302
v 1.059479 2.393157 -0.931302
v 1.030758 2.278722 -0.936762
v 0.893760 4.882021 -0.870969
v 0.824686 5.090704 -0.874673
v 1.216590 5.117898 -0.884836
v 0.834959 4.901191 -0.870314
v 0.784394 5.100414 -1.000001
v 1.270242 5.124703 -1.000001
v 1.240062 4.999063 -0.929103
v 1.028025 4.854518 -0.843505
v 0.930213 5.176221 -0.847209
v 0.782659 4.901191 -1.000001
v 1.274266 5.006010 -1.000001
v 1.022199 5.021126 -0.812109
v 0.909979 5.230751 -1.000001
v 1.082459 5.202418 -0.860941
v 1.124153 5.045605 -0.839379
v 1.098433 5.244468 -1.000001
v 1.216082 4.795461 -0.907704
v 1.244381 4.770362 -1.000001
v 1.227841 4.886823 -0.904535
v 1.213907 4.753828 -0.913641
v 1.322306 4.912363 -1.000001
v 1.171970 4.874212 -0.862551
v 1.099796 4.856712 -0.841328
v 1.107713 4.765525 -0.903528
v 1.119221 4.729044 -1.000001
v 1.231979 4.730456 -1.000001
v 1.212345 5.049819 -0.891269
v 1.268888 5.049087 -1.000001
v 1.262777 4.908571 -0.960094
v 1.271459 4.878322 -1.000001
v 1.206993 4.959577 -0.874681
v 1.200709 5.009053 -0.876557
v 1.032364 4.924365 -0.824378
v 0.939385 4.945949 -0.850241
v 0.964709 5.020596 -0.827866
v 0.996603 5.040272 -0.822046
v 0.982869 4.950107 -0.825340
v 0.956537 4.983341 -0.797836
v 0.976369 4.947346 -0.806794
v 0.958765 5.021895 -0.794666
v 0.991806 5.043443 -0.801600
v 1.256861 5.049678 -0.938617
v 1.327610 3.600986 -1.252701
v 1.326476 3.909935 -1.244265
v 1.076684 3.648244 -1.396782
v 1.087639 3.906295 -1.380138
v 0.715479 3.695503 -1.252702
v 0.751925 3.902655 -1.244265
v 1.254422 3.470510 -1.254786
v 1.000000 3.470510 -1.423017
v 0.688121 3.470510 -1.253724
v 1.334414 4.112639 -1.224042
v 1.051122 4.155632 -1.374800
v 0.747340 4.198624 -1.234773
v 1.210381 4.419467 -1.201271
v 1.093051 4.415193 -1.369429
v 0.740858 4.445476 -1.360717
v 1.107229 4.580751 -1.107109
v 1.031563 4.557151 -1.351450
v 0.835415 4.576177 -1.346901
v 1.197848 3.202322 -1.011923
v 1.015215 3.158352 -1.021072
v 0.832582 3.114382 -1.011923
v 0.778781 4.281570 -1.361933
v 1.330574 4.269553 -1.208092
v 1.081382 4.296814 -1.369341
v 0.948877 4.679082 -1.121532
v 1.029904 4.657177 -1.083358
v 0.867850 4.700987 -1.083358
v 0.649901 3.351012 -1.151824
v 1.279094 3.351012 -1.151824
v 0.657431 3.200701 -1.107596
v 1.261422 3.284275 -1.107596
v 1.114998 3.289325 -1.429972
v 0.906843 3.289487 -1.458309
v 0.772493 3.242288 -1.393781
v 1.156413 3.075481 -1.077195
v 1.022063 3.028281 -1.012667
v 0.865709 3.030968 -1.026414
v 0.747071 3.082514 -1.148974
v 0.981140 2.443761 -1.409282
v 1.217440 3.154538 -1.231140
v 0.711466 3.163231 -1.275626
v 1.106614 2.441418 -1.400504
v 1.209554 3.204848 -1.357791
v 1.116734 2.842868 -1.451442
v 0.952783 2.839135 -1.463310
v 0.811021 2.828013 -1.392893
v 1.216171 2.813550 -1.096264
v 1.073721 2.803056 -1.025387
v 0.909166 2.798981 -1.037620
v 0.783379 2.802972 -1.128525
v 0.973269 2.356787 -1.385392
v 1.281473 2.826773 -1.225181
v 0.745468 2.814003 -1.264880
v 1.079952 2.338620 -1.376707
v 1.242627 2.838011 -1.361363
v 0.873141 2.454016 -1.353879
v 1.185864 2.479376 -1.124132
v 1.078350 2.489336 -1.068700
v 0.952728 2.491452 -1.076937
v 0.854834 2.483470 -1.146971
v 0.960564 2.221199 -1.403503
v 1.234933 2.464620 -1.225009
v 0.824033 2.468986 -1.253549
v 1.063897 2.205432 -1.393805
v 1.203464 2.450043 -1.331577
v 0.878219 2.366300 -1.333922
v 1.170107 2.306014 -1.120474
v 1.046841 2.320422 -1.069034
v 0.939965 2.339144 -1.077924
v 0.857688 2.355072 -1.143512
v 0.931413 1.988320 -1.410462
v 1.214030 2.305871 -1.212861
v 0.834013 2.365453 -1.241242
v 1.046421 1.937611 -1.399139
v 1.190701 2.318075 -1.310829
v 0.872411 2.232059 -1.346071
v 1.122478 2.187518 -1.111202
v 1.034834 2.201666 -1.054249
v 0.931636 2.217579 -1.064039
v 0.854751 2.229633 -1.136733
v 0.965378 1.258342 -1.309675
v 1.162910 2.182256 -1.213689
v 0.832202 2.234766 -1.244352
v 1.016586 1.251198 -1.305201
v 1.140154 2.189875 -1.321766
v 0.831977 2.031898 -1.350233
v 1.108539 1.902679 -1.106203
v 1.005337 1.942798 -1.044267
v 0.897140 1.993304 -1.053805
v 0.810259 2.036319 -1.130894
v 1.153318 1.885968 -1.211270
v 0.786414 2.050454 -1.243516
v 1.130341 1.899095 -1.322249
v 0.921218 1.263636 -1.282859
v 1.046448 1.243357 -1.172658
v 0.999083 1.247701 -1.118123
v 0.947775 1.254587 -1.122617
v 0.912382 1.262062 -1.184370
v 1.066690 1.241936 -1.220520
v 0.900976 1.265056 -1.234997
v 1.055284 1.244931 -1.271147
v 0.911271 4.409393 -1.560532
v 0.803566 4.577578 -1.132900
v 0.733940 4.364611 -1.176289
v 0.752504 4.459159 -1.159910
v 1.060859 4.415147 -1.468254
v 0.792442 4.311974 -1.469465
v 0.769566 4.439582 -1.461378
v 0.852083 4.550422 -1.452441
v 1.006042 4.535818 -1.455918
v 1.049598 4.325548 -1.478185
v 1.008469 4.408092 -1.557359
v 0.833146 4.346635 -1.565112
v 0.820392 4.423360 -1.551561
v 0.876810 4.496107 -1.539677
v 0.971195 4.487365 -1.542387
v 0.994917 4.354083 -1.570195
v 1.046376 4.085102 -1.504796
v 0.916509 4.061654 -1.464306
v 0.950699 4.160211 -1.671260
v 1.061722 4.128761 -1.598983
v 0.805482 4.088028 -1.530490
v 0.822524 4.137001 -1.632057
v 1.045895 3.959008 -1.556046
v 0.927903 3.934659 -1.510629
v 0.954236 4.031445 -1.723505
v 1.056587 4.006535 -1.659697
v 0.824380 3.958129 -1.576606
v 0.838231 4.007216 -1.682232
v 1.047610 3.897524 -1.589413
v 0.920905 3.878814 -1.546476
v 0.953273 3.971526 -1.743498
v 1.059783 3.942382 -1.684665
v 0.830514 3.906818 -1.608819
v 0.843685 3.950206 -1.699270
v 1.047919 3.828584 -1.614840
v 0.934090 3.804590 -1.571628
v 0.959802 3.909641 -1.790905
v 1.065563 3.881541 -1.725204
v 0.831957 3.831087 -1.638094
v 0.840725 3.884129 -1.747945
v 1.002999 3.405872 -1.836428
v 0.954732 3.408601 -1.814399
v 0.968481 3.446033 -1.923431
v 1.022569 3.436345 -1.890485
v 0.900644 3.418289 -1.847345
v 0.907519 3.437005 -1.901861
v 1.044057 3.266426 -1.971335
v 0.945994 3.267777 -1.954024
v 0.967596 3.265728 -2.046304
v 1.055190 3.267571 -2.010477
v 0.857735 3.262480 -1.980653
v 0.868869 3.263626 -2.019795
v 1.044359 3.098362 -2.038583
v 0.972448 3.101647 -2.026373
v 0.988666 3.081993 -2.082388
v 1.052469 3.088535 -2.066591
v 0.908646 3.095105 -2.042171
v 0.916755 3.085278 -2.070179
v 0.874166 3.347448 -1.914877
v 0.882896 3.358133 -1.973273
v 1.047160 3.353073 -1.965854
v 1.027995 3.330630 -1.907915
v 0.948640 3.342836 -1.880471
v 0.966099 3.364207 -1.997264
v 1.084328 3.347317 -1.871638
v 1.095326 3.377412 -1.902897
v 1.055107 3.319966 -1.919816
v 1.063762 3.345818 -1.954489
v 1.136055 3.282335 -1.930935
v 1.136299 3.303895 -1.951566
v 1.120432 3.263965 -1.949183
v 1.120676 3.285525 -1.969813
v 0.873222 3.240045 -2.032209
v 0.970411 3.240905 -2.055421
v 0.948491 3.236187 -1.979003
v 0.862262 3.241430 -1.995635
v 1.056639 3.243832 -2.024213
v 1.045680 3.245217 -1.987639
v 0.860345 3.302369 -1.955703
v 1.052015 3.310137 -1.992414
v 0.870989 3.307133 -2.002149
v 1.041371 3.305372 -1.945969
v 0.944090 3.301764 -1.920415
v 0.965379 3.310741 -2.027703
v 1.234400 3.268090 -1.265430
v 1.211260 3.387882 -1.333132
v 1.245218 3.236478 -1.153111
v 1.290690 3.470510 -1.157634
v 0.982412 4.804384 -1.117888
v 1.059932 4.746960 -1.080651
v 0.901202 4.836778 -1.080651
v 1.035166 0.978592 -1.366937
v 0.961306 0.978537 -1.373813
v 0.897530 0.978302 -1.335436
v 1.079242 0.977834 -1.177305
v 1.015466 0.977599 -1.138928
v 0.941346 0.977542 -1.145410
v 0.885194 0.977686 -1.194275
v 0.977673 0.978198 -1.289805
v 1.108314 0.978159 -1.245883
v 0.868458 0.977977 -1.266858
v 0.975735 0.977952 -1.232553
v 1.091318 0.978448 -1.318072
v 1.016664 1.114124 -1.339815
v 0.944421 1.114822 -1.341692
v 0.922621 1.110403 -1.120045
v 0.994864 1.109704 -1.114603
v 0.854002 1.112965 -1.250846
v 0.882290 1.114379 -1.309070
v 0.870362 1.111119 -1.189258
v 1.172408 1.118691 -1.189860
v 1.128248 1.123985 -1.163044
v 1.392098 1.030622 -1.352407
v 1.142547 1.126532 -1.322403
v 1.192650 1.117270 -1.237722
v 1.181244 1.120265 -1.288349
v 1.372798 1.025347 -1.158545
v 1.378643 0.978010 -1.138885
v 1.446858 1.029049 -1.310979
v 1.454495 0.978859 -1.318029
v 1.434930 1.025789 -1.191167
v 1.463218 1.027203 -1.249391
v 1.471491 0.978571 -1.245839
v 1.442419 0.978246 -1.177262
v 1.398343 0.979004 -1.366894
v 1.094180 2.395758 -1.390313
v 1.051416 2.258578 -1.387699
v 1.059479 2.393157 -1.068699
v 1.030758 2.278722 -1.063239
v 0.893760 4.882021 -1.129033
v 0.824686 5.090704 -1.125330
v 1.216590 5.117898 -1.115167
v 0.839032 4.931081 -1.152794
v 1.240062 4.999063 -1.070900
v 1.028025 4.854518 -1.156497
v 0.930213 5.176221 -1.152794
v 1.022199 5.021126 -1.187894
v 1.082459 5.202418 -1.139062
v 1.124153 5.045605 -1.160623
v 1.216082 4.795461 -1.092299
v 1.227841 4.886823 -1.095467
v 1.213907 4.753828 -1.086361
v 1.171970 4.874212 -1.137451
v 1.099796 4.856712 -1.158674
v 1.107713 4.765525 -1.096474
v 1.212345 5.049819 -1.108733
v 1.262777 4.908571 -1.039908
v 1.206993 4.959577 -1.125322
v 1.200709 5.009053 -1.123445
v 1.032364 4.924365 -1.175625
v 0.962318 4.983922 -1.176492
v 0.964709 5.020596 -1.172136
v 0.996603 5.040272 -1.177956
v 0.982869 4.950107 -1.174662
v 0.956537 4.983341 -1.202167
v 0.976369 4.947346 -1.193208
v 0.958765 5.021895 -1.205336
v 0.991806 5.043443 -1.198403
v 1.256861 5.049678 -1.061385
v 0.869691 3.463714 -1.813904
v 1.050768 3.494028 -1.878066
v 0.879589 3.496129 -1.896107
v 1.028157 3.451535 -1.796746
v 0.950345 3.446507 -1.764163
v 0.969933 3.511459 -1.928511
v 0.869896 3.464641 -0.186421
v 1.050423 3.494863 -0.122454
v 0.879764 3.496957 -0.104468
v 1.027881 3.452498 -0.203527
v 0.950304 3.447486 -0.236012
v 0.969834 3.512240 -0.072163
v 0.834088 4.776667 -0.847209
v 0.772343 4.776667 -1.000001
v 0.957374 4.829508 -0.823511
v 0.834088 4.776667 -1.152794
v 0.957374 4.829508 -1.176492
v 0.783563 4.641001 -0.854781
v 0.733827 4.641001 -1.000001
v 0.840264 4.685759 -0.832299
v 0.781380 4.623899 -1.171132
v 0.845295 4.676741 -1.197674
v 0.737619 4.474998 -0.886375
v 0.678853 4.393470 -1.035075
v 0.727139 4.427915 -1.133831
v 0.834959 4.901191 -0.870851
v 0.782659 4.901191 -1.000001
v 0.939385 4.945949 -0.850778
v 0.834959 4.901191 -1.129688
v 0.939385 4.945949 -1.149761
v 0.830772 4.770398 -0.870314
v 0.778472 4.770398 -1.000001
v 0.935198 4.815156 -0.850241
v 0.830772 4.770398 -1.129688
v 0.935198 4.815156 -1.149761
v 0.795191 4.641001 -0.874194
v 0.733827 4.641001 -1.000001
v 0.846853 4.685759 -0.855081
v 0.783563 4.641001 -1.145221
v 0.840264 4.685759 -1.167703
v 0.749248 4.474998 -0.905788
v 0.699283 4.445822 -1.029978
v 0.737619 4.474998 -1.113627
v 0.950248 1.293630 -0.624721
v 1.009629 1.270631 -0.951853
v 1.128679 1.252007 -0.782489
v 1.040982 1.274328 -0.632892
v 0.836069 1.314543 -0.756890
v 0.920067 1.289548 -0.943998
v 1.092943 1.257115 -0.866829
v 1.108975 1.258540 -0.693308
v 0.871955 1.309082 -0.672234
v 0.855939 1.307817 -0.846386
v 0.950248 1.293629 -1.375280
v 1.009629 1.270631 -1.048147
v 1.128679 1.252007 -1.217511
v 1.040982 1.274328 -1.367109
v 0.836069 1.314543 -1.243111
v 0.920067 1.289547 -1.056002
v 1.092943 1.257115 -1.133172
v 1.108975 1.258540 -1.306692
v 0.871955 1.309081 -1.327766
v 0.855939 1.307817 -1.153615
v 0.953284 3.971162 -0.256416
v 1.059470 3.942106 -0.315071
v 0.841077 3.884031 -0.251983
v 0.959793 3.909465 -0.209153
v 1.065232 3.881451 -0.274655
v 0.844028 3.949907 -0.300510
v 0.969893 3.512492 -0.071965
v 0.879823 3.497209 -0.104271
v 1.050482 3.495114 -0.122257
vn 0.9943 -0.1065 -0.0000
vn 0.9998 -0.0177 -0.0000
vn 0.8488 0.0246 0.5281
vn 0.8474 -0.1329 0.5140
vn 0.0846 0.0547 0.9949
vn 0.1137 0.0185 0.9933
vn -0.8077 0.0736 0.5849
vn -0.8116 0.1628 0.5610
vn -0.0046 0.2023 0.9793
vn 0.7903 -0.1299 0.5988
vn -0.8424 0.1845 0.5063
vn 0.9580 -0.2262 0.1761
vn 0.9798 -0.2000 -0.0000
vn -0.9992 0.0388 -0.0000
vn -0.9989 0.0226 0.0423
vn -0.9595 0.2818 0.0007
vn -0.9643 0.2648 -0.0000
vn -0.9969 0.0793 -0.0000
vn -0.8982 -0.1659 0.4071
vn -0.9989 -0.0472 -0.0000
vn 0.8597 0.0241 0.5103
vn 0.0786 -0.0316 0.9964
vn 0.8161 -0.0443 0.5763
vn 0.8650 0.2605 0.4289
vn 0.7882 0.5155 0.3363
vn 0.8388 0.3097 0.4479
vn 0.5123 0.7789 0.3617
vn -0.4460 0.8473 0.2883
vn -0.3524 0.8477 0.3964
vn 0.4942 0.7670 0.4093
vn 0.8932 0.1784 0.4128
vn -0.8888 0.4454 0.1078
vn -0.9162 0.4006 -0.0000
vn 0.7374 0.6514 0.1789
vn 0.7348 0.2056 0.6464
vn 0.8958 -0.4444 -0.0000
vn 0.9306 -0.3659 -0.0058
vn 0.6919 -0.6850 -0.2284
vn 0.5394 -0.8421 -0.0000
vn 0.9668 -0.1864 0.1749
vn 0.9657 -0.1191 0.2307
vn 0.9377 -0.3470 -0.0182
vn 0.8124 0.5831 -0.0000
vn 0.8013 0.5983 -0.0000
vn 0.9385 0.3454 -0.0000
vn 1.0000 -0.0073 -0.0000
vn -0.9110 -0.4123 0.0111
vn -0.8306 -0.5569 -0.0000
vn -0.1096 -0.9940 -0.0000
vn -0.3428 -0.8158 -0.4658
vn -0.9891 0.1471 -0.0000
vn -0.9769 0.2138 -0.0000
vn 0.2341 -0.9722 -0.0000
vn 0.2347 -0.7190 -0.6542
vn 0.1760 0.6052 0.7763
vn -0.7092 0.4644 0.5304
vn -0.8657 -0.4883 0.1098
vn 0.7605 0.3955 0.5150
vn 0.9629 0.2697 -0.0000
vn 0.9006 -0.4347 -0.0000
vn 0.6141 -0.2364 0.7530
vn -0.9403 0.3403 -0.0000
vn -0.9916 0.1297 -0.0000
vn -0.9849 0.0728 0.1573
vn -0.3673 -0.1630 -0.9157
vn -0.8591 -0.3499 -0.3734
vn 0.9754 -0.2203 -0.0000
vn -0.9388 -0.1573 0.3065
vn 0.1405 -0.0675 -0.9878
vn 0.8442 0.0387 0.5346
vn 0.3949 0.1340 0.9089
vn 0.3489 -0.0402 0.9363
vn 0.8382 -0.0110 0.5453
vn 0.6828 -0.1176 -0.7211
vn 0.7126 -0.0031 -0.7016
vn 0.2031 -0.0700 -0.9767
vn -0.8230 -0.1524 -0.5473
vn -0.9807 -0.1601 0.1124
vn -0.2221 0.1569 0.9623
vn -0.6677 0.0605 0.7419
vn -0.6839 -0.1260 0.7187
vn -0.1744 -0.0726 0.9820
vn -0.3522 -0.1238 -0.9277
vn 0.9966 -0.0747 -0.0346
vn 0.9919 0.0202 -0.1257
vn 0.9889 -0.1209 -0.0861
vn 0.7020 -0.0972 -0.7055
vn 0.3432 -0.2167 0.9139
vn 0.7936 -0.1665 0.5853
vn 0.2131 -0.0900 -0.9729
vn -0.8113 -0.1093 -0.5743
vn -0.9817 -0.1608 0.1018
vn -0.6904 -0.1865 0.6990
vn -0.1861 -0.1916 0.9637
vn -0.3225 -0.0735 -0.9437
vn 0.7979 -0.2225 0.5602
vn 0.9659 -0.2402 -0.0971
vn 0.6988 -0.1492 -0.6996
vn 0.2933 -0.2631 0.9191
vn 0.3115 -0.1289 0.9415
vn 0.1722 -0.0213 -0.9848
vn -0.8377 0.0133 -0.5460
vn -0.9966 -0.0280 0.0769
vn -0.2193 -0.0642 0.9735
vn -0.3670 0.0642 -0.9280
vn 0.1829 0.0099 -0.9831
vn 0.1595 0.0726 -0.9845
vn 0.8199 -0.1083 0.5621
vn 0.9755 -0.2018 -0.0875
vn 0.7146 -0.0927 -0.6934
vn 0.3196 0.0773 0.9444
vn -0.8378 0.1332 -0.5295
vn -0.9863 0.1335 0.0974
vn -0.7403 -0.0618 0.6694
vn -0.3713 0.1173 -0.9211
vn 0.2547 0.0720 -0.9643
vn 0.2369 -0.0017 -0.9715
vn -0.4351 0.0333 -0.8998
vn 0.8607 -0.0365 0.5078
vn 0.9946 -0.0373 -0.0969
vn 0.7733 -0.0294 -0.6333
vn 0.4363 0.0981 0.8944
vn 0.3871 -0.0295 0.9216
vn -0.8723 0.0758 -0.4831
vn -0.9916 0.0922 0.0906
vn -0.7282 0.1306 0.6728
vn -0.2057 0.1065 0.9728
vn -0.6952 -0.4511 0.5596
vn -0.8927 -0.4416 0.0894
vn -0.9255 -0.3709 0.0768
vn -0.7233 -0.3873 0.5717
vn 0.2574 -0.5436 0.7989
vn -0.2594 -0.4838 0.8358
vn -0.3003 -0.4517 0.8401
vn 0.1380 -0.4445 0.8851
vn -0.4561 -0.4605 -0.7615
vn 0.1817 -0.5260 -0.8308
vn 0.1130 -0.5823 -0.8051
vn -0.5233 -0.5538 -0.6477
vn 0.7712 -0.6330 -0.0679
vn 0.6519 -0.6078 0.4534
vn 0.7514 -0.3408 0.5650
vn 0.9268 -0.3581 -0.1131
vn 0.6078 -0.6121 -0.5058
vn 0.6948 -0.3996 -0.5980
vn -0.2357 -0.0002 0.9718
vn -0.7576 0.0534 0.6506
vn -0.8985 0.0370 -0.4373
vn -0.4801 -0.0374 -0.8764
vn -0.2985 -0.7139 -0.6334
vn -0.6233 -0.7063 -0.3357
vn -0.7371 0.1666 0.6550
vn -0.9910 0.1036 0.0846
vn -0.7171 -0.6912 0.0899
vn -0.5497 -0.6223 0.5573
vn 0.0605 0.2611 0.9634
vn -0.2345 0.2147 0.9481
vn -0.1612 -0.5509 0.8189
vn 0.0263 -0.6217 0.7828
vn 0.0524 0.0438 -0.9977
vn -0.0032 -0.7248 -0.6889
vn 0.0011 -1.0000 0.0043
vn 0.6111 -0.5286 -0.5892
vn 0.8060 -0.5861 -0.0829
vn 0.4450 0.4591 -0.7689
vn 0.3031 0.4746 -0.8264
vn -0.8206 -0.4577 -0.3422
vn -0.8675 -0.3791 -0.3222
vn -0.9613 0.2153 0.1717
vn 0.3068 0.5494 0.7772
vn 0.5290 0.1898 0.8271
vn 0.9278 0.0246 0.3723
vn 0.4027 0.2282 0.8864
vn -0.9741 -0.1730 0.1457
vn -0.8949 0.2357 0.3790
vn 0.7791 -0.2726 -0.5645
vn -0.1881 -0.4488 -0.8736
vn -0.5894 0.1602 0.7918
vn -0.0209 0.1862 0.9823
vn -0.5551 0.2241 0.8010
vn -0.2238 0.5991 0.7687
vn -0.9548 -0.2231 -0.1964
vn -0.7339 0.2112 0.6456
vn -0.0643 -0.4547 -0.8883
vn -0.8882 -0.2783 -0.3656
vn 0.1773 0.3857 0.9054
vn -0.7669 0.1441 0.6254
vn 0.1137 0.3413 0.9331
vn 0.9086 0.1586 0.3863
vn -0.9225 -0.2137 -0.3215
vn -0.9531 0.2132 0.2150
vn 0.8915 0.1756 0.4177
vn 0.0740 0.9901 -0.1191
vn 0.9748 0.2027 -0.0929
vn 0.7725 -0.2672 -0.5761
vn 0.9830 -0.0768 -0.1667
vn 0.6075 0.7543 -0.2490
vn 0.9081 0.2221 0.3550
vn -0.1530 -0.4376 -0.8861
vn 0.7884 -0.2316 -0.5700
vn 0.7682 -0.2487 -0.5899
vn 0.7275 -0.4967 -0.4733
vn 0.8966 -0.3298 0.2957
vn 0.8814 0.2496 0.4011
vn 0.5173 -0.5478 -0.6575
vn -0.8033 -0.2426 0.5440
vn -0.8532 -0.4456 -0.2711
vn -0.7950 -0.5071 -0.3329
vn -0.7724 0.1738 0.6108
vn -0.8992 -0.2157 -0.3806
vn 0.0730 -0.4291 0.9003
vn 0.1047 -0.1057 0.9889
vn -0.6130 -0.1520 0.7753
vn -0.9858 0.0321 0.1649
vn 0.7394 -0.3451 -0.5781
vn 0.8596 0.2854 0.4238
vn 0.6509 -0.4121 -0.6376
vn -0.6851 0.3896 0.6155
vn -0.8985 -0.1493 -0.4128
vn -0.8539 -0.3454 -0.3894
vn -0.0925 -0.6201 -0.7790
vn -0.0938 -0.7356 -0.6708
vn 0.0984 0.3471 0.9326
vn -0.8432 -0.3898 -0.3701
vn -0.0392 -0.4864 -0.8729
vn -0.0078 -0.6653 -0.7465
vn -0.6167 -0.6725 -0.4091
vn 0.0405 0.2985 0.9536
vn -0.6755 0.0951 0.7312
vn -0.4764 -0.6820 0.5549
vn 0.0684 -0.7089 0.7020
vn -0.0781 -0.6759 -0.7329
vn 0.0431 0.4507 0.8916
vn -0.7097 0.2278 0.6666
vn 0.0397 0.4023 0.9147
vn 0.8898 0.2216 0.3990
vn 0.5114 -0.5935 -0.6214
vn 0.6938 -0.5885 0.4150
vn 0.8549 0.1809 0.4863
vn 0.6552 -0.3448 -0.6722
vn 0.0535 0.6041 0.7951
vn 0.6425 0.3727 0.6695
vn -0.1081 -0.6729 -0.7318
vn -0.8779 -0.1759 -0.4454
vn -0.6680 0.5382 0.5140
vn 0.0940 -0.8207 -0.5636
vn 0.0163 0.0307 0.9994
vn 0.7638 0.6455 0.0034
vn -0.4542 -0.8878 -0.0743
vn 0.0326 -0.9820 0.1859
vn 0.1911 -0.2625 0.9458
vn 0.4169 -0.2187 -0.8823
vn 0.6796 -0.5544 -0.4804
vn 0.8940 0.2975 0.3350
vn -0.0299 -0.6686 -0.7430
vn 0.9005 -0.4349 0.0001
vn -0.9990 0.0373 -0.0262
vn -0.6612 0.1108 0.7420
vn -0.0001 -0.0101 0.9999
vn 0.6141 -0.2363 0.7530
vn -0.6612 0.1108 0.7419
vn -0.9990 0.0375 -0.0261
vn 0.6871 -0.5709 0.4495
vn 0.2842 -0.5295 0.7993
vn 0.2181 -0.5972 -0.7718
vn 0.4631 0.8560 0.2297
vn 0.4931 0.8677 -0.0626
vn 0.4818 0.7838 -0.3919
vn 0.3214 0.5919 0.7392
vn 0.7816 0.6198 -0.0705
vn 0.6809 0.6216 0.3873
vn 0.5966 0.6308 -0.4961
vn 0.3302 0.5664 0.7551
vn -0.7518 0.3031 0.5855
vn -0.5228 0.8358 -0.1675
vn 0.0315 0.9792 0.2006
vn -0.0765 -0.4016 -0.9126
vn -0.4059 -0.4751 0.7808
vn -0.6565 -0.1587 0.7374
vn -0.9652 -0.2613 -0.0132
vn -0.9990 0.0374 -0.0262
vn -0.6566 -0.1587 0.7374
vn -0.6973 0.2571 0.6691
vn -0.9269 0.3753 0.0035
vn -0.9652 -0.2613 -0.0131
vn 0.3246 0.0801 0.9425
vn 0.2449 0.0861 0.9657
vn 0.1305 -0.3222 0.9376
vn 0.3895 -0.1887 0.9015
vn 0.8535 -0.0016 0.5210
vn 0.6381 0.0127 0.7698
vn 0.7823 -0.1111 0.6130
vn 0.9988 0.0490 -0.0000
vn 0.9986 -0.0521 -0.0000
vn 0.8865 -0.0194 0.4623
vn -0.1339 -0.4346 0.8906
vn 0.0675 -0.7307 0.6794
vn 0.2108 0.6936 0.6888
vn -0.3108 0.5795 0.7534
vn -0.2306 -0.1156 0.9662
vn -0.7598 0.3909 0.5195
vn -0.1683 0.8253 0.5390
vn 0.0017 -0.2309 0.9730
vn -0.4528 -0.7071 0.5431
vn -0.6612 0.1109 0.7419
vn -0.0001 -0.0100 0.9999
vn -0.4171 0.9088 -0.0000
vn 0.2541 0.9672 -0.0000
vn 0.8783 0.4782 -0.0000
vn 0.6390 0.3570 0.6813
vn 0.8080 -0.1060 0.5796
vn 0.9826 -0.1859 -0.0000
vn 0.6533 -0.0437 0.7558
vn 0.6303 0.0996 0.7700
vn 0.9787 -0.2053 -0.0000
vn 0.8822 -0.4709 -0.0000
vn 0.7860 -0.1616 0.5967
vn 0.5081 -0.6323 0.5848
vn 0.6097 -0.7926 -0.0000
vn 0.0637 -0.9980 -0.0000
vn -0.5258 -0.1372 0.8395
vn -0.5354 0.4295 0.7273
vn 0.0580 0.8005 0.5965
vn -0.1712 -0.6356 0.7528
vn 0.8474 -0.1329 -0.5140
vn 0.8488 0.0246 -0.5281
vn 0.1137 0.0185 -0.9933
vn 0.0846 0.0547 -0.9949
vn -0.8116 0.1628 -0.5610
vn -0.8077 0.0736 -0.5849
vn 0.7903 -0.1299 -0.5988
vn -0.0046 0.2023 -0.9793
vn -0.8424 0.1845 -0.5063
vn 0.9580 -0.2262 -0.1761
vn -0.9595 0.2818 -0.0007
vn -0.9989 0.0226 -0.0423
vn -0.8982 -0.1659 -0.4071
vn 0.0786 -0.0316 -0.9964
vn 0.8597 0.0241 -0.5103
vn 0.8161 -0.0443 -0.5763
vn 0.8388 0.3097 -0.4479
vn 0.7882 0.5155 -0.3363
vn 0.8650 0.2605 -0.4289
vn 0.5123 0.7789 -0.3617
vn 0.4942 0.7670 -0.4093
vn -0.3524 0.8477 -0.3964
vn -0.4460 0.8473 -0.2883
vn 0.8932 0.1784 -0.4128
vn -0.8888 0.4454 -0.1078
vn 0.7374 0.6514 -0.1789
vn 0.7348 0.2056 -0.6464
vn 0.6919 -0.6850 0.2284
vn 0.9306 -0.3659 0.0058
vn 0.9377 -0.3470 0.0182
vn 0.9657 -0.1191 -0.2307
vn 0.9668 -0.1864 -0.1749
vn -0.9110 -0.4123 -0.0111
vn -0.3428 -0.8158 0.4658
vn 0.2347 -0.7190 0.6542
vn -0.7092 0.4644 -0.5304
vn 0.1760 0.6052 -0.7763
vn -0.8657 -0.4883 -0.1098
vn 0.7605 0.3955 -0.5150
vn 0.6141 -0.2364 -0.7530
vn -0.9849 0.0728 -0.1573
vn -0.8591 -0.3499 0.3734
vn -0.3673 -0.1630 0.9157
vn -0.9388 -0.1573 -0.3065
vn 0.1405 -0.0675 0.9878
vn 0.8442 0.0387 -0.5346
vn 0.8382 -0.0110 -0.5453
vn 0.3489 -0.0402 -0.9363
vn 0.3949 0.1340 -0.9089
vn 0.2031 -0.0700 0.9767
vn 0.7126 -0.0031 0.7016
vn 0.6828 -0.1176 0.7211
vn -0.9807 -0.1601 -0.1124
vn -0.8230 -0.1524 0.5473
vn -0.2221 0.1569 -0.9623
vn -0.1744 -0.0726 -0.9820
vn -0.6839 -0.1260 -0.7187
vn -0.6677 0.0605 -0.7419
vn -0.3522 -0.1238 0.9277
vn 0.9966 -0.0747 0.0346
vn 0.7020 -0.0972 0.7055
vn 0.9889 -0.1209 0.0861
vn 0.9919 0.0202 0.1257
vn 0.7936 -0.1665 -0.5853
vn 0.3432 -0.2167 -0.9139
vn 0.2131 -0.0900 0.9729
vn -0.9817 -0.1608 -0.1018
vn -0.8113 -0.1093 0.5743
vn -0.1861 -0.1916 -0.9637
vn -0.6904 -0.1865 -0.6990
vn -0.3225 -0.0735 0.9437
vn 0.9659 -0.2402 0.0971
vn 0.7979 -0.2225 -0.5602
vn 0.6988 -0.1492 0.6996
vn 0.3115 -0.1289 -0.9415
vn 0.2933 -0.2631 -0.9191
vn 0.1722 -0.0213 0.9848
vn -0.9966 -0.0280 -0.0769
vn -0.8377 0.0133 0.5460
vn -0.2193 -0.0642 -0.9735
vn -0.3670 0.0642 0.9280
vn 0.1595 0.0726 0.9845
vn 0.1829 0.0099 0.9831
vn 0.9755 -0.2018 0.0875
vn 0.8199 -0.1083 -0.5621
vn 0.7146 -0.0927 0.6934
vn 0.3196 0.0773 -0.9444
vn -0.9863 0.1335 -0.0974
vn -0.8378 0.1332 0.5295
vn -0.7403 -0.0618 -0.6694
vn -0.3713 0.1173 0.9211
vn -0.4351 0.0333 0.8998
vn 0.2369 -0.0017 0.9715
vn 0.2547 0.0720 0.9643
vn 0.9946 -0.0373 0.0969
vn 0.8607 -0.0365 -0.5078
vn 0.7733 -0.0294 0.6333
vn 0.3871 -0.0295 -0.9216
vn 0.4363 0.0981 -0.8944
vn -0.9916 0.0922 -0.0906
vn -0.8723 0.0758 0.4831
vn -0.7282 0.1306 -0.6728
vn -0.2057 0.1065 -0.9728
vn -0.6952 -0.4511 -0.5596
vn -0.7233 -0.3873 -0.5717
vn -0.9255 -0.3709 -0.0768
vn -0.8927 -0.4416 -0.0894
vn 0.2574 -0.5436 -0.7989
vn 0.1380 -0.4445 -0.8851
vn -0.3003 -0.4517 -0.8401
vn -0.2594 -0.4838 -0.8358
vn -0.4561 -0.4605 0.7615
vn -0.5233 -0.5538 0.6477
vn 0.1130 -0.5823 0.8051
vn 0.1817 -0.5260 0.8308
vn 0.7712 -0.6330 0.0679
vn 0.9268 -0.3581 0.1131
vn 0.7514 -0.3408 -0.5650
vn 0.6519 -0.6078 -0.4534
vn 0.6078 -0.6121 0.5058
vn 0.6948 -0.3996 0.5980
vn -0.2357 -0.0002 -0.9718
vn -0.7576 0.0534 -0.6506
vn -0.8985 0.0370 0.4373
vn -0.6233 -0.7063 0.3357
vn -0.2985 -0.7139 0.6334
vn -0.4801 -0.0374 0.8764
vn -0.7371 0.1666 -0.6550
vn -0.5497 -0.6223 -0.5573
vn -0.7171 -0.6912 -0.0899
vn -0.9910 0.1036 -0.0846
vn 0.0605 0.2611 -0.9634
vn 0.0263 -0.6217 -0.7828
vn -0.1612 -0.5509 -0.8189
vn -0.2345 0.2147 -0.9481
vn -0.0032 -0.7248 0.6889
vn 0.0524 0.0438 0.9977
vn 0.0011 -1.0000 -0.0043
vn 0.8060 -0.5861 0.0829
vn 0.6111 -0.5286 0.5892
vn 0.3031 0.4746 0.8264
vn 0.4450 0.4591 0.7689
vn -0.8206 -0.4577 0.3422
vn -0.8675 -0.3791 0.3222
vn -0.9613 0.2153 -0.1717
vn 0.5290 0.1898 -0.8271
vn 0.3068 0.5494 -0.7772
vn 0.9278 0.0246 -0.3723
vn 0.4027 0.2282 -0.8864
vn -0.8949 0.2357 -0.3790
vn -0.9741 -0.1730 -0.1457
vn -0.1882 -0.4476 0.8742
vn 0.7791 -0.2713 0.5651
vn -0.5894 0.1602 -0.7918
vn -0.5551 0.2241 -0.8010
vn -0.0209 0.1862 -0.9823
vn -0.2238 0.5991 -0.7687
vn -0.7340 0.2121 -0.6452
vn -0.9549 -0.2221 0.1968
vn -0.8883 -0.2772 0.3662
vn -0.0643 -0.4535 0.8889
vn 0.1772 0.3868 -0.9050
vn 0.1137 0.3425 -0.9326
vn -0.7670 0.1451 -0.6250
vn 0.9087 0.1598 -0.3857
vn -0.8205 0.2238 -0.5261
vn -0.9225 -0.2137 0.3215
vn 0.8914 0.1770 -0.4172
vn 0.9072 0.2328 -0.3504
vn 0.0748 0.4703 -0.8793
vn 0.7725 -0.2659 0.5767
vn 0.0977 0.4731 -0.8756
vn -0.7836 0.2654 -0.5617
vn -0.1530 -0.4376 0.8861
vn 0.7682 -0.2487 0.5899
vn 0.7884 -0.2316 0.5700
vn 0.7275 -0.4967 0.4733
vn 0.5154 -0.5501 0.6571
vn 0.8804 0.2525 -0.4014
vn 0.8909 -0.0781 -0.4474
vn -0.7532 -0.0409 -0.6565
vn -0.7725 0.1753 -0.6103
vn -0.7942 -0.5085 0.3327
vn -0.8532 -0.4456 0.2711
vn -0.8992 -0.2157 0.3806
vn 0.8977 0.2209 -0.3813
vn 0.7394 -0.3451 0.5781
vn 0.6509 -0.4121 0.6376
vn 0.8596 0.2854 -0.4238
vn -0.6851 0.3896 -0.6155
vn -0.8539 -0.3454 0.3894
vn -0.8985 -0.1493 0.4128
vn -0.0925 -0.6201 0.7790
vn -0.0938 -0.7370 0.6693
vn 0.1020 0.1419 -0.9846
vn 0.0985 0.3481 -0.9323
vn -0.8432 -0.3898 0.3701
vn -0.6167 -0.6725 0.4091
vn -0.0078 -0.6653 0.7465
vn -0.0392 -0.4864 0.8729
vn 0.0405 0.2985 -0.9536
vn 0.0684 -0.7089 -0.7020
vn -0.4764 -0.6820 -0.5549
vn -0.6755 0.0951 -0.7312
vn -0.0781 -0.6759 0.7329
vn 0.0431 0.4507 -0.8916
vn 0.0397 0.4023 -0.9147
vn -0.7097 0.2278 -0.6666
vn 0.8898 0.2216 -0.3990
vn 0.6938 -0.5885 -0.4150
vn 0.5114 -0.5935 0.6214
vn 0.8549 0.1809 -0.4863
vn 0.6552 -0.3448 0.6722
vn 0.6423 0.3735 -0.6693
vn 0.0534 0.6048 -0.7946
vn -0.8783 -0.1751 0.4449
vn -0.1085 -0.6750 0.7298
vn -0.6677 0.5390 -0.5135
vn 0.0945 -0.8219 0.5617
vn 0.7619 0.6477 -0.0018
vn 0.0157 0.0313 -0.9994
vn 0.1911 -0.2625 -0.9458
vn 0.0326 -0.9820 -0.1859
vn -0.4534 -0.8883 0.0736
vn 0.4172 -0.2165 0.8827
vn 0.6796 -0.5544 0.4804
vn 0.8940 0.2975 -0.3350
vn -0.0299 -0.6686 0.7430
vn 0.6142 -0.2364 -0.7529
vn -0.0001 -0.0101 -0.9999
vn -0.6612 0.1108 -0.7420
vn -0.6612 0.1108 -0.7419
vn 0.2842 -0.5295 -0.7993
vn 0.6871 -0.5709 -0.4495
vn 0.2181 -0.5972 0.7718
vn 0.4931 0.8677 0.0626
vn 0.4631 0.8560 -0.2297
vn 0.4818 0.7838 0.3919
vn 0.3214 0.5919 -0.7392
vn 0.7816 0.6198 0.0705
vn 0.6809 0.6216 -0.3873
vn 0.5966 0.6308 0.4961
vn 0.3302 0.5664 -0.7551
vn -0.0765 -0.4016 0.9126
vn -0.3979 -0.5601 -0.7266
vn -0.5760 -0.1738 -0.7988
vn -0.5760 -0.1737 -0.7987
vn -0.7041 0.2970 -0.6450
vn 0.3246 0.0801 -0.9425
vn 0.3895 -0.1887 -0.9015
vn 0.1305 -0.3222 -0.9376
vn 0.2453 0.0923 -0.9650
vn 0.8535 -0.0016 -0.5210
vn 0.7823 -0.1111 -0.6130
vn 0.6381 0.0127 -0.7698
vn 0.8865 -0.0194 -0.4623
vn -0.1339 -0.4346 -0.8906
vn 0.0675 -0.7307 -0.6794
vn 0.2108 0.6936 -0.6888
vn -0.1542 0.8455 -0.5112
vn -0.7831 0.4346 -0.4448
vn -0.6833 -0.2200 -0.6962
vn -0.3029 0.6000 -0.7405
vn -0.5234 -0.6737 -0.5218
vn 0.0017 -0.2309 -0.9730
vn -0.6612 0.1109 -0.7420
vn -0.0001 -0.0100 -0.9999
vn 0.6390 0.3570 -0.6813
vn 0.8080 -0.1060 -0.5796
vn 0.6303 0.0996 -0.7700
vn 0.6533 -0.0437 -0.7558
vn 0.7860 -0.1616 -0.5967
vn 0.5081 -0.6323 -0.5848
vn -0.6097 0.3830 -0.6940
vn -0.6799 -0.2591 -0.6860
vn 0.0580 0.8005 -0.5965
vn -0.4501 -0.6735 -0.5864
vn 0.6141 -0.2363 -0.7530
vn -0.9803 0.1972 0.0094
vn -0.6193 0.1796 0.7643
vn 0.7574 -0.0715 0.6491
vn -0.2304 -0.1156 0.9662
vn -0.5760 -0.1737 -0.7988
vn -0.6774 0.2239 -0.7007
vn -0.6832 -0.2201 -0.6963
vn 0.8209 -0.2075 -0.5321
vn 0.4170 -0.4161 -0.8081
vn -0.0446 -0.4760 -0.8783
vn -0.2947 -0.2978 0.9080
vn 0.2995 -0.4600 0.8359
vn -0.9652 0.2611 0.0132
vn -0.0439 -0.8188 -0.5724
vn -0.3862 -0.8948 0.2240
vn -0.0171 -0.4137 0.9103
vn 0.5708 -0.0213 -0.8208
vn 0.6235 -0.1210 -0.7724
vn 0.9825 -0.1853 -0.0183
vn 0.9995 -0.0324 -0.0004
vn 0.5632 -0.0199 -0.8261
vn 0.6532 -0.2900 -0.6995
vn 0.6686 -0.2265 0.7083
vn 0.5696 -0.0182 0.8218
vn 0.6169 -0.0197 0.7868
vn 0.5964 -0.2861 0.7499
vn 0.8416 -0.3986 0.3644
vn 0.6170 -0.5311 0.5808
vn 0.6561 -0.5516 -0.5150
vn 0.8903 -0.4438 -0.1022
vn 0.9676 -0.2475 -0.0508
vn 0.9315 -0.3595 0.0557
vn 0.9385 -0.2626 0.2242
vn 0.9276 -0.3695 -0.0552
vn 0.0977 0.4731 0.8756
vn 0.8090 -0.2236 0.5436
vt 0.111465 0.675901
vt 0.111465 0.606695
vt 0.149588 0.605635
vt 0.148919 0.676029
vt 0.202630 0.606375
vt 0.209874 0.664597
vt 0.590366 0.467912
vt 0.590112 0.411048
vt 0.642639 0.407249
vt 0.649010 0.454390
vt 0.544288 0.368881
vt 0.562892 0.419928
vt 0.533962 0.448347
vt 0.519136 0.391083
vt 0.011241 0.294293
vt 0.030428 0.247017
vt 0.077817 0.259992
vt 0.046113 0.311732
vt 0.541585 0.336281
vt 0.517291 0.370989
vt 0.515463 0.336281
vt 0.682778 0.301712
vt 0.646450 0.301163
vt 0.649859 0.282041
vt 0.682778 0.282857
vt 0.682778 0.406802
vt 0.642762 0.334481
vt 0.682778 0.335518
vt 0.146644 0.562557
vt 0.210910 0.546090
vt 0.583514 0.359942
vt 0.201217 0.504764
vt 0.145662 0.536197
vt 0.152312 0.499163
vt 0.189294 0.482745
vt 0.772536 0.917958
vt 0.744611 0.927445
vt 0.740556 0.905765
vt 0.762754 0.898757
vt 0.794109 0.896046
vt 0.778474 0.881498
vt 0.655067 0.256368
vt 0.682778 0.256292
vt 0.135406 0.457811
vt 0.184004 0.449142
vt 0.504054 0.413804
vt 0.471130 0.336278
vt 0.472967 0.364159
vt 0.442589 0.345513
vt 0.442647 0.336275
vt 0.490608 0.372518
vt 0.475973 0.403359
vt 0.462680 0.377686
vt 0.111464 0.496898
vt 0.111464 0.457327
vt 0.111464 0.536074
vt 0.111464 0.564657
vt 0.135460 0.242237
vt 0.137123 0.216151
vt 0.194773 0.216160
vt 0.194810 0.226428
vt 0.030603 0.216145
vt 0.079803 0.216146
vt 0.682778 0.451800
vt 0.244501 0.216174
vt 0.245210 0.225008
vt 0.194419 0.417739
vt 0.142239 0.418026
vt 0.139514 0.397647
vt 0.612925 0.310086
vt 0.144838 0.013875
vt 0.162410 0.011374
vt 0.164817 0.028654
vt 0.146781 0.033690
vt 0.111464 0.439599
vt 0.129566 0.433843
vt 0.666087 0.228570
vt 0.682778 0.228943
vt 0.103939 0.216148
vt 0.102065 0.246522
vt 0.208058 0.253723
vt 0.166098 0.265690
vt 0.487883 0.336279
vt 0.132513 0.283517
vt 0.245596 0.249724
vt 0.468103 0.427594
vt 0.492049 0.444753
vt 0.409858 0.480289
vt 0.397210 0.456391
vt 0.395785 0.345437
vt 0.395709 0.336268
vt 0.381980 0.365308
vt 0.413707 0.381083
vt 0.366828 0.417440
vt 0.349410 0.396487
vt 0.219055 0.312391
vt 0.197323 0.328369
vt 0.084926 0.323864
vt 0.106031 0.302622
vt 0.178464 0.348097
vt 0.162234 0.371514
vt 0.243994 0.298719
vt 0.447445 0.403046
vt 0.382615 0.436271
vt 0.319973 0.471581
vt 0.311411 0.454167
vt 0.334850 0.508044
vt 0.327393 0.489329
vt 0.300713 0.436512
vt 0.266714 0.364137
vt 0.253066 0.379085
vt 0.241734 0.395555
vt 0.231688 0.413552
vt 0.283210 0.350883
vt 0.269593 0.285742
vt 0.508007 0.481655
vt 0.419905 0.507392
vt 0.303245 0.499942
vt 0.292369 0.486266
vt 0.282011 0.472239
vt 0.326612 0.512556
vt 0.315321 0.518782
vt 0.282957 0.446020
vt 0.284460 0.385609
vt 0.269937 0.394359
vt 0.248874 0.421121
vt 0.301277 0.339709
vt 0.341630 0.528084
vt 0.238148 0.699169
vt 0.235294 0.678840
vt 0.245912 0.679288
vt 0.801598 0.144620
vt 0.801737 0.161884
vt 0.767456 0.165578
vt 0.766755 0.144007
vt 0.798190 0.127694
vt 0.767084 0.122674
vt 0.797604 0.183645
vt 0.779213 0.184131
vt 0.791927 0.106008
vt 0.782745 0.105738
vt 0.236070 0.739177
vt 0.237991 0.719387
vt 0.257825 0.718372
vt 0.256243 0.740038
vt 0.309270 0.357509
vt 0.299982 0.378081
vt 0.323425 0.534957
vt 0.257773 0.406181
vt 0.260495 0.698637
vt 0.262338 0.680190
vt 0.323382 0.678840
vt 0.315475 0.698510
vt 0.704912 0.160865
vt 0.702743 0.139632
vt 0.705176 0.118398
vt 0.768491 0.184922
vt 0.710146 0.181563
vt 0.768507 0.104044
vt 0.711425 0.098075
vt 0.309792 0.717555
vt 0.307666 0.736878
vt 0.795201 0.201434
vt 0.233584 0.758818
vt 0.256647 0.761345
vt 0.230345 0.778769
vt 0.258351 0.780786
vt 0.448850 0.736949
vt 0.447672 0.724396
vt 0.467673 0.722613
vt 0.468703 0.734105
vt 0.585290 0.156927
vt 0.585402 0.168680
vt 0.566824 0.163844
vt 0.567453 0.153407
vt 0.450564 0.699706
vt 0.453513 0.688095
vt 0.472103 0.689417
vt 0.469863 0.699876
vt 0.583814 0.132619
vt 0.584414 0.144966
vt 0.567200 0.142695
vt 0.566824 0.131618
vt 0.584142 0.120331
vt 0.566851 0.120607
vt 0.770432 0.201884
vt 0.715450 0.202529
vt 0.309883 0.756855
vt 0.317295 0.776769
vt 0.958369 0.526437
vt 0.957225 0.512930
vt 0.982827 0.507758
vt 0.984163 0.524070
vt 0.959034 0.551900
vt 0.959183 0.538993
vt 0.985347 0.541255
vt 0.986108 0.558117
vt 0.833166 0.938066
vt 0.847830 0.938166
vt 0.844205 0.966554
vt 0.829151 0.966229
vt 0.955332 0.498230
vt 0.981615 0.492114
vt 0.279785 0.584480
vt 0.274129 0.569498
vt 0.347724 0.570665
vt 0.353379 0.585647
vt 0.486491 0.938155
vt 0.486342 0.908669
vt 0.513232 0.933821
vt 0.563027 0.954059
vt 0.448375 0.711791
vt 0.468172 0.710967
vt 0.452143 0.748648
vt 0.471407 0.744631
vt 0.585366 0.108537
vt 0.567357 0.110031
vt 0.619153 0.280883
vt 0.620463 0.251104
vt 0.754974 0.881221
vt 0.765120 0.868736
vt 0.787854 0.866060
vt 0.769950 0.857871
vt 0.872981 0.907543
vt 0.856180 0.881083
vt 0.874879 0.870117
vt 0.887440 0.892183
vt 0.806452 0.877158
vt 0.814420 0.820078
vt 0.838753 0.821903
vt 0.896018 0.927445
vt 0.905589 0.907655
vt 0.894336 0.863780
vt 0.920416 0.856018
vt 0.926048 0.866335
vt 0.911030 0.871706
vt 0.898797 0.878926
vt 0.924871 0.882191
vt 0.910710 0.888527
vt 0.861649 0.819851
vt 0.880571 0.817379
vt 0.739721 0.885343
vt 0.838807 0.791461
vt 0.857631 0.791346
vt 0.901456 0.812930
vt 0.876539 0.789294
vt 0.895487 0.785298
vt 0.774402 0.810573
vt 0.796816 0.815851
vt 0.858095 0.778685
vt 0.874064 0.776756
vt 0.800596 0.786987
vt 0.784407 0.769513
vt 0.803593 0.772537
vt 0.781304 0.782891
vt 0.819685 0.790011
vt 0.908504 0.452632
vt 0.924209 0.452016
vt 0.927445 0.411606
vt 0.925997 0.433129
vt 0.910569 0.432415
vt 0.820739 0.775589
vt 0.840279 0.778212
vt 0.891742 0.772072
vt 0.822939 0.424945
vt 0.822271 0.439858
vt 0.809952 0.438033
vt 0.810421 0.423877
vt 0.821923 0.385446
vt 0.824499 0.399111
vt 0.812304 0.399914
vt 0.809666 0.387133
vt 0.927267 0.392004
vt 0.909865 0.393489
vt 0.819207 0.371325
vt 0.925550 0.374541
vt 0.907722 0.373638
vt 0.902477 0.118384
vt 0.913477 0.122512
vt 0.903968 0.129510
vt 0.704096 0.591265
vt 0.714783 0.586384
vt 0.714549 0.597737
vt 0.825688 0.413248
vt 0.813567 0.413288
vt 0.806787 0.373986
vt 0.819195 0.453838
vt 0.806787 0.451030
vt 0.680106 0.913561
vt 0.670719 0.894341
vt 0.705956 0.880282
vt 0.712345 0.893847
vt 0.849674 0.076896
vt 0.872445 0.080090
vt 0.854509 0.115931
vt 0.837558 0.113727
vt 0.651696 0.899921
vt 0.649397 0.876474
vt 0.660032 0.873418
vt 0.854809 0.057852
vt 0.876886 0.060349
vt 0.875158 0.071682
vt 0.852045 0.068763
vt 0.661544 0.918957
vt 0.672530 0.916734
vt 0.834820 0.049920
vt 0.831767 0.060871
vt 0.559036 0.208441
vt 0.559036 0.191625
vt 0.565853 0.188451
vt 0.565853 0.222084
vt 0.572669 0.202093
vt 0.572669 0.218910
vt 0.829679 0.069593
vt 0.823059 0.108259
vt 0.707185 0.610967
vt 0.715152 0.606059
vt 0.720725 0.643962
vt 0.715629 0.649491
vt 0.903996 0.137971
vt 0.912262 0.142353
vt 0.904772 0.180181
vt 0.899368 0.174952
vt 0.668091 0.871319
vt 0.704128 0.863769
vt 0.848073 0.011504
vt 0.861851 0.017963
vt 0.857356 0.043894
vt 0.838252 0.037885
vt 0.622363 0.919064
vt 0.615171 0.906021
vt 0.637568 0.902185
vt 0.646683 0.919064
vt 0.877162 0.018984
vt 0.877162 0.045734
vt 0.616738 0.893851
vt 0.639767 0.882590
vt 0.706933 0.550791
vt 0.720725 0.547264
vt 0.716919 0.571463
vt 0.703226 0.576919
vt 0.833377 0.036372
vt 0.827690 0.020697
vt 0.910525 0.105573
vt 0.900264 0.102457
vt 0.907264 0.082264
vt 0.913477 0.085972
vt 0.912046 0.110378
vt 0.896280 0.108624
vt 0.627844 0.871746
vt 0.642314 0.875756
vt 0.011956 0.357569
vt 0.015872 0.342237
vt 0.037480 0.346754
vt 0.036862 0.357569
vt 0.061231 0.356241
vt 0.060625 0.349031
vt 0.067835 0.348425
vt 0.068441 0.355635
vt 0.645679 0.855328
vt 0.652619 0.857197
vt 0.816231 0.046821
vt 0.813971 0.039849
vt 0.662372 0.897079
vt 0.705744 0.602423
vt 0.860933 0.187476
vt 0.840737 0.141555
vt 0.859657 0.140116
vt 0.874368 0.153016
vt 0.874368 0.174431
vt 0.107020 0.016687
vt 0.125952 0.015595
vt 0.127419 0.042839
vt 0.108125 0.046093
vt 0.089253 0.016980
vt 0.089253 0.044116
vt 0.252965 0.581157
vt 0.234749 0.572553
vt 0.246296 0.562126
vt 0.261338 0.560959
vt 0.264597 0.610611
vt 0.249555 0.611778
vt 0.253160 0.593593
vt 0.276143 0.600184
vt 0.236763 0.603240
vt 0.231108 0.588257
vt 0.957187 0.566262
vt 0.985847 0.574066
vt 0.349738 0.601351
vt 0.338191 0.611778
vt 0.334932 0.562126
vt 0.760800 0.038084
vt 0.763009 0.048872
vt 0.725626 0.053928
vt 0.722928 0.041942
vt 0.763970 0.027886
vt 0.726360 0.030117
vt 0.926584 0.537125
vt 0.926401 0.525407
vt 0.925342 0.559938
vt 0.926322 0.548855
vt 0.769774 0.057336
vt 0.733338 0.062073
vt 0.771008 0.019875
vt 0.734508 0.022236
vt 0.925968 0.514216
vt 0.925342 0.503367
vt 0.833535 0.908178
vt 0.843995 0.907086
vt 0.666381 0.047953
vt 0.669500 0.059323
vt 0.660080 0.063855
vt 0.657030 0.046841
vt 0.669107 0.036468
vt 0.661856 0.031064
vt 0.678167 0.027063
vt 0.671874 0.019875
vt 0.677707 0.069249
vt 0.669234 0.076821
vt 0.755624 0.966554
vt 0.756984 0.955510
vt 0.490685 0.963760
vt 0.564289 0.963760
vt 0.807489 0.934209
vt 0.910531 0.412972
vt 0.315540 0.370506
vt 0.269747 0.453016
vt 0.530398 0.561882
vt 0.507776 0.561023
vt 0.499731 0.507477
vt 0.546726 0.515237
vt 0.465454 0.568497
vt 0.439987 0.532310
vt 0.506849 0.655078
vt 0.504331 0.618711
vt 0.563853 0.620513
vt 0.571045 0.645824
vt 0.106739 0.744644
vt 0.114379 0.720374
vt 0.141799 0.726841
vt 0.124987 0.767560
vt 0.097062 0.771666
vt 0.092374 0.753179
vt 0.555804 0.598523
vt 0.602029 0.608052
vt 0.445416 0.655078
vt 0.452621 0.605134
vt 0.509029 0.596986
vt 0.498585 0.601443
vt 0.495868 0.612390
vt 0.534605 0.609429
vt 0.521103 0.598536
vt 0.547720 0.547025
vt 0.568314 0.574470
vt 0.398879 0.586229
vt 0.388990 0.653852
vt 0.076769 0.774649
vt 0.011704 0.784216
vt 0.017543 0.725325
vt 0.067089 0.741165
vt 0.148024 0.748545
vt 0.146260 0.764432
vt 0.086646 0.734079
vt 0.097771 0.724224
vt 0.189120 0.758131
vt 0.159659 0.762462
vt 0.175331 0.721370
vt 0.621335 0.641099
vt 0.205323 0.755749
vt 0.191777 0.720809
vt 0.639942 0.597123
vt 0.655078 0.634069
vt 0.142098 0.700149
vt 0.075255 0.700149
vt 0.054928 0.081949
vt 0.042804 0.079352
vt 0.043321 0.070311
vt 0.056300 0.070407
vt 0.078218 0.083805
vt 0.067259 0.082928
vt 0.068263 0.075696
vt 0.226914 0.446140
vt 0.239844 0.451480
vt 0.250019 0.469309
vt 0.217171 0.469309
vt 0.208352 0.459976
vt 0.214104 0.448229
vt 0.029713 0.080417
vt 0.011904 0.083805
vt 0.029728 0.073620
vt 0.603171 0.588725
vt 0.635813 0.586108
vt 0.913053 0.133629
vt 0.074011 0.676029
vt 0.073342 0.605636
vt 0.013057 0.664598
vt 0.020300 0.606376
vt 0.775190 0.467913
vt 0.716546 0.454390
vt 0.722917 0.407250
vt 0.775444 0.411049
vt 0.544288 0.303683
vt 0.519140 0.281482
vt 0.533970 0.224229
vt 0.562892 0.252645
vt 0.011241 0.137991
vt 0.046116 0.120551
vt 0.077822 0.172299
vt 0.030430 0.185272
vt 0.517294 0.301574
vt 0.715697 0.282041
vt 0.719107 0.301163
vt 0.722794 0.334481
vt 0.012019 0.546091
vt 0.076284 0.562557
vt 0.782043 0.359943
vt 0.021711 0.504765
vt 0.033633 0.482746
vt 0.070616 0.499163
vt 0.077267 0.536197
vt 0.558012 0.920751
vt 0.567794 0.901550
vt 0.589993 0.908558
vt 0.585937 0.930238
vt 0.536439 0.898839
vt 0.552074 0.884291
vt 0.710490 0.256368
vt 0.038923 0.449142
vt 0.087522 0.457811
vt 0.504063 0.258763
vt 0.442591 0.327036
vt 0.472971 0.308398
vt 0.462688 0.294870
vt 0.475984 0.269202
vt 0.490613 0.300042
vt 0.135466 0.190063
vt 0.194815 0.205892
vt 0.245218 0.207340
vt 0.028506 0.417738
vt 0.083413 0.397644
vt 0.080689 0.418024
vt 0.752632 0.310086
vt 0.033668 0.013875
vt 0.031726 0.033691
vt 0.013690 0.028654
vt 0.016097 0.011374
vt 0.093362 0.433842
vt 0.699470 0.228570
vt 0.102069 0.185772
vt 0.166114 0.166616
vt 0.208077 0.178600
vt 0.132528 0.148777
vt 0.245623 0.182619
vt 0.468120 0.244968
vt 0.397243 0.216162
vt 0.409894 0.192272
vt 0.492065 0.227816
vt 0.395790 0.327099
vt 0.381993 0.307226
vt 0.349438 0.276042
vt 0.366859 0.255098
vt 0.413720 0.291462
vt 0.197364 0.103927
vt 0.219100 0.119918
vt 0.084935 0.108417
vt 0.162270 0.060761
vt 0.178503 0.084188
vt 0.106043 0.129666
vt 0.244045 0.133605
vt 0.447460 0.269509
vt 0.311464 0.218366
vt 0.320028 0.200958
vt 0.382647 0.236275
vt 0.327450 0.183217
vt 0.334910 0.164508
vt 0.300764 0.236013
vt 0.253147 0.053200
vt 0.266799 0.068160
vt 0.231763 0.018713
vt 0.241811 0.036720
vt 0.283303 0.081427
vt 0.269650 0.146600
vt 0.419944 0.165177
vt 0.508025 0.190924
vt 0.292435 0.186271
vt 0.303311 0.172601
vt 0.282078 0.200291
vt 0.315388 0.153768
vt 0.326674 0.159995
vt 0.283016 0.226503
vt 0.270030 0.037920
vt 0.284561 0.046676
vt 0.248958 0.011142
vt 0.301378 0.092615
vt 0.341691 0.144474
vt 0.742255 0.690788
vt 0.734491 0.670907
vt 0.745108 0.670460
vt 0.811063 0.492935
vt 0.811675 0.527778
vt 0.790104 0.527077
vt 0.793798 0.492796
vt 0.827988 0.496343
vt 0.833009 0.527449
vt 0.771552 0.515320
vt 0.772037 0.496929
vt 0.849674 0.502606
vt 0.849945 0.511788
vt 0.744333 0.730797
vt 0.724160 0.731657
vt 0.722577 0.709992
vt 0.742411 0.711006
vt 0.300095 0.054212
vt 0.309386 0.074804
vt 0.323493 0.137599
vt 0.257860 0.026090
vt 0.719907 0.690257
vt 0.664927 0.690130
vt 0.657020 0.670460
vt 0.718065 0.671810
vt 0.816050 0.591790
vt 0.794817 0.589621
vt 0.837285 0.589357
vt 0.774119 0.584387
vt 0.770760 0.526042
vt 0.851638 0.526026
vt 0.857607 0.583108
vt 0.672736 0.728498
vt 0.670611 0.709174
vt 0.754248 0.499332
vt 0.746818 0.750437
vt 0.723755 0.752965
vt 0.750057 0.770389
vt 0.722051 0.772405
vt 0.531552 0.728569
vt 0.511700 0.725725
vt 0.512730 0.714233
vt 0.532730 0.716016
vt 0.798755 0.709243
vt 0.802275 0.727080
vt 0.791838 0.727709
vt 0.787002 0.709131
vt 0.529838 0.691325
vt 0.510540 0.691496
vt 0.508299 0.681036
vt 0.526889 0.679714
vt 0.823063 0.710719
vt 0.824065 0.727709
vt 0.812987 0.727333
vt 0.810716 0.710119
vt 0.835351 0.710392
vt 0.835075 0.727682
vt 0.753153 0.579083
vt 0.753798 0.524101
vt 0.670520 0.748475
vt 0.663107 0.768388
vt 0.961163 0.775794
vt 0.986956 0.778161
vt 0.985620 0.794473
vt 0.960019 0.789301
vt 0.961827 0.750331
vt 0.988902 0.744114
vt 0.988140 0.760976
vt 0.961976 0.763238
vt 0.169851 0.929542
vt 0.198014 0.925527
vt 0.198339 0.940581
vt 0.169952 0.944206
vt 0.984409 0.810117
vt 0.958126 0.804001
vt 0.646907 0.513246
vt 0.573313 0.514413
vt 0.578968 0.499430
vt 0.652562 0.498263
vt 0.935361 0.011594
vt 0.951265 0.088131
vt 0.931028 0.038335
vt 0.905876 0.011446
vt 0.532027 0.703411
vt 0.512230 0.702587
vt 0.528259 0.740268
vt 0.508995 0.736251
vt 0.847145 0.709167
vt 0.845650 0.727176
vt 0.745093 0.251104
vt 0.746403 0.280883
vt 0.565428 0.871529
vt 0.575575 0.884015
vt 0.542694 0.868853
vt 0.560599 0.860664
vt 0.457567 0.910336
vt 0.443108 0.894977
vt 0.455669 0.872911
vt 0.474368 0.883876
vt 0.491795 0.824696
vt 0.516128 0.822872
vt 0.524096 0.879952
vt 0.434530 0.930238
vt 0.424959 0.910449
vt 0.436212 0.866573
vt 0.431751 0.881719
vt 0.419518 0.874499
vt 0.404500 0.869128
vt 0.410132 0.858811
vt 0.419838 0.891321
vt 0.405677 0.884985
vt 0.449977 0.820173
vt 0.468899 0.822645
vt 0.590827 0.888137
vt 0.472917 0.794140
vt 0.491741 0.794254
vt 0.429092 0.815723
vt 0.435061 0.788092
vt 0.454009 0.792088
vt 0.533732 0.818645
vt 0.556146 0.813367
vt 0.456484 0.779550
vt 0.472453 0.781479
vt 0.529952 0.789780
vt 0.526955 0.775331
vt 0.546141 0.772307
vt 0.549244 0.785685
vt 0.510864 0.792804
vt 0.921334 0.326658
vt 0.903353 0.328237
vt 0.904929 0.307300
vt 0.924651 0.269332
vt 0.907776 0.248522
vt 0.923204 0.247809
vt 0.509809 0.778383
vt 0.490269 0.781005
vt 0.438806 0.774866
vt 0.820145 0.255993
vt 0.807627 0.257060
vt 0.807159 0.242905
vt 0.819478 0.241080
vt 0.819130 0.295492
vt 0.806873 0.293805
vt 0.809511 0.281024
vt 0.821706 0.281827
vt 0.924473 0.288934
vt 0.907071 0.287448
vt 0.921415 0.228922
vt 0.905710 0.228305
vt 0.921035 0.207776
vt 0.922757 0.306397
vt 0.888509 0.558897
vt 0.890001 0.547771
vt 0.899510 0.554769
vt 0.275599 0.637052
vt 0.282071 0.647505
vt 0.270717 0.647739
vt 0.822894 0.267689
vt 0.810774 0.267650
vt 0.816414 0.309612
vt 0.803994 0.306952
vt 0.803994 0.229908
vt 0.816401 0.227099
vt 0.877592 0.658584
vt 0.897307 0.626345
vt 0.910871 0.632734
vt 0.896813 0.667971
vt 0.076896 0.899957
vt 0.113727 0.887841
vt 0.115931 0.904792
vt 0.080090 0.922728
vt 0.891232 0.686994
vt 0.917735 0.678657
vt 0.914679 0.689293
vt 0.057852 0.905092
vt 0.068763 0.902328
vt 0.071682 0.925441
vt 0.060349 0.927170
vt 0.872196 0.677146
vt 0.874420 0.666160
vt 0.049920 0.885103
vt 0.060871 0.882050
vt 0.315991 0.011508
vt 0.329634 0.018325
vt 0.296001 0.018325
vt 0.299175 0.011508
vt 0.326460 0.025142
vt 0.309643 0.025142
vt 0.069593 0.879962
vt 0.108259 0.873342
vt 0.295300 0.640141
vt 0.333824 0.648585
vt 0.328295 0.653681
vt 0.290393 0.648107
vt 0.890028 0.539310
vt 0.885400 0.502329
vt 0.890804 0.497100
vt 0.898295 0.534928
vt 0.927384 0.634561
vt 0.919834 0.670599
vt 0.011504 0.898356
vt 0.037885 0.888535
vt 0.043894 0.907639
vt 0.017963 0.912134
vt 0.872089 0.716326
vt 0.872089 0.692006
vt 0.888969 0.701121
vt 0.885132 0.723519
vt 0.045734 0.927445
vt 0.018984 0.927445
vt 0.908563 0.698922
vt 0.897302 0.721952
vt 0.235124 0.639889
vt 0.261252 0.636181
vt 0.255797 0.649875
vt 0.231598 0.653681
vt 0.020697 0.877973
vt 0.036372 0.883660
vt 0.896557 0.571708
vt 0.899510 0.591309
vt 0.893297 0.595017
vt 0.886296 0.574824
vt 0.898079 0.566904
vt 0.882312 0.568657
vt 0.915397 0.696376
vt 0.919408 0.710846
vt 0.336650 0.360363
vt 0.336650 0.335456
vt 0.347465 0.334839
vt 0.351982 0.356446
vt 0.337978 0.311087
vt 0.338584 0.303877
vt 0.345794 0.304483
vt 0.345188 0.311693
vt 0.933956 0.686071
vt 0.935825 0.693010
vt 0.039849 0.864254
vt 0.046821 0.866514
vt 0.894074 0.676317
vt 0.286757 0.638699
vt 0.842238 0.188562
vt 0.826455 0.174089
vt 0.826889 0.154528
vt 0.071487 0.016687
vt 0.070381 0.046093
vt 0.051088 0.042839
vt 0.052554 0.015595
vt 0.673727 0.509923
vt 0.665354 0.489725
vt 0.680395 0.490892
vt 0.691942 0.501319
vt 0.662095 0.539377
vt 0.650548 0.528950
vt 0.673531 0.522358
vt 0.677137 0.540544
vt 0.695584 0.517023
vt 0.689928 0.532005
vt 0.959980 0.735969
vt 0.988640 0.728165
vt 0.588501 0.540544
vt 0.576954 0.530117
vt 0.591760 0.490892
vt 0.685375 0.817050
vt 0.647503 0.813192
vt 0.650202 0.801206
vt 0.687584 0.806263
vt 0.688545 0.827248
vt 0.650936 0.825017
vt 0.929378 0.765106
vt 0.929194 0.776824
vt 0.928136 0.742293
vt 0.929115 0.753376
vt 0.657913 0.793061
vt 0.694349 0.797798
vt 0.695584 0.835259
vt 0.659084 0.832898
vt 0.928761 0.788015
vt 0.928136 0.798864
vt 0.139964 0.929911
vt 0.138871 0.940371
vt 0.590957 0.807181
vt 0.581605 0.808293
vt 0.584656 0.791280
vt 0.594076 0.795812
vt 0.593682 0.818666
vt 0.586432 0.824070
vt 0.602742 0.828071
vt 0.596449 0.835259
vt 0.593809 0.778313
vt 0.602282 0.785885
vt 0.187295 0.853360
vt 0.198339 0.852000
vt 0.960967 0.015789
vt 0.960967 0.089392
vt 0.165994 0.903865
vt 0.903255 0.207438
vt 0.907737 0.267966
vt 0.315666 0.061795
vt 0.269812 0.219505
vt 0.512240 0.104825
vt 0.528568 0.151470
vt 0.481573 0.159230
vt 0.489618 0.105684
vt 0.421829 0.134398
vt 0.447296 0.098210
vt 0.488692 0.011629
vt 0.552888 0.020883
vt 0.545695 0.046194
vt 0.486173 0.047996
vt 0.114107 0.794759
vt 0.152807 0.801717
vt 0.128409 0.815803
vt 0.097893 0.790720
vt 0.537647 0.068184
vt 0.583871 0.058655
vt 0.427259 0.011629
vt 0.477710 0.054317
vt 0.480427 0.065265
vt 0.490872 0.069721
vt 0.434463 0.061573
vt 0.502945 0.068171
vt 0.516447 0.057278
vt 0.529562 0.119682
vt 0.550156 0.092238
vt 0.380721 0.080478
vt 0.370832 0.012855
vt 0.077136 0.809503
vt 0.034246 0.838933
vt 0.152522 0.779139
vt 0.111396 0.816896
vt 0.097905 0.810660
vt 0.186496 0.797305
vt 0.603178 0.025608
vt 0.202407 0.793108
vt 0.621784 0.069584
vt 0.636920 0.032638
vt 0.160777 0.827194
vt 0.096762 0.846433
vt 0.347333 0.091244
vt 0.335790 0.092615
vt 0.335695 0.079637
vt 0.344736 0.079120
vt 0.349189 0.114534
vt 0.341080 0.104578
vt 0.348311 0.103575
vt 0.245072 0.519593
vt 0.235329 0.496423
vt 0.268177 0.496423
vt 0.258002 0.514252
vt 0.226510 0.505756
vt 0.232262 0.517503
vt 0.345801 0.066029
vt 0.339004 0.066044
vt 0.349189 0.048220
vt 0.617655 0.080599
vt 0.585013 0.077982
vt 0.899085 0.543652
vt 0.568010 0.329061
vt 0.797547 0.329061
vt 0.378656 0.827968
vt 0.375453 0.872594
vt 0.333046 0.872594
vt 0.334907 0.823076
vt 0.356999 0.792603
vt 0.398075 0.798303
vt 0.378656 0.917221
vt 0.334907 0.922113
vt 0.398075 0.946886
vt 0.356998 0.952586
vt 0.307271 0.936794
vt 0.289881 0.922445
vt 0.289882 0.822743
vt 0.307272 0.808395
vt 0.287031 0.872594
vt 0.235640 0.911309
vt 0.224233 0.881836
vt 0.235643 0.833879
vt 0.924128 0.354280
vt 0.906146 0.352701
vt 0.923828 0.473162
vt 0.906049 0.473500
s 1
usemtl Character_Female_13.003
f 22/1/1 23/2/2 2/3/3 1/4/4
f 1/4/4 2/3/3 4/5/5 3/6/6
f 3/7/6 4/8/5 6/9/7 5/10/8
f 1/11/4 3/12/6 8/13/9 7/14/10
f 3/15/6 5/16/8 9/17/11 8/18/9
f 22/19/1 1/11/4 211/20/12 24/21/13
f 40/22/14 127/23/15 128/24/16 33/25/17
f 30/26/18 6/9/7 12/27/19 32/28/20
f 4/5/5 2/3/3 10/29/21 11/30/22
f 6/9/7 4/8/5 11/31/22 12/27/19
f 38/32/23 37/33/24 13/34/25 14/35/26
f 17/36/27 18/37/28 132/38/29 133/39/30
f 14/40/26 17/36/27 133/39/30 129/41/31
f 33/25/17 128/24/16 126/42/32 34/43/33
f 14/35/26 13/34/25 16/44/34 17/45/27
f 7/14/10 8/13/9 209/46/35
f 52/47/36 51/48/37 19/49/38 28/50/39
f 51/48/37 47/51/40 208/52/41 210/53/42
f 13/34/25 26/54/43 27/55/44 16/44/34
f 37/33/24 39/56/45 26/54/43 13/34/25
f 2/3/3 23/2/2 25/57/46 10/29/21
f 50/58/47 53/59/48 35/60/49 21/61/50
f 5/16/8 29/62/51 31/63/52 9/17/11
f 5/10/8 6/9/7 30/26/18 29/64/51
f 35/60/49 54/65/53 20/66/54 21/61/50
f 18/67/28 17/45/27 41/68/55 43/69/56
f 10/29/21 25/57/46 39/56/45 37/33/24
f 11/31/22 36/70/57 12/27/19
f 11/30/22 10/29/21 37/33/24 38/32/23
f 32/28/20 12/27/19 127/23/15 40/22/14
f 42/71/58 45/72/59 216/73/60 213/74/61
f 16/44/34 27/55/44 45/75/59 42/76/58
f 34/43/33 126/42/32 43/77/56 44/78/62
f 17/45/27 16/44/34 42/76/58 41/68/55
f 9/17/11 31/63/52 49/79/63 46/80/64
f 50/58/47 21/61/50 60/81/65 61/82/66
f 24/21/13 211/20/12 47/51/40 48/83/67
f 46/80/64 50/58/47 64/84/68
f 46/80/64 49/79/63 53/59/48 50/58/47
f 47/51/40 7/14/10 209/46/35 208/52/41
f 48/83/67 47/51/40 51/48/37 52/47/36
f 21/61/50 20/66/54 59/85/69 60/81/65
f 66/86/70 55/87/71 67/88/72 78/89/73
f 20/90/54 54/91/53 28/50/39 19/49/38
f 59/92/69 58/93/74 70/94/75 71/95/76
f 64/84/68 61/82/66 73/96/77 76/97/78
f 56/98/79 57/99/80 69/100/81 68/101/82
f 61/82/66 60/81/65 72/102/83 73/96/77
f 57/99/80 64/84/68 76/97/78 69/100/81
f 9/17/11 64/84/68 57/99/80
f 20/90/54 19/49/38 58/93/74 59/92/69
f 19/49/38 210/53/42 63/103/84 58/93/74
f 70/94/75 75/104/85 85/105/86 80/106/87
f 78/89/73 67/88/72 65/107/88 88/108/89
f 71/95/76 70/94/75 80/106/87 81/109/90
f 76/97/78 73/96/77 83/110/91 86/111/92
f 68/101/82 69/100/81 79/112/93 62/113/94
f 73/96/77 72/102/83 82/114/95 83/110/91
f 58/93/74 63/103/84 75/104/85 70/94/75
f 63/103/84 66/86/70 78/89/73 75/104/85
f 60/81/65 59/85/69 71/115/76 72/102/83
f 55/87/71 56/116/79 68/117/82 67/88/72
f 85/105/86 88/108/89 98/118/96 95/119/97
f 80/106/87 85/105/86 95/119/97 90/120/98
f 88/108/89 251/121/99 77/122/100 98/118/96
f 81/109/90 80/106/87 253/123/101
f 86/111/92 83/110/91 93/124/102 96/125/103
f 62/113/94 79/112/93 74/126/104
f 75/104/85 78/89/73 88/108/89 85/105/86
f 72/102/83 71/115/76 81/127/90 82/114/95
f 67/88/72 68/117/82 62/128/94 65/107/88
f 69/100/81 76/97/78 86/111/92 79/112/93
f 92/129/105 91/130/106 254/131/107
f 95/132/97 98/133/96 108/134/108 105/135/109
f 90/136/98 95/132/97 105/135/109 100/137/110
f 98/133/96 77/138/100 252/139/111 108/134/108
f 91/140/106 90/136/98 100/137/110 254/141/107
f 96/142/103 93/143/102 103/144/112 106/145/113
f 82/114/95 81/127/90 253/146/101 92/147/105
f 65/107/88 62/128/94 74/148/104 251/121/99
f 79/112/93 86/111/92 96/125/103 89/149/114
f 83/110/91 92/147/105 93/124/102
f 102/150/115 101/151/116 111/152/117 112/153/118
f 105/135/109 108/134/108 116/154/119 114/155/120
f 100/137/110 105/135/109 114/155/120 110/156/121
f 108/134/108 87/157/122 97/158/123 116/154/119
f 101/159/116 100/137/110 110/156/121 111/160/117
f 106/145/113 103/144/112 113/161/124 115/162/125
f 77/138/100 74/163/104 252/139/111
f 89/164/114 96/142/103 106/145/113 99/165/126
f 93/143/102 92/129/105 103/144/112
f 74/166/104 99/165/126 84/167/127
f 608/168/128 604/169/129 123/170/130 117/171/131
f 603/172/132 600/173/133 104/174/134 107/175/135
f 605/176/136 601/177/137 119/178/138 120/179/139
f 602/180/140 607/181/141 124/182/142 122/183/143
f 606/184/144 602/180/140 122/183/143 118/185/145
f 607/181/141 603/172/132 107/175/135 124/182/142
f 87/157/122 84/186/127 94/187/146 97/158/123
f 99/165/126 106/145/113 115/162/125 109/188/147
f 103/144/112 102/150/115 112/153/118 113/161/124
f 84/167/127 99/165/126 109/188/147 94/189/146
f 235/190/148 231/191/149 222/192/150 223/193/151
f 234/194/152 233/195/153 226/196/154 219/197/155
f 229/198/156 230/199/157 218/200/158 217/201/159
f 231/191/149 232/202/160 221/203/161 222/192/150
f 225/204/162 220/205/162 249/206/163 248/207/164
f 232/208/160 119/209/138 237/210/165 242/211/166
f 609/212/167 605/176/136 120/179/139 121/213/168
f 600/214/133 608/168/128 117/171/131 104/215/134
f 604/169/129 609/212/167 121/213/168 123/170/130
f 601/216/137 606/184/144 118/185/145 119/217/138
f 55/87/71 8/13/9 56/116/79
f 126/42/32 15/218/169 18/219/28
f 43/77/56 126/42/32 18/219/28
f 15/218/169 127/23/15 36/70/57
f 127/23/15 12/27/19 36/70/57
f 126/42/32 128/24/16 15/218/169
f 128/24/16 127/23/15 15/218/169
f 129/41/31 133/39/30 139/220/170 135/221/171
f 134/222/172 129/41/31 135/221/171 140/223/173
f 15/224/169 36/225/57 130/226/174 131/227/175
f 36/225/57 38/228/23 141/229/176 142/230/177
f 18/231/28 15/224/169 131/227/175 132/232/29
f 38/228/23 14/40/26 129/41/31 134/222/172
f 136/233/178 140/234/173 135/235/171 125/236/179 137/237/180
f 137/237/180 125/236/179 135/235/171 139/238/170 138/239/181
f 131/227/175 130/226/174 136/233/178 137/237/180
f 136/233/178 130/226/174 145/240/182 146/241/183
f 132/232/29 131/227/175 137/237/180 138/239/181
f 133/39/30 132/38/29 138/242/181 139/220/170
f 145/240/182 142/230/177 148/243/184 151/244/185
f 143/245/186 146/241/183 152/246/187 149/247/188
f 134/222/172 140/223/173 143/248/186 144/249/189
f 38/228/23 134/222/172 144/249/189 141/229/176
f 130/226/174 36/225/57 142/230/177 145/240/182
f 140/234/173 136/233/178 146/241/183 143/245/186
f 152/246/187 151/244/185 157/250/190 158/251/191
f 150/252/192 155/253/193 156/254/194
f 144/249/189 143/248/186 149/255/188 150/252/192
f 146/241/183 145/240/182 151/244/185 152/246/187
f 141/229/176 144/249/189 150/252/192 147/256/195
f 142/230/177 141/229/176 147/256/195 148/243/184
f 161/257/196 156/258/194 621/258/197 624/257/198
f 154/259/199 153/260/200 159/261/201
f 147/256/195 150/252/192 156/254/194 153/262/200
f 148/243/184 147/256/195 154/263/199
f 149/247/188 152/246/187 155/264/193
f 151/244/185 154/263/199 157/250/190
f 566/265/202 564/266/203 167/267/204 164/268/205
f 565/269/206 563/270/207 168/271/208 169/272/209
f 157/273/190 154/259/199 162/274/210
f 565/269/206 568/275/211 626/275/212 627/269/213
f 158/276/191 157/273/190 162/274/210 163/277/214
f 153/260/200 156/258/194 161/257/196 159/261/201
f 205/278/215 203/279/216 170/280/217
f 204/281/218 202/282/219 174/283/220
f 567/284/221 566/265/202 164/268/205 165/285/222
f 568/275/211 565/269/206 169/272/209 166/286/223
f 563/270/207 567/284/221 165/285/222 168/271/208
f 564/266/203 568/287/211 166/288/223 167/267/204
f 199/289/224 198/290/225 177/291/226 180/292/227
f 197/293/228 196/294/229 181/295/230 178/296/231
f 206/297/232 205/298/215 170/299/217
f 207/300/233 204/301/218 175/302/234 172/303/235
f 202/304/219 206/297/232 174/305/220
f 203/306/216 207/300/233 172/303/235 173/307/236
f 177/308/226 176/309/237 179/310/238 180/311/227
f 180/311/227 179/310/238 178/312/231 181/313/230
f 200/314/239 197/293/228 178/296/231 179/315/238
f 196/316/229 199/317/224 180/318/227 181/319/230
f 201/320/240 200/321/239 179/322/238 176/323/237
f 198/290/225 201/324/240 176/325/237 177/291/226
f 167/326/204 166/327/223 187/328/241 184/329/242
f 168/330/208 165/331/222 186/332/243 182/333/244
f 166/327/223 169/334/209 183/335/245 187/328/241
f 165/331/222 164/336/205 185/337/246 186/332/243
f 169/338/209 168/339/208 182/340/244 183/341/245
f 167/326/204 184/329/242 191/342/247 189/343/248
f 191/344/247 190/345/249 194/346/250 195/347/251
f 184/348/242 185/349/246 190/345/249 191/344/247
f 185/337/246 164/336/205 188/350/252 190/351/249
f 164/352/205 167/353/204 189/354/248 188/355/252
f 192/356/253 193/357/254 195/358/251 194/359/250
f 190/351/249 188/350/252 192/360/253 194/361/250
f 189/343/248 191/342/247 195/362/251 193/363/254
f 188/355/252 189/354/248 193/357/254 192/356/253
f 171/364/255 170/299/217 198/290/225
f 170/280/217 200/321/239 201/320/240
f 175/365/234 174/283/220 196/316/229
f 173/307/236 172/303/235 197/293/228 200/314/239
f 172/303/235 175/302/234 196/294/229 197/293/228
f 174/305/220 198/290/225 199/289/224
f 184/329/242 187/328/241 207/300/233 203/306/216
f 182/333/244 186/332/243 206/297/232 202/304/219
f 187/328/241 183/335/245 204/301/218 207/300/233
f 186/332/243 185/337/246 205/298/215 206/297/232
f 183/341/245 182/340/244 202/282/219 204/281/218
f 185/349/246 184/348/242 203/279/216 205/278/215
f 63/103/84 208/52/41 66/86/70
f 209/46/35 8/13/9 55/87/71
f 208/52/41 209/46/35 66/86/70
f 210/53/42 208/52/41 63/103/84
f 210/53/42 19/49/38 51/48/37
f 66/86/70 209/46/35 55/87/71
f 64/84/68 50/58/47 61/82/66
f 64/84/68 9/17/11 46/80/64
f 56/98/79 9/17/11 57/99/80
f 211/20/12 1/11/4 7/14/10
f 47/51/40 211/20/12 7/14/10
f 216/366/256 215/367/257 214/368/258 212/369/259 213/370/260
f 43/371/56 41/372/55 212/373/259 214/374/261
f 44/375/62 43/371/56 214/374/261 215/376/262
f 41/372/55 42/71/58 213/74/61 212/373/259
f 8/18/9 9/17/11 56/98/79
f 227/377/162 223/378/151 222/379/150 221/380/161
f 225/204/162 227/377/162 221/380/161 220/205/162
f 217/381/159 218/382/158 224/383/162 228/384/162
f 218/382/158 219/385/155 226/386/154 224/383/162
f 228/384/162 224/383/162 227/377/162 225/204/162
f 224/383/162 226/386/154 223/378/151 227/377/162
f 230/387/157 234/194/152 219/197/155 218/388/158
f 233/195/153 235/190/148 223/193/151 226/196/154
f 217/381/159 228/384/162 245/389/263 250/390/264
f 220/205/162 221/380/161 243/391/265 249/206/163
f 122/392/143 124/393/142 241/394/266 240/395/267
f 118/396/145 122/392/143 240/395/267 236/397/268
f 123/398/130 121/399/168 235/190/148 233/195/153
f 104/400/134 117/401/131 234/194/152 230/387/157
f 124/393/142 107/402/135 239/403/269 241/394/266
f 119/404/138 118/396/145 236/397/268 237/405/165
f 120/406/139 119/407/138 232/202/160 231/191/149
f 107/408/135 104/409/134 230/199/157 229/198/156
f 117/401/131 123/398/130 233/195/153 234/194/152
f 121/399/168 120/406/139 231/191/149 235/190/148
f 247/410/270 244/411/271 245/412/263 248/413/164
f 246/414/272 247/410/270 248/413/164 249/415/163
f 242/416/166 246/414/272 249/415/163 243/417/265
f 244/411/271 238/418/273 250/419/264 245/412/263
f 241/394/266 239/403/269 238/418/273 244/411/271
f 237/405/165 236/397/268 246/414/272 242/416/166
f 236/397/268 240/395/267 247/410/270 246/414/272
f 240/395/267 241/394/266 244/411/271 247/410/270
f 228/384/162 225/204/162 248/207/164 245/389/263
f 229/198/156 217/201/159 250/420/264 238/421/273
f 221/422/161 232/208/160 242/211/166 243/423/265
f 107/408/135 229/198/156 238/421/273 239/424/269
f 155/253/193 150/252/192 149/255/188
f 158/276/191 163/277/214 622/277/274 625/276/275
f 155/264/193 152/246/187 158/251/191
f 155/264/193 158/251/191 625/251/275 620/264/276
f 154/263/199 151/244/185 148/243/184
f 162/274/210 154/259/199 160/425/277
f 154/263/199 147/256/195 153/262/200
f 159/261/201 160/425/277 154/259/199
f 251/121/99 74/148/104 77/122/100
f 251/121/99 88/108/89 65/107/88
f 252/139/111 74/163/104 84/186/127 87/157/122
f 108/134/108 252/139/111 87/157/122
f 74/126/104 79/112/93 89/149/114
f 99/165/126 74/166/104 89/164/114
f 92/147/105 253/146/101 91/426/106
f 253/123/101 80/106/87 90/120/98 91/427/106
f 254/141/107 100/137/110 101/159/116
f 254/131/107 101/151/116 102/150/115 92/129/105
f 92/147/105 83/110/91 82/114/95
f 103/144/112 92/129/105 102/150/115
f 255/428/278 258/429/279 264/430/280 215/431/281
f 258/429/282 256/432/283 259/433/284 264/430/285
f 269/434/286 266/435/287 277/436/288 276/437/289
f 261/438/290 285/439/291 273/440/292
f 265/441/293 282/442/294 296/443/295 261/438/290
f 262/444/296 278/445/297 277/436/288
f 269/434/286 268/446/298 266/435/287
f 266/435/287 263/447/299 256/432/283 258/429/282 288/448/300 289/449/301 290/450/302
f 262/444/296 287/451/303 291/452/304 255/428/278
f 255/428/278 215/431/281 214/453/305
f 262/444/296 255/428/278 214/453/305 212/454/306
f 267/455/307 259/433/284 256/432/283 263/447/299
f 270/456/308 267/455/307 263/447/299 268/446/298
f 260/457/309 270/458/308 268/459/298 257/460/310
f 265/441/293 283/461/311 275/462/312
f 261/438/290 281/463/313 286/464/314
f 272/465/315 284/466/316 283/461/311 273/440/292 271/467/317
f 274/468/318 276/437/289 277/436/288 278/445/297
f 280/469/319 272/465/315 271/467/317 274/470/318
f 279/471/320 280/472/319 274/468/318 278/445/297
f 271/467/317 273/440/292 276/473/289 274/470/318
f 269/474/286 257/460/310 268/459/298
f 269/474/286 281/463/313 257/460/310
f 283/461/311 284/466/316 275/462/312
f 283/461/311 261/438/290 273/440/292
f 285/439/291 276/473/289 273/440/292
f 285/439/291 286/464/314 269/474/286
f 286/464/314 285/439/291 261/438/290
f 286/464/314 281/463/313 269/474/286
f 266/435/287 268/446/298 263/447/299
f 289/475/301 288/476/300 292/477/321 294/478/322
f 266/479/287 290/480/302 295/481/323
f 255/428/278 291/452/304 288/448/300 258/429/279
f 292/482/321 293/483/324 287/484/303 266/485/287
f 295/486/323 294/487/322 292/482/321 266/485/287
f 291/488/304 287/489/303 293/490/324
f 290/480/302 289/475/301 294/478/322 295/481/323
f 288/476/300 291/488/304 293/490/324 292/477/321
f 277/436/288 266/435/287 287/451/303
f 287/451/303 262/444/296 277/436/288
f 279/471/320 278/445/297 213/491/260 216/492/60
f 278/445/297 262/444/296 213/491/260
f 283/461/311 265/441/293 261/438/290
f 296/443/295 257/460/310 281/463/313
f 261/438/290 296/443/295 281/463/313
f 296/443/295 260/457/309 257/460/310
f 296/443/295 282/442/294 260/457/309
f 170/280/217 203/279/216 173/493/236
f 200/321/239 170/280/217 173/493/236
f 170/299/217 171/364/255 206/297/232
f 198/290/225 170/299/217 201/324/240
f 174/305/220 206/297/232 171/364/255
f 198/290/225 174/305/220 171/364/255
f 174/283/220 175/365/234 204/281/218
f 196/316/229 174/283/220 199/317/224
f 213/491/260 262/444/296 212/454/306
f 22/1/1 297/494/325 298/495/326 23/2/2
f 297/494/325 299/496/327 300/497/328 298/495/326
f 299/498/327 301/499/329 302/500/330 300/501/328
f 297/502/325 303/503/331 304/504/332 299/505/327
f 299/506/327 304/507/332 305/508/333 301/509/329
f 22/19/1 24/21/13 485/510/334 297/502/325
f 40/22/14 33/25/17 401/511/335 400/512/336
f 30/26/18 32/28/20 308/513/337 302/500/330
f 300/497/328 307/514/338 306/515/339 298/495/326
f 302/500/330 308/513/337 307/516/338 300/501/328
f 320/517/340 310/518/341 309/519/342 319/520/343
f 313/521/344 406/522/345 405/523/346 314/524/347
f 310/525/341 402/526/348 406/522/345 313/521/344
f 33/25/17 34/43/33 399/527/349 401/511/335
f 310/518/341 313/528/344 312/529/350 309/519/342
f 303/503/331 483/530/351 304/504/332
f 52/47/36 28/50/39 315/531/352 327/532/353
f 327/532/353 484/533/354 482/534/355 325/535/356
f 309/519/342 312/529/350 27/55/44 26/54/43
f 319/520/343 309/519/342 26/54/43 39/56/45
f 298/495/326 306/515/339 25/57/46 23/2/2
f 326/536/357 317/537/358 35/60/49 53/59/48
f 301/509/329 305/508/333 31/63/52 29/62/51
f 301/499/329 29/64/51 30/26/18 302/500/330
f 35/60/49 317/537/358 316/538/359 54/65/53
f 314/539/347 323/540/360 321/541/361 313/528/344
f 306/515/339 319/520/343 39/56/45 25/57/46
f 318/542/362 307/516/338 308/513/337
f 307/514/338 320/517/340 319/520/343 306/515/339
f 32/28/20 40/22/14 400/512/336 308/513/337
f 322/543/363 487/544/364 216/545/60 45/546/59
f 312/529/350 322/547/363 45/75/59 27/55/44
f 34/43/33 44/78/62 323/548/360 399/527/349
f 313/528/344 321/541/361 322/547/363 312/529/350
f 305/508/333 324/549/365 49/79/63 31/63/52
f 326/536/357 334/550/366 333/551/367 317/537/358
f 24/21/13 48/83/67 325/535/356 485/510/334
f 324/549/365 337/552/368 326/536/357
f 324/549/365 326/536/357 53/59/48 49/79/63
f 325/535/356 482/534/355 483/530/351 303/503/331
f 48/83/67 52/47/36 327/532/353 325/535/356
f 317/537/358 333/551/367 332/553/369 316/538/359
f 339/554/370 351/555/371 340/556/372 328/557/373
f 316/558/359 315/531/352 28/50/39 54/91/53
f 332/559/369 344/560/374 343/561/375 331/562/376
f 337/552/368 349/563/377 346/564/378 334/550/366
f 329/565/379 341/566/380 342/567/381 330/568/382
f 334/550/366 346/564/378 345/569/383 333/551/367
f 330/568/382 342/567/381 349/563/377 337/552/368
f 305/508/333 330/568/382 337/552/368
f 316/558/359 332/559/369 331/562/376 315/531/352
f 315/531/352 331/562/376 336/570/384 484/533/354
f 343/561/375 353/571/385 358/572/386 348/573/387
f 351/555/371 361/574/388 338/575/389 340/556/372
f 344/560/374 354/576/390 353/571/385 343/561/375
f 349/563/377 359/577/391 356/578/392 346/564/378
f 341/566/380 335/579/393 352/580/394 342/567/381
f 346/564/378 356/578/392 355/581/395 345/569/383
f 331/562/376 343/561/375 348/573/387 336/570/384
f 336/570/384 348/573/387 351/555/371 339/554/370
f 333/551/367 345/569/383 344/582/374 332/553/369
f 328/557/373 340/556/372 341/583/380 329/584/379
f 358/572/386 368/585/396 371/586/397 361/574/388
f 353/571/385 363/587/398 368/585/396 358/572/386
f 361/574/388 371/586/397 350/588/399 523/589/400
f 354/576/390 525/590/401 353/571/385
f 359/577/391 369/591/402 366/592/403 356/578/392
f 335/579/393 347/593/404 352/580/394
f 348/573/387 358/572/386 361/574/388 351/555/371
f 345/569/383 355/581/395 354/594/390 344/582/374
f 340/556/372 338/575/389 335/595/393 341/583/380
f 342/567/381 352/580/394 359/577/391 349/563/377
f 365/596/405 526/597/406 364/598/407
f 368/599/396 378/600/408 381/601/409 371/602/397
f 363/603/398 373/604/410 378/600/408 368/599/396
f 371/602/397 381/601/409 524/605/411 350/606/399
f 364/607/407 526/608/406 373/604/410 363/603/398
f 369/609/402 379/610/412 376/611/413 366/612/403
f 355/581/395 365/613/405 525/614/401 354/594/390
f 338/575/389 523/589/400 347/615/404 335/595/393
f 352/580/394 362/616/414 369/591/402 359/577/391
f 356/578/392 366/592/403 365/613/405
f 375/617/415 385/618/416 384/619/417 374/620/418
f 378/600/408 387/621/419 389/622/420 381/601/409
f 373/604/410 383/623/421 387/621/419 378/600/408
f 381/601/409 389/622/420 370/624/422 360/625/423
f 374/626/418 384/627/417 383/623/421 373/604/410
f 379/610/412 388/628/424 386/629/425 376/611/413
f 350/606/399 524/605/411 347/630/404
f 362/631/414 372/632/426 379/610/412 369/609/402
f 366/612/403 376/611/413 365/596/405
f 347/633/404 357/634/427 372/632/426
f 618/635/428 390/636/429 396/637/430 614/638/431
f 613/639/432 380/640/433 377/641/434 610/642/435
f 615/643/436 393/644/437 392/645/438 611/646/439
f 612/647/440 395/648/441 397/649/442 617/650/443
f 616/651/444 391/652/445 395/648/441 612/647/440
f 617/650/443 397/649/442 380/640/433 613/639/432
f 360/625/423 370/624/422 367/653/446 357/654/427
f 372/632/426 382/655/447 388/628/424 379/610/412
f 376/611/413 386/629/425 385/618/416 375/617/415
f 357/634/427 367/656/446 382/655/447 372/632/426
f 507/657/448 495/658/449 494/659/450 503/660/451
f 506/661/452 491/662/453 498/663/454 505/664/455
f 501/665/456 489/666/457 490/667/458 502/668/459
f 503/660/451 494/659/450 493/669/460 504/670/461
f 497/671/462 520/672/463 521/673/464 492/674/462
f 504/675/461 514/676/465 509/677/466 392/678/438
f 619/679/467 394/680/468 393/644/437 615/643/436
f 610/681/435 377/682/434 390/636/429 618/635/428
f 614/638/431 396/637/430 394/680/468 619/679/467
f 611/683/439 392/684/438 391/652/445 616/651/444
f 328/557/373 329/584/379 304/504/332
f 399/527/349 314/685/347 311/686/469
f 323/548/360 314/685/347 399/527/349
f 311/686/469 318/542/362 400/512/336
f 400/512/336 318/542/362 308/513/337
f 399/527/349 311/686/469 401/511/335
f 401/511/335 311/686/469 400/512/336
f 402/526/348 408/687/470 412/688/471 406/522/345
f 407/689/472 413/690/473 408/687/470 402/526/348
f 311/691/469 404/692/474 403/693/475 318/694/362
f 318/694/362 415/695/476 414/696/477 320/697/340
f 314/698/347 405/699/346 404/692/474 311/691/469
f 320/697/340 407/689/472 402/526/348 310/525/341
f 409/700/478 410/701/479 398/702/480 408/703/470 413/704/473
f 410/701/479 411/705/481 412/706/471 408/703/470 398/702/480
f 404/692/474 410/701/479 409/700/478 403/693/475
f 409/700/478 419/707/482 418/708/483 403/693/475
f 405/699/346 411/705/481 410/701/479 404/692/474
f 406/522/345 412/688/471 411/709/481 405/523/346
f 418/708/483 424/710/484 421/711/485 415/695/476
f 416/712/486 422/713/487 425/714/488 419/707/482
f 407/689/472 417/715/489 416/716/486 413/690/473
f 320/697/340 414/696/477 417/715/489 407/689/472
f 403/693/475 418/708/483 415/695/476 318/694/362
f 413/704/473 416/712/486 419/707/482 409/700/478
f 425/714/488 431/717/490 430/718/491 424/710/484
f 423/719/492 429/720/493 428/721/494
f 417/715/489 423/719/492 422/722/487 416/716/486
f 419/707/482 425/714/488 424/710/484 418/708/483
f 414/696/477 420/723/495 423/719/492 417/715/489
f 415/695/476 421/711/485 420/723/495 414/696/477
f 428/724/494 434/725/496 437/726/497
f 427/727/498 432/728/499 426/729/500
f 420/723/495 426/730/500 429/720/493 423/719/492
f 421/711/485 427/731/498 420/723/495
f 422/713/487 428/732/494 425/714/488
f 424/710/484 430/718/491 427/731/498
f 560/733/501 438/734/502 441/735/503 558/736/504
f 559/737/505 443/738/506 442/739/507 557/740/508
f 430/741/491 436/742/509 427/727/498
f 429/743/493 435/744/510 428/745/494
f 431/746/490 437/726/497 436/742/509 430/741/491
f 426/729/500 432/728/499 435/744/510 429/743/493
f 479/747/511 444/748/512 477/749/513
f 478/750/514 448/751/515 476/752/516
f 561/753/517 439/754/518 438/734/502 560/733/501
f 562/755/519 440/756/520 443/738/506 559/737/505
f 557/740/508 442/739/507 439/754/518 561/753/517
f 558/736/504 441/735/503 440/757/520 562/758/519
f 473/759/521 454/760/522 451/761/523 472/762/524
f 471/763/525 452/764/526 455/765/527 470/766/528
f 480/767/529 444/768/512 479/769/511
f 481/770/530 446/771/531 449/772/532 478/773/514
f 476/774/516 448/775/515 480/767/529
f 477/776/513 447/777/533 446/771/531 481/770/530
f 451/778/523 454/779/522 453/780/534 450/781/535
f 454/779/522 455/782/527 452/783/526 453/780/534
f 474/784/536 453/785/534 452/764/526 471/763/525
f 470/786/528 455/787/527 454/788/522 473/789/521
f 475/790/537 450/791/535 453/792/534 474/793/536
f 472/762/524 451/761/523 450/794/535 475/795/537
f 441/796/503 458/797/538 461/798/539 440/799/520
f 442/800/507 456/801/540 460/802/541 439/803/518
f 440/799/520 461/798/539 457/804/542 443/805/506
f 439/803/518 460/802/541 459/806/543 438/807/502
f 443/808/506 457/809/542 456/810/540 442/811/507
f 441/796/503 463/812/544 465/813/545 458/797/538
f 465/814/545 469/815/546 468/816/547 464/817/548
f 458/818/538 465/814/545 464/817/548 459/819/543
f 459/806/543 464/820/548 462/821/549 438/807/502
f 438/822/502 462/823/549 463/824/544 441/825/503
f 466/826/550 468/827/547 469/828/546 467/829/551
f 464/820/548 468/830/547 466/831/550 462/821/549
f 463/812/544 467/832/551 469/833/546 465/813/545
f 462/823/549 466/826/550 467/829/551 463/824/544
f 445/834/552 472/762/524 444/768/512
f 444/748/512 475/790/537 474/793/536
f 449/835/532 470/786/528 448/751/515
f 447/777/533 474/784/536 471/763/525 446/771/531
f 446/771/531 471/763/525 470/766/528 449/772/532
f 448/775/515 473/759/521 472/762/524
f 458/797/538 477/776/513 481/770/530 461/798/539
f 456/801/540 476/774/516 480/767/529 460/802/541
f 461/798/539 481/770/530 478/773/514 457/804/542
f 460/802/541 480/767/529 479/769/511 459/806/543
f 457/809/542 478/750/514 476/752/516 456/810/540
f 459/819/543 479/747/511 477/749/513 458/818/538
f 336/570/384 339/554/370 482/534/355
f 483/530/351 328/557/373 304/504/332
f 482/534/355 339/554/370 483/530/351
f 484/533/354 336/570/384 482/534/355
f 484/533/354 327/532/353 315/531/352
f 339/554/370 328/557/373 483/530/351
f 337/552/368 334/550/366 326/536/357
f 337/552/368 324/549/365 305/508/333
f 329/565/379 330/568/382 305/508/333
f 485/510/334 303/503/331 297/502/325
f 325/535/356 303/503/331 485/510/334
f 216/366/256 487/836/553 486/837/554 488/838/555 215/367/257
f 323/839/360 488/840/556 486/841/554 321/842/361
f 44/375/62 215/376/262 488/840/556 323/839/360
f 321/842/361 486/841/554 487/544/364 322/543/363
f 304/507/332 329/565/379 305/508/333
f 499/843/462 493/844/460 494/845/450 495/846/449
f 497/671/462 492/674/462 493/844/460 499/843/462
f 489/847/457 500/848/462 496/849/462 490/850/458
f 490/850/458 496/849/462 498/851/454 491/852/453
f 500/848/462 497/671/462 499/843/462 496/849/462
f 496/849/462 499/843/462 495/846/449 498/851/454
f 502/853/459 490/854/458 491/662/453 506/661/452
f 505/664/455 498/663/454 495/658/449 507/657/448
f 489/847/457 522/855/557 517/856/558 500/848/462
f 492/674/462 521/673/464 515/857/559 493/844/460
f 395/858/441 512/859/560 513/860/561 397/861/442
f 391/862/445 508/863/562 512/859/560 395/858/441
f 396/864/430 505/664/455 507/657/448 394/865/468
f 377/866/434 502/853/459 506/661/452 390/867/429
f 397/861/442 513/860/561 511/868/563 380/869/433
f 392/870/438 509/871/466 508/863/562 391/862/445
f 393/872/437 503/660/451 504/670/461 392/873/438
f 380/874/433 501/665/456 502/668/459 377/875/434
f 390/867/429 506/661/452 505/664/455 396/864/430
f 394/865/468 507/657/448 503/660/451 393/872/437
f 519/876/564 520/877/463 517/878/558 516/879/565
f 518/880/566 521/881/464 520/877/463 519/876/564
f 514/882/465 515/883/559 521/881/464 518/880/566
f 516/879/565 517/878/558 522/884/557 510/885/567
f 513/860/561 516/879/565 510/885/567 511/868/563
f 509/871/466 514/882/465 518/880/566 508/863/562
f 508/863/562 518/880/566 519/876/564 512/859/560
f 512/859/560 519/876/564 516/879/565 513/860/561
f 500/848/462 517/856/558 520/672/463 497/671/462
f 501/665/456 510/886/567 522/887/557 489/666/457
f 493/888/460 515/889/559 514/676/465 504/675/461
f 380/874/433 511/890/563 510/886/567 501/665/456
f 428/721/494 422/722/487 423/719/492
f 435/744/510 434/891/496 428/745/494
f 428/732/494 431/717/490 425/714/488
f 437/726/497 431/746/490 428/724/494
f 427/731/498 421/711/485 424/710/484
f 436/742/509 433/892/568 427/727/498
f 427/731/498 426/730/500 420/723/495
f 432/728/499 427/727/498 433/892/568
f 523/589/400 350/588/399 347/615/404
f 523/589/400 338/575/389 361/574/388
f 524/605/411 360/625/423 357/654/427 347/630/404
f 381/601/409 360/625/423 524/605/411
f 347/593/404 362/616/414 352/580/394
f 372/632/426 362/631/414 347/633/404
f 365/613/405 364/893/407 525/614/401
f 525/590/401 364/894/407 363/587/398 353/571/385
f 526/608/406 374/626/418 373/604/410
f 526/597/406 365/596/405 375/617/415 374/620/418
f 365/613/405 355/581/395 356/578/392
f 376/611/413 375/617/415 365/596/405
f 527/895/569 215/896/281 264/897/280 530/898/570
f 530/898/571 264/897/285 259/899/284 528/900/572
f 536/901/573 540/902/574 541/903/575 534/904/576
f 531/905/577 538/906/578 545/907/579
f 265/441/293 531/905/577 556/908/580 282/442/294
f 532/909/581 541/903/575 542/910/582
f 536/901/573 534/904/576 535/911/583
f 534/904/576 550/912/584 549/913/585 548/914/586 530/898/571 528/900/572 533/915/587
f 532/909/581 527/895/569 551/916/588 547/917/589
f 527/895/569 488/918/590 215/896/281
f 532/909/581 486/919/591 488/918/590 527/895/569
f 267/920/307 533/915/587 528/900/572 259/899/284
f 270/921/308 535/911/583 533/915/587 267/920/307
f 260/457/309 529/922/592 535/923/583 270/458/308
f 265/441/293 275/462/312 544/924/593
f 531/905/577 546/925/594 543/926/595
f 272/465/315 537/927/596 538/906/578 544/924/593 284/466/316
f 539/928/597 542/910/582 541/903/575 540/902/574
f 280/469/319 539/929/597 537/927/596 272/465/315
f 279/930/320 542/910/582 539/928/597 280/931/319
f 537/927/596 539/929/597 540/932/574 538/906/578
f 536/933/573 535/923/583 529/922/592
f 536/933/573 529/922/592 543/926/595
f 544/924/593 275/462/312 284/466/316
f 544/924/593 538/906/578 531/905/577
f 540/932/574 545/907/579 538/906/578
f 545/907/579 536/933/573 546/925/594
f 546/925/594 531/905/577 545/907/579
f 546/925/594 536/933/573 543/926/595
f 534/904/576 533/915/587 535/911/583
f 549/934/585 554/935/598 552/936/599 548/937/586
f 534/938/576 555/939/600 550/940/584
f 527/895/569 530/898/570 548/914/586 551/916/588
f 552/941/599 534/942/576 547/943/589 553/944/601
f 555/945/600 534/942/576 552/941/599 554/946/598
f 551/947/588 553/948/601 547/949/589
f 550/940/584 555/939/600 554/935/598 549/934/585
f 548/937/586 552/936/599 553/948/601 551/947/588
f 541/903/575 547/917/589 534/904/576
f 547/917/589 541/903/575 532/909/581
f 279/930/320 216/950/60 487/951/602 542/910/582
f 542/910/582 487/951/602 532/909/581
f 544/924/593 531/905/577 265/441/293
f 556/908/580 543/926/595 529/922/592
f 531/905/577 543/926/595 556/908/580
f 556/908/580 529/922/592 260/457/309
f 556/908/580 260/457/309 282/442/294
f 444/748/512 447/952/533 477/749/513
f 474/793/536 447/952/533 444/748/512
f 444/768/512 480/767/529 445/834/552
f 472/762/524 475/795/537 444/768/512
f 448/775/515 445/834/552 480/767/529
f 472/762/524 445/834/552 448/775/515
f 448/751/515 478/750/514 449/835/532
f 470/786/528 473/789/521 448/751/515
f 487/951/602 486/919/591 532/909/581
f 160/425/277 567/284/221 563/270/207 162/274/210
f 163/277/214 565/269/206 627/269/213 622/277/274
f 159/261/201 566/265/202 567/284/221 160/425/277
f 162/274/210 563/270/207 565/269/206 163/277/214
f 161/257/196 564/266/203 566/265/202 159/261/201
f 435/744/510 558/736/504 562/758/519 434/891/496
f 436/742/509 557/740/508 561/753/517 433/892/568
f 434/725/496 562/755/519 559/737/505 437/726/497
f 433/892/568 561/753/517 560/733/501 432/728/499
f 437/726/497 559/737/505 557/740/508 436/742/509
f 432/728/499 560/733/501 558/736/504 435/744/510
f 156/254/194 155/253/193 620/253/276 621/254/197
f 11/31/22 38/953/23 36/70/57
f 285/439/291 269/474/286 276/473/289
f 318/542/362 320/954/340 307/516/338
f 540/932/574 536/933/573 545/907/579
f 258/955/282 264/956/285 570/957/603 569/958/604
f 258/955/282 569/958/604 571/959/605 288/960/606
f 264/956/285 530/961/607 572/962/608 570/957/603
f 548/963/609 573/964/610 572/962/608 530/961/607
f 573/964/610 578/965/611 577/966/612 572/962/608
f 569/958/604 574/967/613 576/968/614 571/959/605
f 570/957/603 572/962/608 577/966/612 575/969/615
f 569/958/604 570/957/603 575/969/615 574/967/613
f 575/969/615 577/966/612 581/970/616 580/971/617
f 574/967/613 575/969/615 580/971/617 579/972/618
f 582/955/619 587/958/620 588/957/621 583/956/622
f 582/955/619 584/960/623 589/959/624 587/958/620
f 583/956/622 588/957/621 590/962/625 585/961/626
f 586/963/627 585/961/626 590/962/625 591/964/628
f 591/964/628 590/962/625 595/966/629 596/965/630
f 587/958/620 589/959/624 594/968/631 592/967/632
f 588/957/621 593/969/633 595/966/629 590/962/625
f 587/958/620 592/967/632 593/969/633 588/957/621
f 593/969/633 598/971/634 599/970/635 595/966/629
f 592/967/632 597/972/636 598/971/634 593/969/633
f 586/963/627 591/964/628 573/964/610 548/963/609
f 591/964/628 596/965/630 578/965/611 573/964/610
f 596/965/630 595/966/629 577/966/612 578/965/611
f 595/966/629 599/970/635 581/970/616 577/966/612
f 599/970/635 598/971/634 580/971/617 581/970/616
f 598/971/634 597/972/636 579/972/618 580/971/617
f 597/972/636 592/967/632 574/967/613 579/972/618
f 592/967/632 594/968/631 576/968/614 574/967/613
f 594/968/631 589/959/624 571/959/605 576/968/614
f 589/959/624 584/960/623 288/960/606 571/959/605
f 113/161/124 609/212/167 604/169/129 115/162/125
f 109/188/147 608/168/128 600/214/133 94/189/146
f 112/153/118 605/176/136 609/212/167 113/161/124
f 97/158/123 603/172/132 607/181/141 116/154/119
f 114/155/120 602/180/140 606/184/144 110/156/121
f 116/154/119 607/181/141 602/180/140 114/155/120
f 111/152/117 601/177/137 605/176/136 112/153/118
f 94/187/146 600/173/133 603/172/132 97/158/123
f 115/162/125 604/169/129 608/168/128 109/188/147
f 384/627/417 611/683/439 616/651/444 383/623/421
f 110/156/121 606/184/144 601/216/137 111/160/117
f 388/628/424 614/638/431 619/679/467 386/629/425
f 367/656/446 610/681/435 618/635/428 382/655/447
f 386/629/425 619/679/467 615/643/436 385/618/416
f 389/622/420 617/650/443 613/639/432 370/624/422
f 383/623/421 616/651/444 612/647/440 387/621/419
f 387/621/419 612/647/440 617/650/443 389/622/420
f 385/618/416 615/643/436 611/646/439 384/619/417
f 370/624/422 613/639/432 610/642/435 367/653/446
f 382/655/447 618/635/428 614/638/431 388/628/424
f 620/973/276 622/277/274 623/974/637
f 621/258/197 620/975/276 624/257/198
f 624/257/198 620/975/276 623/976/637
f 622/277/274 620/973/276 625/276/275
f 622/277/274 627/269/213 626/275/212 623/974/637
f 623/976/637 626/287/212 628/266/638 624/257/198
f 564/266/203 161/257/196 624/257/198 628/266/638
f 568/287/211 564/266/203 628/266/638 626/287/212
