# Blender 5.1.1
# www.blender.org
mtllib prof2.mtl
o prof2
v 1.327610 3.704537 -0.729283
v 1.326476 4.025787 -0.738321
v 1.076684 3.753678 -0.574930
v 1.087639 4.022002 -0.592760
v 0.715479 3.802818 -0.729283
v 0.751925 4.018217 -0.738321
v 1.254422 3.568867 -0.727049
v 1.000000 3.568867 -0.546824
v 0.688121 3.568867 -0.728188
v 1.334414 4.236561 -0.759986
v 1.051122 4.281265 -0.598479
v 0.747340 4.325969 -0.748490
v 1.210381 4.555605 -0.784381
v 1.093051 4.551160 -0.604234
v 0.740858 4.582649 -0.613567
v 1.107229 4.723310 -0.885256
v 1.031563 4.698771 -0.623495
v 0.835415 4.718553 -0.628368
v 1.197848 3.290001 -0.987228
v 1.015215 3.244281 -0.977427
v 0.832582 3.198560 -0.987228
v 1.327610 3.704537 -1.000001
v 1.326476 4.025787 -1.000001
v 1.311879 3.568867 -1.000001
v 1.334414 4.236561 -1.000001
v 1.210381 4.555605 -1.000001
v 1.107190 4.723310 -1.000001
v 1.197848 3.290001 -1.000001
v 0.715479 3.802818 -1.000001
v 0.751925 4.018217 -1.000001
v 0.688121 3.568867 -1.000001
v 0.747340 4.325969 -1.000001
v 0.745800 4.593614 -1.000001
v 0.790525 4.723310 -1.000001
v 0.832582 3.198560 -1.000001
v 0.778781 4.412218 -0.612265
v 1.330574 4.399722 -0.777074
v 1.081382 4.428068 -0.604327
v 1.330574 4.399722 -1.000001
v 0.734737 4.496725 -1.000001
v 0.948877 4.825555 -0.869806
v 1.029904 4.802779 -0.910701
v 0.867850 4.848332 -0.910701
v 0.834288 4.857767 -1.000001
v 1.063207 4.793344 -1.000001
v 0.649901 3.444611 -0.837353
v 1.279094 3.444611 -0.837353
v 1.279094 3.444611 -1.000001
v 0.649901 3.444611 -1.000001
v 0.657431 3.288317 -0.884734
v 1.261422 3.375217 -0.884734
v 1.261422 3.375217 -1.000001
v 0.657431 3.288317 -1.000001
v 1.013715 3.243906 -1.000001
v 1.114998 3.380469 -0.539374
v 0.906843 3.380638 -0.509016
v 0.772493 3.331559 -0.578145
v 1.156413 3.158111 -0.917302
v 1.022063 3.109032 -0.986431
v 0.865709 3.111825 -0.971704
v 0.747071 3.165424 -0.840406
v 0.981140 2.501241 -0.561538
v 1.217440 3.240315 -0.752382
v 0.711466 3.249354 -0.704724
v 1.106614 2.498805 -0.570942
v 1.209554 3.292629 -0.616701
v 1.116734 2.916237 -0.516372
v 0.952783 2.912355 -0.503658
v 0.811021 2.900791 -0.579096
v 1.216171 2.885752 -0.896873
v 1.073721 2.874840 -0.972804
v 0.909166 2.870603 -0.959699
v 0.783379 2.874753 -0.862313
v 0.973269 2.410804 -0.587131
v 1.281473 2.899501 -0.758765
v 0.745468 2.886223 -0.716236
v 1.079952 2.391914 -0.596436
v 1.242627 2.911187 -0.612874
v 0.873141 2.511904 -0.620891
v 1.185864 2.538274 -0.867019
v 1.078350 2.548630 -0.926402
v 0.952728 2.550830 -0.917578
v 0.854834 2.542530 -0.842551
v 0.960564 2.269818 -0.567729
v 1.234933 2.522931 -0.758950
v 0.824033 2.527470 -0.728374
v 1.063897 2.253424 -0.578119
v 1.203464 2.507773 -0.644784
v 0.878219 2.420696 -0.642271
v 1.170107 2.358009 -0.870937
v 1.046841 2.372991 -0.926045
v 0.939965 2.392458 -0.916521
v 0.857688 2.409020 -0.846256
v 0.931413 2.027667 -0.560274
v 1.214030 2.357861 -0.771963
v 0.834013 2.419816 -0.741559
v 1.046421 1.974939 -0.572404
v 1.190701 2.370551 -0.667010
v 0.872411 2.281110 -0.629255
v 1.122478 2.234796 -0.880871
v 1.034834 2.249507 -0.941884
v 0.931636 2.266054 -0.931396
v 0.854751 2.278587 -0.853519
v 0.965378 1.268628 -0.668246
v 1.162910 2.229325 -0.771077
v 0.832202 2.283926 -0.738228
v 1.016586 1.261199 -0.673039
v 1.140154 2.237247 -0.655294
v 0.831977 2.072981 -0.624797
v 1.108539 1.938617 -0.886226
v 1.005337 1.980333 -0.952578
v 0.897140 2.032850 -0.942359
v 0.810259 2.077577 -0.859775
v 1.153318 1.921241 -0.773668
v 0.786414 2.092276 -0.739122
v 1.130341 1.934890 -0.654776
v 0.921218 1.274132 -0.696974
v 1.046448 1.253045 -0.815032
v 0.999083 1.257563 -0.873455
v 0.947775 1.264723 -0.868641
v 0.912382 1.272495 -0.802485
v 1.066690 1.251568 -0.763757
v 0.900976 1.275609 -0.748248
v 1.055284 1.254682 -0.709521
v 0.911271 4.545130 -0.399505
v 0.803566 4.720010 -0.857626
v 0.733940 4.498565 -0.811144
v 0.752504 4.596877 -0.828691
v 1.060859 4.551113 -0.498362
v 0.792442 4.443832 -0.497066
v 0.769566 4.576521 -0.505729
v 0.852083 4.691773 -0.515303
v 1.006042 4.676588 -0.511579
v 1.049598 4.457947 -0.487723
v 1.008469 4.543777 -0.402905
v 0.833146 4.479873 -0.394599
v 0.820392 4.559653 -0.409116
v 0.876810 4.635296 -0.421848
v 0.971195 4.626206 -0.418944
v 0.994917 4.487618 -0.389153
v 1.046376 4.207928 -0.459215
v 0.916509 4.183546 -0.502592
v 0.950699 4.286027 -0.280883
v 1.061722 4.253325 -0.358313
v 0.805482 4.210971 -0.431689
v 0.822524 4.261893 -0.322881
v 1.045565 4.076213 -0.403819
v 0.927930 4.050971 -0.452327
v 0.954184 4.151305 -0.224965
v 1.056224 4.125482 -0.293115
v 0.824722 4.075302 -0.381860
v 0.838531 4.126188 -0.269047
v 1.047274 4.012476 -0.368182
v 0.920954 3.993080 -0.414040
v 0.953224 4.089190 -0.203612
v 1.059410 4.058977 -0.266448
v 0.830837 4.022110 -0.347455
v 0.843968 4.067088 -0.250850
v 1.047583 3.941009 -0.341024
v 0.934099 3.916134 -0.387177
v 1.065173 3.995907 -0.223152
v 0.832276 3.943603 -0.316188
v 0.841017 3.998590 -0.198862
v 1.002799 3.502802 -0.104359
v 0.954678 3.505631 -0.127886
v 0.968386 3.544435 -0.011435
v 1.022310 3.534392 -0.046623
v 0.900755 3.515674 -0.092699
v 0.907609 3.535076 -0.034473
v 1.044057 3.356659 0.040587
v 0.945994 3.358063 0.022043
v 0.967596 3.355933 0.120902
v 1.055190 3.357850 0.082520
v 0.857735 3.352556 0.050570
v 0.868869 3.353747 0.092502
v 1.044359 3.181904 0.112630
v 0.972448 3.185320 0.099550
v 0.988666 3.164883 0.159559
v 1.052469 3.171685 0.142635
v 0.908646 3.178517 0.116474
v 0.916755 3.168299 0.146478
v 0.874166 3.440906 -0.019896
v 0.882896 3.452017 0.042664
v 1.047160 3.446755 0.034715
v 1.027995 3.423419 -0.027354
v 0.948640 3.436111 -0.056755
v 0.966099 3.458332 0.068365
v 1.084328 3.440769 -0.066217
v 1.095326 3.472063 -0.032730
v 1.055107 3.412330 -0.014604
v 1.063762 3.439211 0.022540
v 1.136055 3.373201 -0.002693
v 1.136299 3.395619 0.019409
v 1.120432 3.354099 0.016856
v 1.120676 3.376518 0.038957
v 0.873222 3.329227 0.105802
v 0.970411 3.330121 0.130668
v 0.948491 3.325216 0.048802
v 0.862262 3.330667 0.066620
v 1.056639 3.333165 0.097235
v 1.045680 3.334605 0.058054
v 0.860345 3.394032 0.023842
v 1.052015 3.402109 0.063170
v 0.870989 3.398986 0.073598
v 1.041371 3.397156 0.013413
v 0.944090 3.393403 -0.013963
v 0.965379 3.402738 0.100974
v 1.234400 3.358388 -0.715646
v 1.211260 3.482950 -0.643118
v 1.245218 3.325517 -0.835973
v 1.290690 3.568867 -0.831129
v 0.982412 4.955846 -0.873709
v 1.059932 4.896135 -0.913601
v 0.901202 4.989530 -0.913601
v 0.865146 4.988066 -1.000001
v 1.086048 4.876351 -1.000001
v 1.035166 0.977740 -0.606901
v 0.961306 0.977683 -0.599535
v 0.897530 0.977438 -0.640649
v 1.079242 0.976952 -0.810053
v 1.015466 0.976707 -0.851166
v 0.941346 0.976648 -0.844222
v 0.885194 0.976798 -0.791874
v 0.977673 0.977330 -0.689533
v 1.108314 0.977290 -0.736587
v 0.868458 0.977100 -0.714115
v 0.975735 0.977075 -0.750866
v 1.091318 0.977590 -0.659250
v 1.016664 1.118667 -0.635957
v 0.944421 1.119393 -0.633947
v 0.922621 1.114799 -0.871396
v 0.994864 1.114072 -0.877226
v 0.854002 1.117463 -0.731270
v 0.882290 1.118933 -0.668894
v 0.870362 1.115543 -0.797249
v 1.172408 1.123417 -0.796604
v 1.128248 1.128921 -0.825331
v 1.392098 1.031841 -0.622468
v 1.142547 1.131570 -0.654611
v 1.192650 1.121939 -0.745329
v 1.181244 1.125054 -0.691093
v 1.372798 1.026356 -0.830151
v 1.378643 0.977135 -0.851213
v 1.446858 1.030206 -0.666849
v 1.454495 0.978018 -0.659296
v 1.434930 1.026816 -0.795204
v 1.463218 1.028287 -0.732828
v 1.471491 0.977718 -0.736633
v 1.442419 0.977380 -0.810100
v 1.398343 0.978168 -0.606947
v 1.094180 2.451326 -0.581859
v 1.051416 2.308686 -0.584660
v 1.059479 2.448622 -0.926404
v 1.030758 2.329631 -0.932253
v 0.893760 5.036573 -0.861769
v 0.824686 5.253565 -0.865737
v 1.216590 5.281841 -0.876625
v 0.834959 5.056507 -0.861068
v 0.784394 5.263661 -1.000001
v 1.270242 5.288918 -1.000001
v 1.240062 5.158276 -0.924048
v 1.028025 5.007976 -0.832347
v 0.930213 5.342487 -0.836315
v 0.782659 5.056507 -1.000001
v 1.274266 5.165499 -1.000001
v 1.022199 5.181217 -0.798712
v 0.909979 5.399188 -1.000001
v 1.082459 5.369727 -0.851026
v 1.124153 5.206671 -0.827928
v 1.098433 5.413450 -1.000001
v 1.216082 4.946567 -0.901123
v 1.244381 4.920469 -1.000001
v 1.227841 5.041566 -0.897729
v 1.213907 4.903277 -0.907484
v 1.322306 5.068124 -1.000001
v 1.171970 5.028454 -0.852751
v 1.099796 5.010257 -0.830015
v 1.107713 4.915440 -0.896650
v 1.119221 4.877506 -1.000001
v 1.231979 4.878975 -1.000001
v 1.212345 5.211052 -0.883517
v 1.268888 5.210291 -1.000001
v 1.262777 5.064181 -0.957249
v 1.271459 5.032728 -1.000001
v 1.206993 5.117218 -0.865746
v 1.200709 5.168664 -0.867756
v 1.032364 5.080603 -0.811856
v 0.939385 5.103046 -0.839564
v 0.964709 5.180666 -0.815593
v 0.996603 5.201126 -0.809358
v 0.982869 5.107370 -0.812887
v 0.956537 5.141928 -0.783422
v 0.976369 5.104500 -0.793019
v 0.958765 5.182017 -0.780026
v 0.991806 5.204422 -0.787454
v 1.256861 5.210906 -0.934240
v 1.327610 3.704537 -1.270718
v 1.326476 4.025787 -1.261681
v 1.076684 3.753677 -1.425071
v 1.087639 4.022002 -1.407241
v 0.715479 3.802818 -1.270718
v 0.751925 4.018217 -1.261681
v 1.254422 3.568867 -1.272952
v 1.000000 3.568866 -1.453177
v 0.688121 3.568867 -1.271814
v 1.334414 4.236561 -1.240016
v 1.051122 4.281265 -1.401523
v 0.747340 4.325969 -1.251511
v 1.210381 4.555605 -1.215621
v 1.093051 4.551160 -1.395768
v 0.740858 4.582649 -1.386435
v 1.107229 4.723310 -1.114746
v 1.031563 4.698771 -1.376507
v 0.835415 4.718553 -1.371634
v 1.197848 3.290001 -1.012773
v 1.015215 3.244281 -1.022574
v 0.832582 3.198560 -1.012773
v 0.778781 4.412218 -1.387737
v 1.330574 4.399722 -1.222928
v 1.081382 4.428068 -1.395675
v 0.948877 4.825555 -1.130197
v 1.029904 4.802779 -1.089301
v 0.867850 4.848332 -1.089301
v 0.649901 3.444611 -1.162649
v 1.279094 3.444611 -1.162649
v 0.657431 3.288317 -1.115268
v 1.261422 3.375217 -1.115268
v 1.114998 3.380468 -1.460628
v 0.906843 3.380637 -1.490985
v 0.772493 3.331559 -1.421857
v 1.156413 3.158111 -1.082699
v 1.022063 3.109032 -1.013570
v 0.865709 3.111825 -1.028297
v 0.747071 3.165424 -1.159596
v 0.981140 2.501240 -1.438463
v 1.217440 3.240315 -1.247619
v 0.711466 3.249354 -1.295277
v 1.106614 2.498805 -1.429059
v 1.209554 3.292629 -1.383301
v 1.116734 2.916237 -1.483629
v 0.952783 2.912355 -1.496343
v 0.811021 2.900791 -1.420905
v 1.216171 2.885752 -1.103128
v 1.073721 2.874840 -1.027197
v 0.909166 2.870603 -1.040302
v 0.783379 2.874753 -1.137689
v 0.973269 2.410804 -1.412870
v 1.281473 2.899501 -1.241236
v 0.745468 2.886223 -1.283765
v 1.079952 2.391913 -1.403565
v 1.242627 2.911187 -1.387127
v 0.873141 2.511904 -1.379110
v 1.185864 2.538274 -1.132982
v 1.078350 2.548630 -1.073599
v 0.952728 2.550830 -1.082422
v 0.854834 2.542530 -1.157450
v 0.960564 2.269817 -1.432272
v 1.234933 2.522930 -1.241051
v 0.824033 2.527470 -1.271627
v 1.063897 2.253424 -1.421882
v 1.203464 2.507773 -1.355217
v 0.878219 2.420696 -1.357729
v 1.170107 2.358009 -1.129064
v 1.046841 2.372991 -1.073956
v 0.939965 2.392458 -1.083480
v 0.857688 2.409020 -1.153744
v 0.931413 2.027667 -1.439727
v 1.214030 2.357861 -1.228038
v 0.834013 2.419815 -1.258442
v 1.046421 1.974939 -1.427597
v 1.190701 2.370550 -1.332990
v 0.872411 2.281110 -1.370745
v 1.122478 2.234796 -1.119130
v 1.034834 2.249507 -1.058117
v 0.931636 2.266054 -1.068605
v 0.854751 2.278587 -1.146482
v 0.965378 1.268628 -1.331754
v 1.162910 2.229325 -1.228924
v 0.832202 2.283926 -1.261773
v 1.016586 1.261199 -1.326962
v 1.140154 2.237247 -1.344707
v 0.831977 2.072981 -1.375204
v 1.108539 1.938617 -1.113775
v 1.005337 1.980333 -1.047423
v 0.897140 2.032850 -1.057641
v 0.810259 2.077577 -1.140226
v 1.153318 1.921241 -1.226333
v 0.786414 2.092275 -1.260878
v 1.130341 1.934890 -1.345225
v 0.921218 1.274132 -1.303027
v 1.046448 1.253045 -1.184968
v 0.999083 1.257562 -1.126545
v 0.947775 1.264723 -1.131359
v 0.912382 1.272495 -1.197516
v 1.066690 1.251568 -1.236243
v 0.900976 1.275609 -1.251752
v 1.055284 1.254682 -1.290479
v 0.911271 4.545129 -1.600497
v 0.803566 4.720010 -1.142376
v 0.733940 4.498565 -1.188858
v 0.752504 4.596877 -1.171311
v 1.060859 4.551112 -1.501640
v 0.792442 4.443832 -1.502936
v 0.769566 4.576520 -1.494273
v 0.852083 4.691772 -1.484699
v 1.006042 4.676588 -1.488423
v 1.049598 4.457947 -1.512279
v 1.008469 4.543777 -1.597097
v 0.833146 4.479873 -1.605403
v 0.820392 4.559653 -1.590886
v 0.876810 4.635296 -1.578154
v 0.971195 4.626205 -1.581059
v 0.994917 4.487617 -1.610849
v 1.046376 4.207927 -1.540787
v 0.916509 4.183546 -1.497410
v 0.950699 4.286026 -1.719119
v 1.061722 4.253325 -1.641689
v 0.805482 4.210970 -1.568313
v 0.822524 4.261892 -1.677121
v 1.045895 4.076814 -1.595691
v 0.927903 4.051495 -1.547036
v 0.954236 4.152134 -1.775090
v 1.056587 4.126232 -1.706732
v 0.824380 4.075899 -1.617717
v 0.838231 4.126941 -1.730874
v 1.047610 4.012882 -1.631437
v 0.920905 3.993427 -1.585439
v 0.953273 4.089829 -1.796508
v 1.059783 4.059525 -1.733480
v 0.830514 4.022546 -1.652227
v 0.843685 4.067661 -1.749126
v 1.047919 3.941197 -1.658677
v 0.934090 3.916247 -1.612384
v 0.959802 4.025481 -1.847295
v 1.065563 3.996263 -1.776909
v 0.831957 3.943800 -1.683589
v 0.840725 3.998954 -1.801272
v 1.002999 3.501656 -1.896063
v 0.954732 3.504494 -1.872464
v 0.968481 3.543415 -1.989269
v 1.022569 3.533342 -1.953975
v 0.900644 3.514567 -1.907759
v 0.907519 3.534028 -1.966161
v 1.044057 3.356658 -2.040589
v 0.945994 3.358063 -2.022044
v 0.967596 3.355932 -2.120903
v 1.055190 3.357849 -2.082521
v 0.857735 3.352555 -2.050571
v 0.868869 3.353746 -2.092504
v 1.044359 3.181903 -2.112631
v 0.972448 3.185319 -2.099551
v 0.988666 3.164882 -2.159560
v 1.052469 3.171685 -2.142636
v 0.908646 3.178517 -2.116475
v 0.916755 3.168298 -2.146480
v 0.874166 3.440905 -1.980105
v 0.882896 3.452016 -2.042665
v 1.047160 3.446755 -2.034717
v 1.027995 3.423418 -1.972648
v 0.948640 3.436110 -1.943246
v 0.966099 3.458332 -2.068366
v 1.084328 3.440769 -1.933784
v 1.095326 3.472062 -1.967271
v 1.055107 3.412330 -1.985397
v 1.063762 3.439210 -2.022542
v 1.136055 3.373200 -1.997309
v 1.136299 3.395619 -2.019410
v 1.120432 3.354099 -2.016857
v 1.120676 3.376517 -2.038959
v 0.873222 3.329226 -2.105803
v 0.970411 3.330121 -2.130670
v 0.948491 3.325215 -2.048803
v 0.862262 3.330667 -2.066622
v 1.056639 3.333164 -2.097237
v 1.045680 3.334605 -2.058055
v 0.860345 3.394032 -2.023843
v 1.052015 3.402109 -2.063171
v 0.870989 3.398985 -2.073600
v 1.041371 3.397155 -2.013414
v 0.944090 3.393403 -1.986039
v 0.965379 3.402738 -2.100976
v 1.234400 3.358388 -1.284355
v 1.211260 3.482950 -1.356883
v 1.245218 3.325517 -1.164028
v 1.290690 3.568867 -1.168872
v 0.982412 4.955846 -1.126293
v 1.059932 4.896135 -1.086401
v 0.901202 4.989530 -1.086401
v 1.035166 0.977740 -1.393099
v 0.961306 0.977683 -1.400465
v 0.897530 0.977438 -1.359351
v 1.079242 0.976952 -1.189947
v 1.015466 0.976707 -1.148834
v 0.941346 0.976648 -1.155777
v 0.885194 0.976798 -1.208126
v 0.977673 0.977330 -1.310467
v 1.108314 0.977290 -1.263413
v 0.868458 0.977100 -1.285885
v 0.975735 0.977074 -1.249134
v 1.091318 0.977590 -1.340750
v 1.016664 1.118667 -1.364043
v 0.944421 1.119393 -1.366053
v 0.922621 1.114798 -1.128604
v 0.994864 1.114072 -1.122774
v 0.854002 1.117463 -1.268730
v 0.882290 1.118933 -1.331106
v 0.870362 1.115543 -1.202751
v 1.172408 1.123417 -1.203396
v 1.128248 1.128921 -1.174669
v 1.392098 1.031841 -1.377532
v 1.142547 1.131570 -1.345390
v 1.192650 1.121939 -1.254671
v 1.181244 1.125053 -1.308908
v 1.372798 1.026356 -1.169849
v 1.378643 0.977135 -1.148787
v 1.446858 1.030205 -1.333151
v 1.454495 0.978018 -1.340704
v 1.434930 1.026816 -1.204796
v 1.463218 1.028286 -1.267172
v 1.471491 0.977718 -1.263367
v 1.442419 0.977380 -1.189900
v 1.398343 0.978168 -1.393053
v 1.094180 2.451326 -1.418142
v 1.051416 2.308686 -1.415341
v 1.059479 2.448622 -1.073597
v 1.030758 2.329631 -1.067748
v 0.893760 5.036573 -1.138233
v 0.824686 5.253565 -1.134265
v 1.216590 5.281841 -1.123378
v 0.839032 5.087587 -1.163687
v 1.240062 5.158276 -1.075955
v 1.028025 5.007976 -1.167655
v 0.930213 5.342487 -1.163687
v 1.022199 5.181217 -1.201290
v 1.082459 5.369727 -1.148976
v 1.124153 5.206671 -1.172075
v 1.216082 4.946567 -1.098879
v 1.227841 5.041566 -1.102274
v 1.213907 4.903277 -1.092519
v 1.171970 5.028454 -1.147251
v 1.099796 5.010257 -1.169987
v 1.107713 4.915440 -1.103352
v 1.212345 5.211052 -1.116486
v 1.262777 5.064181 -1.042753
v 1.206993 5.117218 -1.134257
v 1.200709 5.168664 -1.132247
v 1.032364 5.080603 -1.188146
v 0.962318 5.142532 -1.189075
v 0.964709 5.180666 -1.184409
v 0.996603 5.201126 -1.190644
v 0.982869 5.107370 -1.187115
v 0.956537 5.141928 -1.216581
v 0.976369 5.104500 -1.206983
v 0.958765 5.182017 -1.219976
v 0.991806 5.204422 -1.212548
v 1.256861 5.210906 -1.065762
v 0.869691 3.561801 -1.871934
v 1.050768 3.593321 -1.940670
v 0.879589 3.595506 -1.959997
v 1.028157 3.549136 -1.853552
v 0.950345 3.543909 -1.818645
v 0.969933 3.611446 -1.994711
v 0.869896 3.562764 -0.128415
v 1.050423 3.594189 -0.059887
v 0.879764 3.596367 -0.040619
v 1.027881 3.550138 -0.146741
v 0.950304 3.544927 -0.181541
v 0.969834 3.612259 -0.006010
v 0.834088 4.927025 -0.836315
v 0.772343 4.927025 -1.000001
v 0.957374 4.981970 -0.810927
v 0.834088 4.927025 -1.163687
v 0.957374 4.981970 -1.189075
v 0.783563 4.785958 -0.844427
v 0.733827 4.785958 -1.000001
v 0.840264 4.832499 -0.820342
v 0.781380 4.768176 -1.183333
v 0.845295 4.823121 -1.211768
v 0.737619 4.613345 -0.878274
v 0.678853 4.528573 -1.037576
v 0.727139 4.564388 -1.143373
v 0.834959 5.056507 -0.861642
v 0.782659 5.056507 -1.000001
v 0.939385 5.103046 -0.840138
v 0.834959 5.056507 -1.138935
v 0.939385 5.103046 -1.160439
v 0.830772 4.920507 -0.861068
v 0.778472 4.920507 -1.000001
v 0.935198 4.967047 -0.839564
v 0.830772 4.920507 -1.138935
v 0.935198 4.967047 -1.160439
v 0.795191 4.785958 -0.865224
v 0.733827 4.785958 -1.000001
v 0.846853 4.832499 -0.844749
v 0.783563 4.785958 -1.155575
v 0.840264 4.832499 -1.179660
v 0.749248 4.613345 -0.899071
v 0.699283 4.583009 -1.032115
v 0.737619 4.613345 -1.121728
v 0.950248 1.305320 -0.597964
v 1.009629 1.281405 -0.948421
v 1.128679 1.262040 -0.766981
v 1.040982 1.285249 -0.606718
v 0.836069 1.327066 -0.739556
v 0.920067 1.301075 -0.940005
v 1.092943 1.267351 -0.857334
v 1.108975 1.268833 -0.671442
v 0.871955 1.321387 -0.648865
v 0.855939 1.320072 -0.835433
v 0.950248 1.305320 -1.402036
v 1.009629 1.281405 -1.051579
v 1.128679 1.262040 -1.233019
v 1.040982 1.285249 -1.393283
v 0.836069 1.327066 -1.260444
v 0.920067 1.301075 -1.059995
v 1.092943 1.267351 -1.142666
v 1.108975 1.268833 -1.328558
v 0.871955 1.321387 -1.351135
v 0.855939 1.320072 -1.164567
v 0.953284 4.089451 -0.203400
v 1.059470 4.059238 -0.266237
v 0.841077 3.998851 -0.198651
v 0.959793 4.025298 -0.152768
v 1.065232 3.996168 -0.222940
v 0.844028 4.067349 -0.250638
v 0.969893 3.612520 -0.005798
v 0.879823 3.596629 -0.040407
v 1.050482 3.594451 -0.059675
vn 0.9947 -0.1025 -0.0000
vn 0.9999 -0.0171 -0.0000
vn 0.8645 0.0241 0.5020
vn 0.8628 -0.1301 0.4885
vn 0.0906 0.0563 0.9943
vn 0.1217 0.0191 0.9924
vn -0.8263 0.0724 0.5586
vn -0.8294 0.1600 0.5352
vn -0.0049 0.2081 0.9781
vn 0.8097 -0.1280 0.5726
vn -0.8578 0.1807 0.4812
vn 0.9618 -0.2184 0.1650
vn 0.9813 -0.1927 -0.0000
vn -0.9993 0.0373 -0.0000
vn -0.9990 0.0217 0.0395
vn -0.9623 0.2718 0.0006
vn -0.9669 0.2553 -0.0000
vn -0.9971 0.0763 -0.0000
vn -0.9089 -0.1615 0.3845
vn -0.9990 -0.0454 -0.0000
vn 0.8745 0.0236 0.4845
vn 0.0842 -0.0325 0.9959
vn 0.8341 -0.0435 0.5498
vn 0.8777 0.2542 0.4062
vn 0.8021 0.5045 0.3195
vn 0.8529 0.3029 0.4251
vn 0.5290 0.7736 0.3487
vn -0.4611 0.8426 0.2782
vn -0.3663 0.8473 0.3846
vn 0.5112 0.7631 0.3953
vn 0.9042 0.1737 0.3901
vn -0.8962 0.4319 0.1015
vn -0.9218 0.3876 -0.0000
vn 0.7510 0.6380 0.1701
vn 0.7567 0.2036 0.6213
vn 0.9025 -0.4306 -0.0000
vn 0.9353 -0.3537 -0.0054
vn 0.7069 -0.6730 -0.2178
vn 0.5543 -0.8323 -0.0000
vn 0.9700 -0.1798 0.1638
vn 0.9696 -0.1150 0.2162
vn 0.9420 -0.3352 -0.0170
vn 0.8230 0.5681 -0.0000
vn 0.8123 0.5833 -0.0000
vn 0.9427 0.3337 -0.0000
vn 1.0000 -0.0071 -0.0000
vn -0.9169 -0.3991 0.0104
vn -0.8404 -0.5419 -0.0000
vn -0.1139 -0.9935 -0.0000
vn -0.3570 -0.8170 -0.4528
vn -0.9899 0.1415 -0.0000
vn -0.9786 0.2059 -0.0000
vn 0.2428 -0.9701 -0.0000
vn 0.2465 -0.7264 -0.6415
vn 0.1861 0.6153 0.7660
vn -0.7286 0.4588 0.5086
vn -0.8743 -0.4742 0.1035
vn 0.7786 0.3894 0.4921
vn 0.9656 0.2601 -0.0000
vn 0.9071 -0.4210 -0.0000
vn 0.6393 -0.2367 0.7317
vn -0.9444 0.3287 -0.0000
vn -0.9922 0.1248 -0.0000
vn -0.9866 0.0701 0.1471
vn -0.3893 -0.1661 -0.9060
vn -0.8710 -0.3412 -0.3534
vn 0.9772 -0.2122 -0.0000
vn -0.9454 -0.1524 0.2882
vn 0.1502 -0.0694 -0.9862
vn 0.8602 0.0379 0.5085
vn 0.4180 0.1364 0.8981
vn 0.3704 -0.0410 0.9280
vn 0.8547 -0.0108 0.5191
vn 0.7072 -0.1171 -0.6972
vn 0.7363 -0.0031 -0.6767
vn 0.2168 -0.0719 -0.9736
vn -0.8401 -0.1497 -0.5215
vn -0.9824 -0.1542 0.1051
vn -0.2369 0.1609 0.9581
vn -0.6928 0.0604 0.7186
vn -0.7082 -0.1255 0.6947
vn -0.1864 -0.0746 0.9796
vn -0.3738 -0.1263 -0.9189
vn 0.9969 -0.0718 -0.0323
vn 0.9929 0.0194 -0.1175
vn 0.9899 -0.1164 -0.0805
vn 0.7259 -0.0966 -0.6810
vn 0.3640 -0.2210 0.9048
vn 0.8125 -0.1639 0.5594
vn 0.2275 -0.0924 -0.9694
vn -0.8295 -0.1074 -0.5481
vn -0.9833 -0.1549 0.0952
vn -0.7142 -0.1856 0.6749
vn -0.1986 -0.1966 0.9601
vn -0.3428 -0.0752 -0.9364
vn 0.8161 -0.2189 0.5349
vn 0.9685 -0.2316 -0.0909
vn 0.7225 -0.1483 -0.6752
vn 0.3116 -0.2688 0.9114
vn 0.3311 -0.1318 0.9343
vn 0.1841 -0.0219 -0.9827
vn -0.8542 0.0130 -0.5197
vn -0.9971 -0.0270 0.0718
vn -0.2341 -0.0659 0.9700
vn -0.3893 0.0655 -0.9188
vn 0.1954 0.0102 -0.9807
vn 0.1706 0.0747 -0.9825
vn 0.8375 -0.1064 0.5359
vn 0.9775 -0.1944 -0.0819
vn 0.7380 -0.0921 -0.6685
vn 0.3398 0.0790 0.9372
vn -0.8539 0.1306 -0.5038
vn -0.9875 0.1285 0.0910
vn -0.7628 -0.0612 0.6438
vn -0.3936 0.1196 -0.9115
vn 0.2716 0.0738 -0.9596
vn 0.2527 -0.0018 -0.9675
vn -0.4597 0.0338 -0.8874
vn 0.8754 -0.0357 0.4821
vn 0.9953 -0.0359 -0.0905
vn 0.7941 -0.0291 -0.6071
vn 0.4609 0.0996 0.8819
vn 0.4101 -0.0300 0.9115
vn -0.8859 0.0740 -0.4580
vn -0.9925 0.0887 0.0847
vn -0.7509 0.1295 0.6476
vn -0.2196 0.1094 0.9694
vn -0.7154 -0.4464 0.5376
vn -0.8998 -0.4281 0.0841
vn -0.9307 -0.3587 0.0721
vn -0.7434 -0.3828 0.5485
vn 0.2720 -0.5524 0.7880
vn -0.2746 -0.4925 0.8258
vn -0.3176 -0.4594 0.8295
vn 0.1468 -0.4546 0.8785
vn -0.4783 -0.4644 -0.7454
vn 0.1925 -0.5361 -0.8219
vn 0.1197 -0.5932 -0.7961
vn -0.5447 -0.5544 -0.6293
vn 0.7833 -0.6183 -0.0643
vn 0.6703 -0.6011 0.4352
vn 0.7708 -0.3363 0.5411
vn 0.9321 -0.3464 -0.1062
vn 0.6273 -0.6075 -0.4873
vn 0.7158 -0.3960 -0.5751
vn -0.2515 -0.0002 0.9679
vn -0.7792 0.0528 0.6246
vn -0.9098 0.0360 -0.4134
vn -0.5058 -0.0379 -0.8618
vn -0.3129 -0.7197 -0.6198
vn -0.6402 -0.6976 -0.3218
vn -0.7591 0.1650 0.6297
vn -0.9919 0.0997 0.0790
vn -0.7307 -0.6773 0.0855
vn -0.5697 -0.6203 0.5392
vn 0.0647 0.2684 0.9611
vn -0.2499 0.2200 0.9430
vn -0.1707 -0.5613 0.8098
vn 0.0278 -0.6330 0.7737
vn 0.0561 0.0452 -0.9974
vn -0.0034 -0.7350 -0.6781
vn 0.0012 -1.0000 0.0041
vn 0.6322 -0.5259 -0.5690
vn 0.8169 -0.5714 -0.0785
vn 0.4670 0.4633 -0.7532
vn 0.3204 0.4824 -0.8153
vn -0.8335 -0.4471 -0.3245
vn -0.8781 -0.3690 -0.3044
vn -0.9649 0.2078 0.1609
vn 0.3234 0.5571 0.7649
vn 0.5548 0.1915 0.8097
vn 0.9362 0.0239 0.3507
vn 0.4257 0.2320 0.8747
vn -0.9765 -0.1668 0.1363
vn -0.9052 0.2293 0.3578
vn 0.7979 -0.2685 -0.5397
vn -0.1997 -0.4584 -0.8660
vn -0.6153 0.1609 0.7717
vn -0.0223 0.1916 0.9812
vn -0.5807 0.2254 0.7823
vn -0.2363 0.6084 0.7576
vn -0.9590 -0.2155 -0.1841
vn -0.7557 0.2092 0.6206
vn -0.0685 -0.4653 -0.8825
vn -0.8986 -0.2707 -0.3453
vn 0.1887 0.3946 0.8993
vn -0.7876 0.1423 0.5995
vn 0.1213 0.3501 0.9289
vn 0.9184 0.1542 0.3644
vn -0.9303 -0.2072 -0.3027
vn -0.9575 0.2060 0.2017
vn 0.9027 0.1710 0.3948
vn 0.0769 0.9903 -0.1156
vn 0.9769 0.1953 -0.0869
vn 0.7917 -0.2634 -0.5512
vn 0.9850 -0.0740 -0.1559
vn 0.6235 0.7445 -0.2386
vn 0.9173 0.2157 0.3347
vn -0.1627 -0.4475 -0.8794
vn 0.8071 -0.2280 -0.5447
vn 0.7879 -0.2453 -0.5648
vn 0.7453 -0.4895 -0.4527
vn 0.9054 -0.3202 0.2787
vn 0.8928 0.2431 0.3792
vn 0.5388 -0.5487 -0.6392
vn -0.8209 -0.2384 0.5189
vn -0.8638 -0.4339 -0.2562
vn -0.8087 -0.4961 -0.3161
vn -0.7926 0.1715 0.5851
vn -0.9093 -0.2098 -0.3593
vn 0.0778 -0.4394 0.8949
vn 0.1120 -0.1088 0.9877
vn -0.6388 -0.1524 0.7542
vn -0.9876 0.0310 0.1542
vn 0.7594 -0.3408 -0.5542
vn 0.8725 0.2785 0.4015
vn 0.6731 -0.4099 -0.6155
vn -0.7067 0.3865 0.5926
vn -0.9093 -0.1453 -0.3900
vn -0.8663 -0.3370 -0.3688
vn -0.0978 -0.6311 -0.7695
vn -0.0988 -0.7452 -0.6595
vn 0.1049 0.3561 0.9285
vn -0.8558 -0.3804 -0.3506
vn -0.0416 -0.4974 -0.8665
vn -0.0082 -0.6763 -0.7366
vn -0.6346 -0.6655 -0.3929
vn 0.0433 0.3066 0.9508
vn -0.7003 0.0948 0.7075
vn -0.4953 -0.6818 0.5384
vn 0.0721 -0.7191 0.6911
vn -0.0825 -0.6865 -0.7225
vn 0.0458 0.4614 0.8860
vn -0.7324 0.2261 0.6422
vn 0.0424 0.4124 0.9100
vn 0.9007 0.2158 0.3770
vn 0.5321 -0.5939 -0.6035
vn 0.7112 -0.5801 0.3971
vn 0.8693 0.1769 0.4616
vn 0.6783 -0.3433 -0.6497
vn 0.0567 0.6154 0.7862
vn 0.6656 0.3713 0.6474
vn -0.1141 -0.6833 -0.7212
vn -0.8904 -0.1716 -0.4216
vn -0.6874 0.5326 0.4938
vn 0.0987 -0.8281 -0.5519
vn 0.0175 0.0316 0.9993
vn 0.7760 0.6307 0.0033
vn -0.4684 -0.8806 -0.0715
vn 0.0339 -0.9830 0.1806
vn 0.2037 -0.2691 0.9413
vn 0.4403 -0.2221 -0.8699
vn 0.6983 -0.5478 -0.4608
vn 0.9036 0.2892 0.3160
vn -0.0317 -0.6796 -0.7329
vn 0.9070 -0.4212 0.0001
vn -0.9991 0.0358 -0.0245
vn -0.6863 0.1106 0.7188
vn -0.0001 -0.0104 0.9999
vn 0.6392 -0.2366 0.7317
vn -0.9991 0.0360 -0.0244
vn 0.7051 -0.5634 0.4305
vn 0.3001 -0.5378 0.7879
vn 0.2303 -0.6066 -0.7609
vn 0.4781 0.8499 0.2214
vn 0.5078 0.8594 -0.0602
vn 0.4985 0.7799 -0.3785
vn 0.3381 0.5989 0.7259
vn 0.7934 0.6051 -0.0668
vn 0.6980 0.6128 0.3706
vn 0.6159 0.6262 -0.4781
vn 0.3476 0.5734 0.7419
vn -0.7718 0.2993 0.5611
vn -0.5381 0.8274 -0.1610
vn 0.0328 0.9803 0.1949
vn -0.0816 -0.4116 -0.9077
vn -0.4267 -0.4804 0.7663
vn -0.6815 -0.1585 0.7145
vn -0.9677 -0.2520 -0.0123
vn -0.9991 0.0359 -0.0244
vn -0.6815 -0.1584 0.7144
vn -0.7202 0.2553 0.6451
vn -0.9318 0.3628 0.0033
vn 0.3450 0.0819 0.9350
vn 0.2611 0.0882 0.9613
vn 0.1392 -0.3305 0.9335
vn 0.4123 -0.1921 0.8906
vn 0.8689 -0.0016 0.4951
vn 0.6640 0.0127 0.7477
vn 0.8023 -0.1096 0.5868
vn 0.9989 0.0471 -0.0000
vn 0.9987 -0.0501 -0.0000
vn 0.8990 -0.0189 0.4376
vn -0.1424 -0.4446 0.8843
vn 0.0711 -0.7405 0.6683
vn 0.2218 0.7021 0.6767
vn -0.3273 0.5869 0.7406
vn -0.2460 -0.1186 0.9620
vn -0.7780 0.3849 0.4966
vn -0.1762 0.8314 0.5270
vn 0.0018 -0.2375 0.9714
vn -0.4709 -0.7073 0.5273
vn -0.6863 0.1107 0.7188
vn -0.0001 -0.0103 0.9999
vn -0.4307 0.9025 -0.0000
vn 0.2635 0.9647 -0.0000
vn 0.8859 0.4639 -0.0000
vn 0.6624 0.3559 0.6592
vn 0.8264 -0.1043 0.5533
vn 0.9838 -0.1790 -0.0000
vn 0.6788 -0.0437 0.7331
vn 0.6560 0.0997 0.7481
vn 0.9802 -0.1978 -0.0000
vn 0.8896 -0.4567 -0.0000
vn 0.8055 -0.1592 0.5708
vn 0.5281 -0.6319 0.5673
vn 0.6247 -0.7809 -0.0000
vn 0.0662 -0.9978 -0.0000
vn -0.5518 -0.1385 0.8224
vn -0.5587 0.4311 0.7085
vn 0.0609 0.8088 0.5849
vn -0.1808 -0.6455 0.7420
vn 0.6393 -0.2366 0.7317
vn 0.9070 -0.4211 -0.0000
vn 0.8628 -0.1301 -0.4885
vn 0.8645 0.0241 -0.5020
vn 0.1217 0.0191 -0.9924
vn 0.0906 0.0563 -0.9943
vn -0.8294 0.1600 -0.5352
vn -0.8263 0.0724 -0.5586
vn 0.8097 -0.1280 -0.5726
vn -0.0049 0.2081 -0.9781
vn -0.8578 0.1807 -0.4812
vn 0.9618 -0.2184 -0.1650
vn -0.9623 0.2718 -0.0006
vn -0.9990 0.0217 -0.0395
vn -0.9089 -0.1615 -0.3845
vn 0.0842 -0.0325 -0.9959
vn 0.8745 0.0236 -0.4845
vn 0.8341 -0.0435 -0.5498
vn 0.8529 0.3029 -0.4251
vn 0.8021 0.5045 -0.3195
vn 0.8777 0.2542 -0.4062
vn 0.5290 0.7736 -0.3487
vn 0.5112 0.7631 -0.3953
vn -0.3663 0.8473 -0.3846
vn -0.4611 0.8426 -0.2782
vn 0.9042 0.1737 -0.3901
vn -0.8962 0.4319 -0.1015
vn 0.7510 0.6380 -0.1701
vn 0.7567 0.2036 -0.6213
vn 0.7069 -0.6730 0.2178
vn 0.9353 -0.3537 0.0054
vn 0.9420 -0.3352 0.0170
vn 0.9696 -0.1150 -0.2162
vn 0.9700 -0.1798 -0.1638
vn -0.9169 -0.3991 -0.0104
vn -0.3570 -0.8170 0.4528
vn 0.2465 -0.7264 0.6415
vn -0.7286 0.4588 -0.5086
vn 0.1861 0.6153 -0.7660
vn -0.8743 -0.4742 -0.1035
vn 0.7786 0.3894 -0.4921
vn 0.6393 -0.2367 -0.7317
vn -0.9866 0.0701 -0.1471
vn -0.8710 -0.3412 0.3534
vn -0.3893 -0.1661 0.9060
vn -0.9454 -0.1524 -0.2882
vn 0.1502 -0.0694 0.9862
vn 0.8602 0.0379 -0.5085
vn 0.8547 -0.0108 -0.5191
vn 0.3704 -0.0410 -0.9280
vn 0.4180 0.1364 -0.8981
vn 0.2168 -0.0719 0.9736
vn 0.7363 -0.0031 0.6767
vn 0.7072 -0.1171 0.6972
vn -0.9824 -0.1542 -0.1051
vn -0.8401 -0.1497 0.5215
vn -0.2369 0.1609 -0.9581
vn -0.1864 -0.0746 -0.9796
vn -0.7082 -0.1255 -0.6947
vn -0.6928 0.0604 -0.7186
vn -0.3738 -0.1263 0.9189
vn 0.9969 -0.0718 0.0323
vn 0.7259 -0.0966 0.6810
vn 0.9899 -0.1164 0.0805
vn 0.9929 0.0194 0.1175
vn 0.8125 -0.1639 -0.5594
vn 0.3640 -0.2210 -0.9048
vn 0.2275 -0.0924 0.9694
vn -0.9833 -0.1549 -0.0952
vn -0.8295 -0.1074 0.5481
vn -0.1986 -0.1966 -0.9601
vn -0.7142 -0.1856 -0.6749
vn -0.3428 -0.0752 0.9364
vn 0.9685 -0.2316 0.0909
vn 0.8161 -0.2189 -0.5349
vn 0.7225 -0.1483 0.6752
vn 0.3311 -0.1318 -0.9343
vn 0.3116 -0.2688 -0.9114
vn 0.1841 -0.0219 0.9827
vn -0.9971 -0.0270 -0.0718
vn -0.8542 0.0130 0.5197
vn -0.2341 -0.0659 -0.9700
vn -0.3893 0.0655 0.9188
vn 0.1706 0.0747 0.9825
vn 0.1954 0.0102 0.9807
vn 0.9775 -0.1944 0.0819
vn 0.8375 -0.1064 -0.5359
vn 0.7380 -0.0921 0.6685
vn 0.3398 0.0790 -0.9372
vn -0.9875 0.1285 -0.0910
vn -0.8539 0.1306 0.5038
vn -0.7628 -0.0612 -0.6438
vn -0.3936 0.1196 0.9115
vn -0.4597 0.0338 0.8874
vn 0.2527 -0.0018 0.9675
vn 0.2716 0.0738 0.9596
vn 0.9953 -0.0359 0.0905
vn 0.8754 -0.0357 -0.4821
vn 0.7941 -0.0291 0.6071
vn 0.4101 -0.0300 -0.9115
vn 0.4609 0.0996 -0.8819
vn -0.9925 0.0887 -0.0847
vn -0.8859 0.0740 0.4580
vn -0.7509 0.1295 -0.6476
vn -0.2196 0.1094 -0.9694
vn -0.7154 -0.4464 -0.5376
vn -0.7434 -0.3828 -0.5485
vn -0.9307 -0.3587 -0.0721
vn -0.8998 -0.4281 -0.0841
vn 0.2720 -0.5524 -0.7880
vn 0.1468 -0.4546 -0.8785
vn -0.3176 -0.4594 -0.8295
vn -0.2746 -0.4925 -0.8258
vn -0.4783 -0.4644 0.7454
vn -0.5447 -0.5544 0.6293
vn 0.1197 -0.5932 0.7961
vn 0.1925 -0.5361 0.8219
vn 0.7833 -0.6183 0.0643
vn 0.9321 -0.3464 0.1062
vn 0.7708 -0.3363 -0.5411
vn 0.6703 -0.6011 -0.4352
vn 0.6273 -0.6075 0.4873
vn 0.7158 -0.3960 0.5751
vn -0.2515 -0.0002 -0.9679
vn -0.7792 0.0528 -0.6246
vn -0.9098 0.0360 0.4134
vn -0.6402 -0.6976 0.3218
vn -0.3129 -0.7197 0.6198
vn -0.5058 -0.0379 0.8618
vn -0.7591 0.1650 -0.6297
vn -0.5697 -0.6203 -0.5392
vn -0.7307 -0.6773 -0.0855
vn -0.9919 0.0997 -0.0790
vn 0.0647 0.2684 -0.9611
vn 0.0278 -0.6330 -0.7737
vn -0.1707 -0.5613 -0.8098
vn -0.2499 0.2200 -0.9430
vn -0.0034 -0.7350 0.6781
vn 0.0561 0.0452 0.9974
vn 0.0012 -1.0000 -0.0041
vn 0.8169 -0.5714 0.0785
vn 0.6322 -0.5259 0.5690
vn 0.3204 0.4824 0.8153
vn 0.4670 0.4633 0.7532
vn -0.8335 -0.4471 0.3245
vn -0.8781 -0.3690 0.3044
vn -0.9649 0.2078 -0.1609
vn 0.5548 0.1915 -0.8097
vn 0.3234 0.5571 -0.7649
vn 0.9362 0.0239 -0.3507
vn 0.4257 0.2320 -0.8747
vn -0.9052 0.2293 -0.3578
vn -0.9765 -0.1668 -0.1363
vn -0.1999 -0.4572 0.8666
vn 0.7979 -0.2672 0.5403
vn -0.6153 0.1609 -0.7717
vn -0.5807 0.2254 -0.7823
vn -0.0223 0.1916 -0.9812
vn -0.2363 0.6084 -0.7576
vn -0.7558 0.2101 -0.6202
vn -0.9591 -0.2146 0.1845
vn -0.8987 -0.2698 0.3459
vn -0.0684 -0.4641 0.8831
vn 0.1886 0.3958 -0.8988
vn 0.1212 0.3513 -0.9284
vn -0.7877 0.1433 -0.5992
vn 0.9184 0.1554 -0.3639
vn -0.8371 0.2196 -0.5010
vn -0.9303 -0.2072 0.3027
vn 0.9027 0.1723 -0.3943
vn 0.9163 0.2262 -0.3304
vn 0.0796 0.4811 -0.8730
vn 0.7918 -0.2621 0.5517
vn 0.1038 0.4838 -0.8690
vn -0.8023 0.2613 -0.5368
vn -0.1627 -0.4475 0.8794
vn 0.7879 -0.2453 0.5648
vn 0.8071 -0.2280 0.5447
vn 0.7453 -0.4895 0.4527
vn 0.5369 -0.5510 0.6389
vn 0.8919 0.2460 -0.3795
vn 0.9028 -0.0761 -0.4232
vn -0.7751 -0.0405 -0.6306
vn -0.7927 0.1729 -0.5846
vn -0.8079 -0.4974 0.3159
vn -0.8638 -0.4339 0.2562
vn -0.9093 -0.2098 0.3593
vn 0.9079 0.2148 -0.3600
vn 0.7594 -0.3408 0.5542
vn 0.6731 -0.4099 0.6155
vn 0.8725 0.2785 -0.4015
vn -0.7067 0.3865 -0.5926
vn -0.8663 -0.3370 0.3688
vn -0.9093 -0.1453 0.3900
vn -0.0978 -0.6311 0.7695
vn -0.0988 -0.7465 0.6580
vn 0.1091 0.1460 -0.9833
vn 0.1051 0.3571 -0.9281
vn -0.8558 -0.3804 0.3506
vn -0.6346 -0.6655 0.3929
vn -0.0082 -0.6763 0.7366
vn -0.0416 -0.4974 0.8665
vn 0.0433 0.3066 -0.9508
vn 0.0721 -0.7191 -0.6911
vn -0.4953 -0.6818 -0.5384
vn -0.7003 0.0948 -0.7075
vn -0.0825 -0.6865 0.7225
vn 0.0458 0.4614 -0.8860
vn 0.0424 0.4124 -0.9100
vn -0.7324 0.2261 -0.6422
vn 0.9007 0.2158 -0.3770
vn 0.7112 -0.5801 -0.3971
vn 0.5321 -0.5939 0.6035
vn 0.8693 0.1769 -0.4616
vn 0.6783 -0.3433 0.6497
vn 0.6654 0.3721 -0.6472
vn 0.0566 0.6161 -0.7856
vn -0.8907 -0.1708 0.4212
vn -0.1146 -0.6853 0.7192
vn -0.6871 0.5335 -0.4933
vn 0.0992 -0.8292 0.5501
vn 0.7742 0.6330 -0.0017
vn 0.0168 0.0323 -0.9993
vn 0.2037 -0.2691 -0.9413
vn 0.0339 -0.9830 -0.1806
vn -0.4677 -0.8811 0.0709
vn 0.4407 -0.2199 0.8703
vn 0.6983 -0.5478 0.4608
vn 0.9036 0.2892 -0.3160
vn -0.0317 -0.6796 0.7329
vn 0.6393 -0.2367 -0.7316
vn -0.0001 -0.0105 -0.9999
vn -0.6863 0.1106 -0.7189
vn -0.6863 0.1106 -0.7188
vn -0.0001 -0.0104 -0.9999
vn 0.3001 -0.5378 -0.7879
vn 0.7051 -0.5634 -0.4305
vn 0.2303 -0.6066 0.7609
vn 0.5078 0.8594 0.0602
vn 0.4781 0.8499 -0.2214
vn 0.4985 0.7799 0.3785
vn 0.3381 0.5989 -0.7259
vn 0.7934 0.6051 0.0668
vn 0.6980 0.6128 -0.3706
vn 0.6159 0.6262 0.4781
vn 0.3476 0.5734 -0.7419
vn -0.0816 -0.4116 0.9077
vn -0.4175 -0.5651 -0.7116
vn -0.6019 -0.1747 -0.7792
vn -0.6020 -0.1746 -0.7792
vn -0.7263 0.2947 -0.6211
vn 0.3450 0.0819 -0.9350
vn 0.4123 -0.1921 -0.8906
vn 0.1392 -0.3305 -0.9335
vn 0.2616 0.0947 -0.9605
vn 0.8689 -0.0016 -0.4951
vn 0.8023 -0.1096 -0.5868
vn 0.6640 0.0127 -0.7477
vn 0.8990 -0.0189 -0.4376
vn -0.1424 -0.4446 -0.8843
vn 0.0711 -0.7405 -0.6683
vn 0.2218 0.7020 -0.6767
vn -0.1615 0.8511 -0.4995
vn -0.7991 0.4265 -0.4237
vn -0.7071 -0.2190 -0.6724
vn -0.3189 0.6074 -0.7276
vn -0.5424 -0.6715 -0.5048
vn 0.0018 -0.2375 -0.9714
vn -0.6863 0.1107 -0.7189
vn 0.6624 0.3559 -0.6592
vn 0.8264 -0.1043 -0.5533
vn 0.6560 0.0997 -0.7481
vn 0.6788 -0.0437 -0.7331
vn 0.8055 -0.1592 -0.5708
vn 0.5281 -0.6319 -0.5673
vn -0.6332 0.3826 -0.6728
vn -0.7034 -0.2578 -0.6624
vn 0.0609 0.8088 -0.5849
vn -0.4688 -0.6746 -0.5701
vn 0.6393 -0.2366 -0.7317
vn -0.6815 -0.1584 0.7145
vn -0.9818 0.1899 0.0087
vn -0.6448 0.1799 0.7429
vn 0.7789 -0.0707 0.6231
vn -0.2458 -0.1186 0.9621
vn -0.6019 -0.1746 -0.7792
vn -0.7013 0.2230 -0.6771
vn -0.7070 -0.2190 -0.6725
vn 0.8377 -0.2037 -0.5068
vn 0.4388 -0.4211 -0.7938
vn -0.0474 -0.4870 -0.8721
vn -0.3129 -0.3040 0.8998
vn 0.3167 -0.4679 0.8251
vn -0.9677 0.2517 0.0124
vn -0.0461 -0.8266 -0.5609
vn -0.3998 -0.8907 0.2165
vn -0.0182 -0.4240 0.9055
vn 0.5973 -0.0214 -0.8018
vn 0.6493 -0.1212 -0.7508
vn 0.9838 -0.1784 -0.0171
vn 0.9995 -0.0312 -0.0003
vn 0.5896 -0.0200 -0.8074
vn 0.6771 -0.2891 -0.6768
vn 0.6927 -0.2256 0.6850
vn 0.5960 -0.0184 0.8027
vn 0.6430 -0.0198 0.7656
vn 0.6213 -0.2867 0.7292
vn 0.8541 -0.3890 0.3452
vn 0.6379 -0.5281 0.5606
vn 0.6757 -0.5463 -0.4951
vn 0.8975 -0.4303 -0.0962
vn 0.9699 -0.2386 -0.0475
vn 0.9362 -0.3475 0.0523
vn 0.9440 -0.2541 0.2105
vn 0.9326 -0.3573 -0.0518
vn 0.1038 0.4838 0.8690
vn 0.8264 -0.2197 0.5184
vt 0.111465 0.675901
vt 0.111465 0.606695
vt 0.149588 0.605635
vt 0.148919 0.676029
vt 0.202630 0.606375
vt 0.209874 0.664597
vt 0.590366 0.467912
vt 0.590112 0.411048
vt 0.642639 0.407249
vt 0.649010 0.454390
vt 0.544288 0.368881
vt 0.562892 0.419928
vt 0.533962 0.448347
vt 0.519136 0.391083
vt 0.011241 0.294293
vt 0.030428 0.247017
vt 0.077817 0.259992
vt 0.046113 0.311732
vt 0.541585 0.336281
vt 0.517291 0.370989
vt 0.515463 0.336281
vt 0.682778 0.301712
vt 0.646450 0.301163
vt 0.649859 0.282041
vt 0.682778 0.282857
vt 0.682778 0.406802
vt 0.642762 0.334481
vt 0.682778 0.335518
vt 0.146644 0.562557
vt 0.210910 0.546090
vt 0.583514 0.359942
vt 0.201217 0.504764
vt 0.145662 0.536197
vt 0.152312 0.499163
vt 0.189294 0.482745
vt 0.772536 0.917958
vt 0.744611 0.927445
vt 0.740556 0.905765
vt 0.762754 0.898757
vt 0.794109 0.896046
vt 0.778474 0.881498
vt 0.655067 0.256368
vt 0.682778 0.256292
vt 0.135406 0.457811
vt 0.184004 0.449142
vt 0.504054 0.413804
vt 0.471130 0.336278
vt 0.472967 0.364159
vt 0.442589 0.345513
vt 0.442647 0.336275
vt 0.490608 0.372518
vt 0.475973 0.403359
vt 0.462680 0.377686
vt 0.111464 0.496898
vt 0.111464 0.457327
vt 0.111464 0.536074
vt 0.111464 0.564657
vt 0.135460 0.242237
vt 0.137123 0.216151
vt 0.194773 0.216160
vt 0.194810 0.226428
vt 0.030603 0.216145
vt 0.079803 0.216146
vt 0.682778 0.451800
vt 0.244501 0.216174
vt 0.245210 0.225008
vt 0.194419 0.417739
vt 0.142239 0.418026
vt 0.139514 0.397647
vt 0.612925 0.310086
vt 0.144838 0.013875
vt 0.162410 0.011374
vt 0.164817 0.028654
vt 0.146781 0.033690
vt 0.111464 0.439599
vt 0.129566 0.433843
vt 0.666087 0.228570
vt 0.682778 0.228943
vt 0.103939 0.216148
vt 0.102065 0.246522
vt 0.208058 0.253723
vt 0.166098 0.265690
vt 0.487883 0.336279
vt 0.132513 0.283517
vt 0.245596 0.249724
vt 0.468103 0.427594
vt 0.492049 0.444753
vt 0.409858 0.480289
vt 0.397210 0.456391
vt 0.395785 0.345437
vt 0.395709 0.336268
vt 0.381980 0.365308
vt 0.413707 0.381083
vt 0.366828 0.417440
vt 0.349410 0.396487
vt 0.219055 0.312391
vt 0.197323 0.328369
vt 0.084926 0.323864
vt 0.106031 0.302622
vt 0.178464 0.348097
vt 0.162234 0.371514
vt 0.243994 0.298719
vt 0.447445 0.403046
vt 0.382615 0.436271
vt 0.319973 0.471581
vt 0.311411 0.454167
vt 0.334850 0.508044
vt 0.327393 0.489329
vt 0.300713 0.436512
vt 0.266714 0.364137
vt 0.253066 0.379085
vt 0.241734 0.395555
vt 0.231688 0.413552
vt 0.283210 0.350883
vt 0.269593 0.285742
vt 0.508007 0.481655
vt 0.419905 0.507392
vt 0.303245 0.499942
vt 0.292369 0.486266
vt 0.282011 0.472239
vt 0.326612 0.512556
vt 0.315321 0.518782
vt 0.282957 0.446020
vt 0.284460 0.385609
vt 0.269937 0.394359
vt 0.248874 0.421121
vt 0.301277 0.339709
vt 0.341630 0.528084
vt 0.238148 0.699169
vt 0.235294 0.678840
vt 0.245912 0.679288
vt 0.801598 0.144620
vt 0.801737 0.161884
vt 0.767456 0.165578
vt 0.766755 0.144007
vt 0.798190 0.127694
vt 0.767084 0.122674
vt 0.797604 0.183645
vt 0.779213 0.184131
vt 0.791927 0.106008
vt 0.782745 0.105738
vt 0.236070 0.739177
vt 0.237991 0.719387
vt 0.257825 0.718372
vt 0.256243 0.740038
vt 0.309270 0.357509
vt 0.299982 0.378081
vt 0.323425 0.534957
vt 0.257773 0.406181
vt 0.260495 0.698637
vt 0.262338 0.680190
vt 0.323382 0.678840
vt 0.315475 0.698510
vt 0.704912 0.160865
vt 0.702743 0.139632
vt 0.705176 0.118398
vt 0.768491 0.184922
vt 0.710146 0.181563
vt 0.768507 0.104044
vt 0.711425 0.098075
vt 0.309792 0.717555
vt 0.307666 0.736878
vt 0.795201 0.201434
vt 0.233584 0.758818
vt 0.256647 0.761345
vt 0.230345 0.778769
vt 0.258351 0.780786
vt 0.448850 0.736949
vt 0.447672 0.724396
vt 0.467673 0.722613
vt 0.468703 0.734105
vt 0.585290 0.156927
vt 0.585402 0.168680
vt 0.566824 0.163844
vt 0.567453 0.153407
vt 0.450564 0.699706
vt 0.453513 0.688095
vt 0.472103 0.689417
vt 0.469863 0.699876
vt 0.583814 0.132619
vt 0.584414 0.144966
vt 0.567200 0.142695
vt 0.566824 0.131618
vt 0.584142 0.120331
vt 0.566851 0.120607
vt 0.770432 0.201884
vt 0.715450 0.202529
vt 0.309883 0.756855
vt 0.317295 0.776769
vt 0.958369 0.526437
vt 0.957225 0.512930
vt 0.982827 0.507758
vt 0.984163 0.524070
vt 0.959034 0.551900
vt 0.959183 0.538993
vt 0.985347 0.541255
vt 0.986108 0.558117
vt 0.833166 0.938066
vt 0.847830 0.938166
vt 0.844205 0.966554
vt 0.829151 0.966229
vt 0.955332 0.498230
vt 0.981615 0.492114
vt 0.279785 0.584480
vt 0.274129 0.569498
vt 0.347724 0.570665
vt 0.353379 0.585647
vt 0.486491 0.938155
vt 0.486342 0.908669
vt 0.513232 0.933821
vt 0.563027 0.954059
vt 0.448375 0.711791
vt 0.468172 0.710967
vt 0.452143 0.748648
vt 0.471407 0.744631
vt 0.585366 0.108537
vt 0.567357 0.110031
vt 0.619153 0.280883
vt 0.620463 0.251104
vt 0.754974 0.881221
vt 0.765120 0.868736
vt 0.787854 0.866060
vt 0.769950 0.857871
vt 0.872981 0.907543
vt 0.856180 0.881083
vt 0.874879 0.870117
vt 0.887440 0.892183
vt 0.806452 0.877158
vt 0.814420 0.820078
vt 0.838753 0.821903
vt 0.896018 0.927445
vt 0.905589 0.907655
vt 0.894336 0.863780
vt 0.920416 0.856018
vt 0.926048 0.866335
vt 0.911030 0.871706
vt 0.898797 0.878926
vt 0.924871 0.882191
vt 0.910710 0.888527
vt 0.861649 0.819851
vt 0.880571 0.817379
vt 0.739721 0.885343
vt 0.838807 0.791461
vt 0.857631 0.791346
vt 0.901456 0.812930
vt 0.876539 0.789294
vt 0.895487 0.785298
vt 0.774402 0.810573
vt 0.796816 0.815851
vt 0.858095 0.778685
vt 0.874064 0.776756
vt 0.800596 0.786987
vt 0.784407 0.769513
vt 0.803593 0.772537
vt 0.781304 0.782891
vt 0.819685 0.790011
vt 0.908504 0.452632
vt 0.924209 0.452016
vt 0.927445 0.411606
vt 0.925997 0.433129
vt 0.910569 0.432415
vt 0.820739 0.775589
vt 0.840279 0.778212
vt 0.891742 0.772072
vt 0.822939 0.424945
vt 0.822271 0.439858
vt 0.809952 0.438033
vt 0.810421 0.423877
vt 0.821923 0.385446
vt 0.824499 0.399111
vt 0.812304 0.399914
vt 0.809666 0.387133
vt 0.927267 0.392004
vt 0.909865 0.393489
vt 0.819207 0.371325
vt 0.925550 0.374541
vt 0.907722 0.373638
vt 0.902477 0.118384
vt 0.913477 0.122512
vt 0.903968 0.129510
vt 0.704096 0.591265
vt 0.714783 0.586384
vt 0.714549 0.597737
vt 0.825688 0.413248
vt 0.813567 0.413288
vt 0.806787 0.373986
vt 0.819195 0.453838
vt 0.806787 0.451030
vt 0.680106 0.913561
vt 0.670719 0.894341
vt 0.705956 0.880282
vt 0.712345 0.893847
vt 0.849674 0.076896
vt 0.872445 0.080090
vt 0.854509 0.115931
vt 0.837558 0.113727
vt 0.651696 0.899921
vt 0.649397 0.876474
vt 0.660032 0.873418
vt 0.854809 0.057852
vt 0.876886 0.060349
vt 0.875158 0.071682
vt 0.852045 0.068763
vt 0.661544 0.918957
vt 0.672530 0.916734
vt 0.834820 0.049920
vt 0.831767 0.060871
vt 0.559036 0.208441
vt 0.559036 0.191625
vt 0.565853 0.188451
vt 0.565853 0.222084
vt 0.572669 0.202093
vt 0.572669 0.218910
vt 0.829679 0.069593
vt 0.823059 0.108259
vt 0.707185 0.610967
vt 0.715152 0.606059
vt 0.720725 0.643962
vt 0.715629 0.649491
vt 0.903996 0.137971
vt 0.912262 0.142353
vt 0.904772 0.180181
vt 0.899368 0.174952
vt 0.668091 0.871319
vt 0.704128 0.863769
vt 0.848073 0.011504
vt 0.861851 0.017963
vt 0.857356 0.043894
vt 0.838252 0.037885
vt 0.622363 0.919064
vt 0.615171 0.906021
vt 0.637568 0.902185
vt 0.646683 0.919064
vt 0.877162 0.018984
vt 0.877162 0.045734
vt 0.616738 0.893851
vt 0.639767 0.882590
vt 0.706933 0.550791
vt 0.720725 0.547264
vt 0.716919 0.571463
vt 0.703226 0.576919
vt 0.833377 0.036372
vt 0.827690 0.020697
vt 0.910525 0.105573
vt 0.900264 0.102457
vt 0.907264 0.082264
vt 0.913477 0.085972
vt 0.912046 0.110378
vt 0.896280 0.108624
vt 0.627844 0.871746
vt 0.642314 0.875756
vt 0.011956 0.357569
vt 0.015872 0.342237
vt 0.037480 0.346754
vt 0.036862 0.357569
vt 0.061231 0.356241
vt 0.060625 0.349031
vt 0.067835 0.348425
vt 0.068441 0.355635
vt 0.645679 0.855328
vt 0.652619 0.857197
vt 0.816231 0.046821
vt 0.813971 0.039849
vt 0.662372 0.897079
vt 0.705744 0.602423
vt 0.860933 0.187476
vt 0.840737 0.141555
vt 0.859657 0.140116
vt 0.874368 0.153016
vt 0.874368 0.174431
vt 0.107020 0.016687
vt 0.125952 0.015595
vt 0.127419 0.042839
vt 0.108125 0.046093
vt 0.089253 0.016980
vt 0.089253 0.044116
vt 0.252965 0.581157
vt 0.234749 0.572553
vt 0.246296 0.562126
vt 0.261338 0.560959
vt 0.264597 0.610611
vt 0.249555 0.611778
vt 0.253160 0.593593
vt 0.276143 0.600184
vt 0.236763 0.603240
vt 0.231108 0.588257
vt 0.957187 0.566262
vt 0.985847 0.574066
vt 0.349738 0.601351
vt 0.338191 0.611778
vt 0.334932 0.562126
vt 0.760800 0.038084
vt 0.763009 0.048872
vt 0.725626 0.053928
vt 0.722928 0.041942
vt 0.763970 0.027886
vt 0.726360 0.030117
vt 0.926584 0.537125
vt 0.926401 0.525407
vt 0.925342 0.559938
vt 0.926322 0.548855
vt 0.769774 0.057336
vt 0.733338 0.062073
vt 0.771008 0.019875
vt 0.734508 0.022236
vt 0.925968 0.514216
vt 0.925342 0.503367
vt 0.833535 0.908178
vt 0.843995 0.907086
vt 0.666381 0.047953
vt 0.669500 0.059323
vt 0.660080 0.063855
vt 0.657030 0.046841
vt 0.669107 0.036468
vt 0.661856 0.031064
vt 0.678167 0.027063
vt 0.671874 0.019875
vt 0.677707 0.069249
vt 0.669234 0.076821
vt 0.755624 0.966554
vt 0.756984 0.955510
vt 0.490685 0.963760
vt 0.564289 0.963760
vt 0.807489 0.934209
vt 0.910531 0.412972
vt 0.315540 0.370506
vt 0.269747 0.453016
vt 0.530398 0.561882
vt 0.507776 0.561023
vt 0.499731 0.507477
vt 0.546726 0.515237
vt 0.465454 0.568497
vt 0.439987 0.532310
vt 0.506849 0.655078
vt 0.504331 0.618711
vt 0.563853 0.620513
vt 0.571045 0.645824
vt 0.106739 0.744644
vt 0.114379 0.720374
vt 0.141799 0.726841
vt 0.124987 0.767560
vt 0.097062 0.771666
vt 0.092374 0.753179
vt 0.555804 0.598523
vt 0.602029 0.608052
vt 0.445416 0.655078
vt 0.452621 0.605134
vt 0.509029 0.596986
vt 0.498585 0.601443
vt 0.495868 0.612390
vt 0.534605 0.609429
vt 0.521103 0.598536
vt 0.547720 0.547025
vt 0.568314 0.574470
vt 0.398879 0.586229
vt 0.388990 0.653852
vt 0.076769 0.774649
vt 0.011704 0.784216
vt 0.017543 0.725325
vt 0.067089 0.741165
vt 0.148024 0.748545
vt 0.146260 0.764432
vt 0.086646 0.734079
vt 0.097771 0.724224
vt 0.189120 0.758131
vt 0.159659 0.762462
vt 0.175331 0.721370
vt 0.621335 0.641099
vt 0.205323 0.755749
vt 0.191777 0.720809
vt 0.639942 0.597123
vt 0.655078 0.634069
vt 0.142098 0.700149
vt 0.075255 0.700149
vt 0.054928 0.081949
vt 0.042804 0.079352
vt 0.043321 0.070311
vt 0.056300 0.070407
vt 0.078218 0.083805
vt 0.067259 0.082928
vt 0.068263 0.075696
vt 0.226914 0.446140
vt 0.239844 0.451480
vt 0.250019 0.469309
vt 0.217171 0.469309
vt 0.208352 0.459976
vt 0.214104 0.448229
vt 0.029713 0.080417
vt 0.011904 0.083805
vt 0.029728 0.073620
vt 0.603171 0.588725
vt 0.635813 0.586108
vt 0.913053 0.133629
vt 0.074011 0.676029
vt 0.073342 0.605636
vt 0.013057 0.664598
vt 0.020300 0.606376
vt 0.775190 0.467913
vt 0.716546 0.454390
vt 0.722917 0.407250
vt 0.775444 0.411049
vt 0.544288 0.303683
vt 0.519140 0.281482
vt 0.533970 0.224229
vt 0.562892 0.252645
vt 0.011241 0.137991
vt 0.046116 0.120551
vt 0.077822 0.172299
vt 0.030430 0.185272
vt 0.517294 0.301574
vt 0.715697 0.282041
vt 0.719107 0.301163
vt 0.722794 0.334481
vt 0.012019 0.546091
vt 0.076284 0.562557
vt 0.782043 0.359943
vt 0.021711 0.504765
vt 0.033633 0.482746
vt 0.070616 0.499163
vt 0.077267 0.536197
vt 0.558012 0.920751
vt 0.567794 0.901550
vt 0.589993 0.908558
vt 0.585937 0.930238
vt 0.536439 0.898839
vt 0.552074 0.884291
vt 0.710490 0.256368
vt 0.038923 0.449142
vt 0.087522 0.457811
vt 0.504063 0.258763
vt 0.442591 0.327036
vt 0.472971 0.308398
vt 0.462688 0.294870
vt 0.475984 0.269202
vt 0.490613 0.300042
vt 0.135466 0.190063
vt 0.194815 0.205892
vt 0.245218 0.207340
vt 0.028506 0.417738
vt 0.083413 0.397644
vt 0.080689 0.418024
vt 0.752632 0.310086
vt 0.033668 0.013875
vt 0.031726 0.033691
vt 0.013690 0.028654
vt 0.016097 0.011374
vt 0.093362 0.433842
vt 0.699470 0.228570
vt 0.102069 0.185772
vt 0.166114 0.166616
vt 0.208077 0.178600
vt 0.132528 0.148777
vt 0.245623 0.182619
vt 0.468120 0.244968
vt 0.397243 0.216162
vt 0.409894 0.192272
vt 0.492065 0.227816
vt 0.395790 0.327099
vt 0.381993 0.307226
vt 0.349438 0.276042
vt 0.366859 0.255098
vt 0.413720 0.291462
vt 0.197364 0.103927
vt 0.219100 0.119918
vt 0.084935 0.108417
vt 0.162270 0.060761
vt 0.178503 0.084188
vt 0.106043 0.129666
vt 0.244045 0.133605
vt 0.447460 0.269509
vt 0.311464 0.218366
vt 0.320028 0.200958
vt 0.382647 0.236275
vt 0.327450 0.183217
vt 0.334910 0.164508
vt 0.300764 0.236013
vt 0.253147 0.053200
vt 0.266799 0.068160
vt 0.231763 0.018713
vt 0.241811 0.036720
vt 0.283303 0.081427
vt 0.269650 0.146600
vt 0.419944 0.165177
vt 0.508025 0.190924
vt 0.292435 0.186271
vt 0.303311 0.172601
vt 0.282078 0.200291
vt 0.315388 0.153768
vt 0.326674 0.159995
vt 0.283016 0.226503
vt 0.270030 0.037920
vt 0.284561 0.046676
vt 0.248958 0.011142
vt 0.301378 0.092615
vt 0.341691 0.144474
vt 0.742255 0.690788
vt 0.734491 0.670907
vt 0.745108 0.670460
vt 0.811063 0.492935
vt 0.811675 0.527778
vt 0.790104 0.527077
vt 0.793798 0.492796
vt 0.827988 0.496343
vt 0.833009 0.527449
vt 0.771552 0.515320
vt 0.772037 0.496929
vt 0.849674 0.502606
vt 0.849945 0.511788
vt 0.744333 0.730797
vt 0.724160 0.731657
vt 0.722577 0.709992
vt 0.742411 0.711006
vt 0.300095 0.054212
vt 0.309386 0.074804
vt 0.323493 0.137599
vt 0.257860 0.026090
vt 0.719907 0.690257
vt 0.664927 0.690130
vt 0.657020 0.670460
vt 0.718065 0.671810
vt 0.816050 0.591790
vt 0.794817 0.589621
vt 0.837285 0.589357
vt 0.774119 0.584387
vt 0.770760 0.526042
vt 0.851638 0.526026
vt 0.857607 0.583108
vt 0.672736 0.728498
vt 0.670611 0.709174
vt 0.754248 0.499332
vt 0.746818 0.750437
vt 0.723755 0.752965
vt 0.750057 0.770389
vt 0.722051 0.772405
vt 0.531552 0.728569
vt 0.511700 0.725725
vt 0.512730 0.714233
vt 0.532730 0.716016
vt 0.798755 0.709243
vt 0.802275 0.727080
vt 0.791838 0.727709
vt 0.787002 0.709131
vt 0.529838 0.691325
vt 0.510540 0.691496
vt 0.508299 0.681036
vt 0.526889 0.679714
vt 0.823063 0.710719
vt 0.824065 0.727709
vt 0.812987 0.727333
vt 0.810716 0.710119
vt 0.835351 0.710392
vt 0.835075 0.727682
vt 0.753153 0.579083
vt 0.753798 0.524101
vt 0.670520 0.748475
vt 0.663107 0.768388
vt 0.961163 0.775794
vt 0.986956 0.778161
vt 0.985620 0.794473
vt 0.960019 0.789301
vt 0.961827 0.750331
vt 0.988902 0.744114
vt 0.988140 0.760976
vt 0.961976 0.763238
vt 0.169851 0.929542
vt 0.198014 0.925527
vt 0.198339 0.940581
vt 0.169952 0.944206
vt 0.984409 0.810117
vt 0.958126 0.804001
vt 0.646907 0.513246
vt 0.573313 0.514413
vt 0.578968 0.499430
vt 0.652562 0.498263
vt 0.935361 0.011594
vt 0.951265 0.088131
vt 0.931028 0.038335
vt 0.905876 0.011446
vt 0.532027 0.703411
vt 0.512230 0.702587
vt 0.528259 0.740268
vt 0.508995 0.736251
vt 0.847145 0.709167
vt 0.845650 0.727176
vt 0.745093 0.251104
vt 0.746403 0.280883
vt 0.565428 0.871529
vt 0.575575 0.884015
vt 0.542694 0.868853
vt 0.560599 0.860664
vt 0.457567 0.910336
vt 0.443108 0.894977
vt 0.455669 0.872911
vt 0.474368 0.883876
vt 0.491795 0.824696
vt 0.516128 0.822872
vt 0.524096 0.879952
vt 0.434530 0.930238
vt 0.424959 0.910449
vt 0.436212 0.866573
vt 0.431751 0.881719
vt 0.419518 0.874499
vt 0.404500 0.869128
vt 0.410132 0.858811
vt 0.419838 0.891321
vt 0.405677 0.884985
vt 0.449977 0.820173
vt 0.468899 0.822645
vt 0.590827 0.888137
vt 0.472917 0.794140
vt 0.491741 0.794254
vt 0.429092 0.815723
vt 0.435061 0.788092
vt 0.454009 0.792088
vt 0.533732 0.818645
vt 0.556146 0.813367
vt 0.456484 0.779550
vt 0.472453 0.781479
vt 0.529952 0.789780
vt 0.526955 0.775331
vt 0.546141 0.772307
vt 0.549244 0.785685
vt 0.510864 0.792804
vt 0.921334 0.326658
vt 0.903353 0.328237
vt 0.904929 0.307300
vt 0.924651 0.269332
vt 0.907776 0.248522
vt 0.923204 0.247809
vt 0.509809 0.778383
vt 0.490269 0.781005
vt 0.438806 0.774866
vt 0.820145 0.255993
vt 0.807627 0.257060
vt 0.807159 0.242905
vt 0.819478 0.241080
vt 0.819130 0.295492
vt 0.806873 0.293805
vt 0.809511 0.281024
vt 0.821706 0.281827
vt 0.924473 0.288934
vt 0.907071 0.287448
vt 0.921415 0.228922
vt 0.905710 0.228305
vt 0.921035 0.207776
vt 0.922757 0.306397
vt 0.888509 0.558897
vt 0.890001 0.547771
vt 0.899510 0.554769
vt 0.275599 0.637052
vt 0.282071 0.647505
vt 0.270717 0.647739
vt 0.822894 0.267689
vt 0.810774 0.267650
vt 0.816414 0.309612
vt 0.803994 0.306952
vt 0.803994 0.229908
vt 0.816401 0.227099
vt 0.877592 0.658584
vt 0.897307 0.626345
vt 0.910871 0.632734
vt 0.896813 0.667971
vt 0.076896 0.899957
vt 0.113727 0.887841
vt 0.115931 0.904792
vt 0.080090 0.922728
vt 0.891232 0.686994
vt 0.917735 0.678657
vt 0.914679 0.689293
vt 0.057852 0.905092
vt 0.068763 0.902328
vt 0.071682 0.925441
vt 0.060349 0.927170
vt 0.872196 0.677146
vt 0.874420 0.666160
vt 0.049920 0.885103
vt 0.060871 0.882050
vt 0.315991 0.011508
vt 0.329634 0.018325
vt 0.296001 0.018325
vt 0.299175 0.011508
vt 0.326460 0.025142
vt 0.309643 0.025142
vt 0.069593 0.879962
vt 0.108259 0.873342
vt 0.295300 0.640141
vt 0.333824 0.648585
vt 0.328295 0.653681
vt 0.290393 0.648107
vt 0.890028 0.539310
vt 0.885400 0.502329
vt 0.890804 0.497100
vt 0.898295 0.534928
vt 0.927384 0.634561
vt 0.919834 0.670599
vt 0.011504 0.898356
vt 0.037885 0.888535
vt 0.043894 0.907639
vt 0.017963 0.912134
vt 0.872089 0.716326
vt 0.872089 0.692006
vt 0.888969 0.701121
vt 0.885132 0.723519
vt 0.045734 0.927445
vt 0.018984 0.927445
vt 0.908563 0.698922
vt 0.897302 0.721952
vt 0.235124 0.639889
vt 0.261252 0.636181
vt 0.255797 0.649875
vt 0.231598 0.653681
vt 0.020697 0.877973
vt 0.036372 0.883660
vt 0.896557 0.571708
vt 0.899510 0.591309
vt 0.893297 0.595017
vt 0.886296 0.574824
vt 0.898079 0.566904
vt 0.882312 0.568657
vt 0.915397 0.696376
vt 0.919408 0.710846
vt 0.336650 0.360363
vt 0.336650 0.335456
vt 0.347465 0.334839
vt 0.351982 0.356446
vt 0.337978 0.311087
vt 0.338584 0.303877
vt 0.345794 0.304483
vt 0.345188 0.311693
vt 0.933956 0.686071
vt 0.935825 0.693010
vt 0.039849 0.864254
vt 0.046821 0.866514
vt 0.894074 0.676317
vt 0.286757 0.638699
vt 0.842238 0.188562
vt 0.826455 0.174089
vt 0.826889 0.154528
vt 0.071487 0.016687
vt 0.070381 0.046093
vt 0.051088 0.042839
vt 0.052554 0.015595
vt 0.673727 0.509923
vt 0.665354 0.489725
vt 0.680395 0.490892
vt 0.691942 0.501319
vt 0.662095 0.539377
vt 0.650548 0.528950
vt 0.673531 0.522358
vt 0.677137 0.540544
vt 0.695584 0.517023
vt 0.689928 0.532005
vt 0.959980 0.735969
vt 0.988640 0.728165
vt 0.588501 0.540544
vt 0.576954 0.530117
vt 0.591760 0.490892
vt 0.685375 0.817050
vt 0.647503 0.813192
vt 0.650202 0.801206
vt 0.687584 0.806263
vt 0.688545 0.827248
vt 0.650936 0.825017
vt 0.929378 0.765106
vt 0.929194 0.776824
vt 0.928136 0.742293
vt 0.929115 0.753376
vt 0.657913 0.793061
vt 0.694349 0.797798
vt 0.695584 0.835259
vt 0.659084 0.832898
vt 0.928761 0.788015
vt 0.928136 0.798864
vt 0.139964 0.929911
vt 0.138871 0.940371
vt 0.590957 0.807181
vt 0.581605 0.808293
vt 0.584656 0.791280
vt 0.594076 0.795812
vt 0.593682 0.818666
vt 0.586432 0.824070
vt 0.602742 0.828071
vt 0.596449 0.835259
vt 0.593809 0.778313
vt 0.602282 0.785885
vt 0.187295 0.853360
vt 0.198339 0.852000
vt 0.960967 0.015789
vt 0.960967 0.089392
vt 0.165994 0.903865
vt 0.903255 0.207438
vt 0.907737 0.267966
vt 0.315666 0.061795
vt 0.269812 0.219505
vt 0.512240 0.104825
vt 0.528568 0.151470
vt 0.481573 0.159230
vt 0.489618 0.105684
vt 0.421829 0.134398
vt 0.447296 0.098210
vt 0.488692 0.011629
vt 0.552888 0.020883
vt 0.545695 0.046194
vt 0.486173 0.047996
vt 0.114107 0.794759
vt 0.152807 0.801717
vt 0.128409 0.815803
vt 0.097893 0.790720
vt 0.537647 0.068184
vt 0.583871 0.058655
vt 0.427259 0.011629
vt 0.477710 0.054317
vt 0.480427 0.065265
vt 0.490872 0.069721
vt 0.434463 0.061573
vt 0.502945 0.068171
vt 0.516447 0.057278
vt 0.529562 0.119682
vt 0.550156 0.092238
vt 0.380721 0.080478
vt 0.370832 0.012855
vt 0.077136 0.809503
vt 0.034246 0.838933
vt 0.152522 0.779139
vt 0.111396 0.816896
vt 0.097905 0.810660
vt 0.186496 0.797305
vt 0.603178 0.025608
vt 0.202407 0.793108
vt 0.621784 0.069584
vt 0.636920 0.032638
vt 0.160777 0.827194
vt 0.096762 0.846433
vt 0.347333 0.091244
vt 0.335790 0.092615
vt 0.335695 0.079637
vt 0.344736 0.079120
vt 0.349189 0.114534
vt 0.341080 0.104578
vt 0.348311 0.103575
vt 0.245072 0.519593
vt 0.235329 0.496423
vt 0.268177 0.496423
vt 0.258002 0.514252
vt 0.226510 0.505756
vt 0.232262 0.517503
vt 0.345801 0.066029
vt 0.339004 0.066044
vt 0.349189 0.048220
vt 0.617655 0.080599
vt 0.585013 0.077982
vt 0.899085 0.543652
vt 0.568010 0.329061
vt 0.797547 0.329061
vt 0.378656 0.827968
vt 0.375453 0.872594
vt 0.333046 0.872594
vt 0.334907 0.823076
vt 0.356999 0.792603
vt 0.398075 0.798303
vt 0.378656 0.917221
vt 0.334907 0.922113
vt 0.398075 0.946886
vt 0.356998 0.952586
vt 0.307271 0.936794
vt 0.289881 0.922445
vt 0.289882 0.822743
vt 0.307272 0.808395
vt 0.287031 0.872594
vt 0.235640 0.911309
vt 0.224233 0.881836
vt 0.235643 0.833879
vt 0.924128 0.354280
vt 0.906146 0.352701
vt 0.923828 0.473162
vt 0.906049 0.473500
s 1
usemtl Character_Female_13.005
f 22/1/1 23/2/2 2/3/3 1/4/4
f 1/4/4 2/3/3 4/5/5 3/6/6
f 3/7/6 4/8/5 6/9/7 5/10/8
f 1/11/4 3/12/6 8/13/9 7/14/10
f 3/15/6 5/16/8 9/17/11 8/18/9
f 22/19/1 1/11/4 211/20/12 24/21/13
f 40/22/14 127/23/15 128/24/16 33/25/17
f 30/26/18 6/9/7 12/27/19 32/28/20
f 4/5/5 2/3/3 10/29/21 11/30/22
f 6/9/7 4/8/5 11/31/22 12/27/19
f 38/32/23 37/33/24 13/34/25 14/35/26
f 17/36/27 18/37/28 132/38/29 133/39/30
f 14/40/26 17/36/27 133/39/30 129/41/31
f 33/25/17 128/24/16 126/42/32 34/43/33
f 14/35/26 13/34/25 16/44/34 17/45/27
f 7/14/10 8/13/9 209/46/35
f 52/47/36 51/48/37 19/49/38 28/50/39
f 51/48/37 47/51/40 208/52/41 210/53/42
f 13/34/25 26/54/43 27/55/44 16/44/34
f 37/33/24 39/56/45 26/54/43 13/34/25
f 2/3/3 23/2/2 25/57/46 10/29/21
f 50/58/47 53/59/48 35/60/49 21/61/50
f 5/16/8 29/62/51 31/63/52 9/17/11
f 5/10/8 6/9/7 30/26/18 29/64/51
f 35/60/49 54/65/53 20/66/54 21/61/50
f 18/67/28 17/45/27 41/68/55 43/69/56
f 10/29/21 25/57/46 39/56/45 37/33/24
f 11/31/22 36/70/57 12/27/19
f 11/30/22 10/29/21 37/33/24 38/32/23
f 32/28/20 12/27/19 127/23/15 40/22/14
f 42/71/58 45/72/59 216/73/60 213/74/61
f 16/44/34 27/55/44 45/75/59 42/76/58
f 34/43/33 126/42/32 43/77/56 44/78/62
f 17/45/27 16/44/34 42/76/58 41/68/55
f 9/17/11 31/63/52 49/79/63 46/80/64
f 50/58/47 21/61/50 60/81/65 61/82/66
f 24/21/13 211/20/12 47/51/40 48/83/67
f 46/80/64 50/58/47 64/84/68
f 46/80/64 49/79/63 53/59/48 50/58/47
f 47/51/40 7/14/10 209/46/35 208/52/41
f 48/83/67 47/51/40 51/48/37 52/47/36
f 21/61/50 20/66/54 59/85/69 60/81/65
f 66/86/70 55/87/71 67/88/72 78/89/73
f 20/90/54 54/91/53 28/50/39 19/49/38
f 59/92/69 58/93/74 70/94/75 71/95/76
f 64/84/68 61/82/66 73/96/77 76/97/78
f 56/98/79 57/99/80 69/100/81 68/101/82
f 61/82/66 60/81/65 72/102/83 73/96/77
f 57/99/80 64/84/68 76/97/78 69/100/81
f 9/17/11 64/84/68 57/99/80
f 20/90/54 19/49/38 58/93/74 59/92/69
f 19/49/38 210/53/42 63/103/84 58/93/74
f 70/94/75 75/104/85 85/105/86 80/106/87
f 78/89/73 67/88/72 65/107/88 88/108/89
f 71/95/76 70/94/75 80/106/87 81/109/90
f 76/97/78 73/96/77 83/110/91 86/111/92
f 68/101/82 69/100/81 79/112/93 62/113/94
f 73/96/77 72/102/83 82/114/95 83/110/91
f 58/93/74 63/103/84 75/104/85 70/94/75
f 63/103/84 66/86/70 78/89/73 75/104/85
f 60/81/65 59/85/69 71/115/76 72/102/83
f 55/87/71 56/116/79 68/117/82 67/88/72
f 85/105/86 88/108/89 98/118/96 95/119/97
f 80/106/87 85/105/86 95/119/97 90/120/98
f 88/108/89 251/121/99 77/122/100 98/118/96
f 81/109/90 80/106/87 253/123/101
f 86/111/92 83/110/91 93/124/102 96/125/103
f 62/113/94 79/112/93 74/126/104
f 75/104/85 78/89/73 88/108/89 85/105/86
f 72/102/83 71/115/76 81/127/90 82/114/95
f 67/88/72 68/117/82 62/128/94 65/107/88
f 69/100/81 76/97/78 86/111/92 79/112/93
f 92/129/105 91/130/106 254/131/107
f 95/132/97 98/133/96 108/134/108 105/135/109
f 90/136/98 95/132/97 105/135/109 100/137/110
f 98/133/96 77/138/100 252/139/111 108/134/108
f 91/140/106 90/136/98 100/137/110 254/141/107
f 96/142/103 93/143/102 103/144/112 106/145/113
f 82/114/95 81/127/90 253/146/101 92/147/105
f 65/107/88 62/128/94 74/148/104 251/121/99
f 79/112/93 86/111/92 96/125/103 89/149/114
f 83/110/91 92/147/105 93/124/102
f 102/150/115 101/151/116 111/152/117 112/153/118
f 105/135/109 108/134/108 116/154/119 114/155/120
f 100/137/110 105/135/109 114/155/120 110/156/121
f 108/134/108 87/157/122 97/158/123 116/154/119
f 101/159/116 100/137/110 110/156/121 111/160/117
f 106/145/113 103/144/112 113/161/124 115/162/125
f 77/138/100 74/163/104 252/139/111
f 89/164/114 96/142/103 106/145/113 99/165/126
f 93/143/102 92/129/105 103/144/112
f 74/166/104 99/165/126 84/167/127
f 608/168/128 604/169/129 123/170/130 117/171/131
f 603/172/132 600/173/133 104/174/134 107/175/135
f 605/176/136 601/177/137 119/178/138 120/179/139
f 602/180/140 607/181/141 124/182/142 122/183/143
f 606/184/144 602/180/140 122/183/143 118/185/145
f 607/181/141 603/172/132 107/175/135 124/182/142
f 87/157/122 84/186/127 94/187/146 97/158/123
f 99/165/126 106/145/113 115/162/125 109/188/147
f 103/144/112 102/150/115 112/153/118 113/161/124
f 84/167/127 99/165/126 109/188/147 94/189/146
f 235/190/148 231/191/149 222/192/150 223/193/151
f 234/194/152 233/195/153 226/196/154 219/197/155
f 229/198/156 230/199/157 218/200/158 217/201/159
f 231/191/149 232/202/160 221/203/161 222/192/150
f 225/204/162 220/205/162 249/206/163 248/207/164
f 232/208/160 119/209/138 237/210/165 242/211/166
f 609/212/167 605/176/136 120/179/139 121/213/168
f 600/214/133 608/168/128 117/171/131 104/215/134
f 604/169/129 609/212/167 121/213/168 123/170/130
f 601/216/137 606/184/144 118/185/145 119/217/138
f 55/87/71 8/13/9 56/116/79
f 126/42/32 15/218/169 18/219/28
f 43/77/56 126/42/32 18/219/28
f 15/218/169 127/23/15 36/70/57
f 127/23/15 12/27/19 36/70/57
f 126/42/32 128/24/16 15/218/169
f 128/24/16 127/23/15 15/218/169
f 129/41/31 133/39/30 139/220/170 135/221/171
f 134/222/172 129/41/31 135/221/171 140/223/173
f 15/224/169 36/225/57 130/226/174 131/227/175
f 36/225/57 38/228/23 141/229/176 142/230/177
f 18/231/28 15/224/169 131/227/175 132/232/29
f 38/228/23 14/40/26 129/41/31 134/222/172
f 136/233/178 140/234/173 135/235/171 125/236/179 137/237/180
f 137/237/180 125/236/179 135/235/171 139/238/170 138/239/181
f 131/227/175 130/226/174 136/233/178 137/237/180
f 136/233/178 130/226/174 145/240/182 146/241/183
f 132/232/29 131/227/175 137/237/180 138/239/181
f 133/39/30 132/38/29 138/242/181 139/220/170
f 145/240/182 142/230/177 148/243/184 151/244/185
f 143/245/186 146/241/183 152/246/187 149/247/188
f 134/222/172 140/223/173 143/248/186 144/249/189
f 38/228/23 134/222/172 144/249/189 141/229/176
f 130/226/174 36/225/57 142/230/177 145/240/182
f 140/234/173 136/233/178 146/241/183 143/245/186
f 152/246/187 151/244/185 157/250/190 158/251/191
f 150/252/192 155/253/193 156/254/194
f 144/249/189 143/248/186 149/255/188 150/252/192
f 146/241/183 145/240/182 151/244/185 152/246/187
f 141/229/176 144/249/189 150/252/192 147/256/195
f 142/230/177 141/229/176 147/256/195 148/243/184
f 161/257/196 156/258/194 621/258/197 624/257/198
f 154/259/199 153/260/200 159/261/201
f 147/256/195 150/252/192 156/254/194 153/262/200
f 148/243/184 147/256/195 154/263/199
f 149/247/188 152/246/187 155/264/193
f 151/244/185 154/263/199 157/250/190
f 566/265/202 564/266/203 167/267/204 164/268/205
f 565/269/206 563/270/207 168/271/208 169/272/209
f 157/273/190 154/259/199 162/274/210
f 565/269/206 568/275/211 626/275/212 627/269/213
f 158/276/191 157/273/190 162/274/210 163/277/214
f 153/260/200 156/258/194 161/257/196 159/261/201
f 205/278/215 203/279/216 170/280/217
f 204/281/218 202/282/219 174/283/220
f 567/284/221 566/265/202 164/268/205 165/285/222
f 568/275/211 565/269/206 169/272/209 166/286/223
f 563/270/207 567/284/221 165/285/222 168/271/208
f 564/266/203 568/287/211 166/288/223 167/267/204
f 199/289/224 198/290/225 177/291/226 180/292/227
f 197/293/228 196/294/229 181/295/230 178/296/231
f 206/297/232 205/298/215 170/299/217
f 207/300/233 204/301/218 175/302/234 172/303/235
f 202/304/219 206/297/232 174/305/220
f 203/306/216 207/300/233 172/303/235 173/307/236
f 177/308/226 176/309/237 179/310/238 180/311/227
f 180/311/227 179/310/238 178/312/231 181/313/230
f 200/314/239 197/293/228 178/296/231 179/315/238
f 196/316/229 199/317/224 180/318/227 181/319/230
f 201/320/240 200/321/239 179/322/238 176/323/237
f 198/290/225 201/324/240 176/325/237 177/291/226
f 167/326/204 166/327/223 187/328/241 184/329/242
f 168/330/208 165/331/222 186/332/243 182/333/244
f 166/327/223 169/334/209 183/335/245 187/328/241
f 165/331/222 164/336/205 185/337/246 186/332/243
f 169/338/209 168/339/208 182/340/244 183/341/245
f 167/326/204 184/329/242 191/342/247 189/343/248
f 191/344/247 190/345/249 194/346/250 195/347/251
f 184/348/242 185/349/246 190/345/249 191/344/247
f 185/337/246 164/336/205 188/350/252 190/351/249
f 164/352/205 167/353/204 189/354/248 188/355/252
f 192/356/253 193/357/254 195/358/251 194/359/250
f 190/351/249 188/350/252 192/360/253 194/361/250
f 189/343/248 191/342/247 195/362/251 193/363/254
f 188/355/252 189/354/248 193/357/254 192/356/253
f 171/364/255 170/299/217 198/290/225
f 170/280/217 200/321/239 201/320/240
f 175/365/234 174/283/220 196/316/229
f 173/307/236 172/303/235 197/293/228 200/314/239
f 172/303/235 175/302/234 196/294/229 197/293/228
f 174/305/220 198/290/225 199/289/224
f 184/329/242 187/328/241 207/300/233 203/306/216
f 182/333/244 186/332/243 206/297/232 202/304/219
f 187/328/241 183/335/245 204/301/218 207/300/233
f 186/332/243 185/337/246 205/298/215 206/297/232
f 183/341/245 182/340/244 202/282/219 204/281/218
f 185/349/246 184/348/242 203/279/216 205/278/215
f 63/103/84 208/52/41 66/86/70
f 209/46/35 8/13/9 55/87/71
f 208/52/41 209/46/35 66/86/70
f 210/53/42 208/52/41 63/103/84
f 210/53/42 19/49/38 51/48/37
f 66/86/70 209/46/35 55/87/71
f 64/84/68 50/58/47 61/82/66
f 64/84/68 9/17/11 46/80/64
f 56/98/79 9/17/11 57/99/80
f 211/20/12 1/11/4 7/14/10
f 47/51/40 211/20/12 7/14/10
f 216/366/256 215/367/257 214/368/258 212/369/259 213/370/260
f 43/371/56 41/372/55 212/373/259 214/374/258
f 44/375/62 43/371/56 214/374/258 215/376/261
f 41/372/55 42/71/58 213/74/61 212/373/259
f 8/18/9 9/17/11 56/98/79
f 227/377/162 223/378/151 222/379/150 221/380/161
f 225/204/162 227/377/162 221/380/161 220/205/162
f 217/381/159 218/382/158 224/383/162 228/384/162
f 218/382/158 219/385/155 226/386/154 224/383/162
f 228/384/162 224/383/162 227/377/162 225/204/162
f 224/383/162 226/386/154 223/378/151 227/377/162
f 230/387/157 234/194/152 219/197/155 218/388/158
f 233/195/153 235/190/148 223/193/151 226/196/154
f 217/381/159 228/384/162 245/389/262 250/390/263
f 220/205/162 221/380/161 243/391/264 249/206/163
f 122/392/143 124/393/142 241/394/265 240/395/266
f 118/396/145 122/392/143 240/395/266 236/397/267
f 123/398/130 121/399/168 235/190/148 233/195/153
f 104/400/134 117/401/131 234/194/152 230/387/157
f 124/393/142 107/402/135 239/403/268 241/394/265
f 119/404/138 118/396/145 236/397/267 237/405/165
f 120/406/139 119/407/138 232/202/160 231/191/149
f 107/408/135 104/409/134 230/199/157 229/198/156
f 117/401/131 123/398/130 233/195/153 234/194/152
f 121/399/168 120/406/139 231/191/149 235/190/148
f 247/410/269 244/411/270 245/412/262 248/413/164
f 246/414/271 247/410/269 248/413/164 249/415/163
f 242/416/166 246/414/271 249/415/163 243/417/264
f 244/411/270 238/418/272 250/419/263 245/412/262
f 241/394/265 239/403/268 238/418/272 244/411/270
f 237/405/165 236/397/267 246/414/271 242/416/166
f 236/397/267 240/395/266 247/410/269 246/414/271
f 240/395/266 241/394/265 244/411/270 247/410/269
f 228/384/162 225/204/162 248/207/164 245/389/262
f 229/198/156 217/201/159 250/420/263 238/421/272
f 221/422/161 232/208/160 242/211/166 243/423/264
f 107/408/135 229/198/156 238/421/272 239/424/268
f 155/253/193 150/252/192 149/255/188
f 158/276/191 163/277/214 622/277/273 625/276/274
f 155/264/193 152/246/187 158/251/191
f 155/264/193 158/251/191 625/251/274 620/264/275
f 154/263/199 151/244/185 148/243/184
f 162/274/210 154/259/199 160/425/276
f 154/263/199 147/256/195 153/262/200
f 159/261/201 160/425/276 154/259/199
f 251/121/99 74/148/104 77/122/100
f 251/121/99 88/108/89 65/107/88
f 252/139/111 74/163/104 84/186/127 87/157/122
f 108/134/108 252/139/111 87/157/122
f 74/126/104 79/112/93 89/149/114
f 99/165/126 74/166/104 89/164/114
f 92/147/105 253/146/101 91/426/106
f 253/123/101 80/106/87 90/120/98 91/427/106
f 254/141/107 100/137/110 101/159/116
f 254/131/107 101/151/116 102/150/115 92/129/105
f 92/147/105 83/110/91 82/114/95
f 103/144/112 92/129/105 102/150/115
f 255/428/277 258/429/278 264/430/279 215/431/280
f 258/429/281 256/432/282 259/433/283 264/430/279
f 269/434/284 266/435/285 277/436/286 276/437/287
f 261/438/288 285/439/289 273/440/290
f 265/441/291 282/442/292 296/443/293 261/438/288
f 262/444/294 278/445/295 277/436/286
f 269/434/284 268/446/296 266/435/285
f 266/435/285 263/447/297 256/432/282 258/429/281 288/448/298 289/449/299 290/450/300
f 262/444/294 287/451/301 291/452/302 255/428/277
f 255/428/277 215/431/280 214/453/303
f 262/444/294 255/428/277 214/453/303 212/454/304
f 267/455/305 259/433/283 256/432/282 263/447/297
f 270/456/306 267/455/305 263/447/297 268/446/296
f 260/457/307 270/458/306 268/459/296 257/460/308
f 265/441/291 283/461/309 275/462/310
f 261/438/288 281/463/311 286/464/312
f 272/465/313 284/466/314 283/461/309 273/440/290 271/467/315
f 274/468/316 276/437/287 277/436/286 278/445/295
f 280/469/317 272/465/313 271/467/315 274/470/316
f 279/471/318 280/472/317 274/468/316 278/445/295
f 271/467/315 273/440/290 276/473/287 274/470/316
f 269/474/284 257/460/308 268/459/296
f 269/474/284 281/463/311 257/460/308
f 283/461/309 284/466/314 275/462/310
f 283/461/309 261/438/288 273/440/290
f 285/439/289 276/473/287 273/440/290
f 285/439/289 286/464/312 269/474/284
f 286/464/312 285/439/289 261/438/288
f 286/464/312 281/463/311 269/474/284
f 266/435/285 268/446/296 263/447/297
f 289/475/299 288/476/298 292/477/319 294/478/320
f 266/479/285 290/480/300 295/481/321
f 255/428/277 291/452/302 288/448/298 258/429/278
f 292/482/319 293/483/322 287/484/301 266/485/285
f 295/486/321 294/487/320 292/482/319 266/485/285
f 291/488/302 287/489/301 293/490/322
f 290/480/300 289/475/299 294/478/320 295/481/321
f 288/476/298 291/488/302 293/490/322 292/477/319
f 277/436/286 266/435/285 287/451/301
f 287/451/301 262/444/294 277/436/286
f 279/471/318 278/445/295 213/491/323 216/492/324
f 278/445/295 262/444/294 213/491/323
f 283/461/309 265/441/291 261/438/288
f 296/443/293 257/460/308 281/463/311
f 261/438/288 296/443/293 281/463/311
f 296/443/293 260/457/307 257/460/308
f 296/443/293 282/442/292 260/457/307
f 170/280/217 203/279/216 173/493/236
f 200/321/239 170/280/217 173/493/236
f 170/299/217 171/364/255 206/297/232
f 198/290/225 170/299/217 201/324/240
f 174/305/220 206/297/232 171/364/255
f 198/290/225 174/305/220 171/364/255
f 174/283/220 175/365/234 204/281/218
f 196/316/229 174/283/220 199/317/224
f 213/491/323 262/444/294 212/454/304
f 22/1/1 297/494/325 298/495/326 23/2/2
f 297/494/325 299/496/327 300/497/328 298/495/326
f 299/498/327 301/499/329 302/500/330 300/501/328
f 297/502/325 303/503/331 304/504/332 299/505/327
f 299/506/327 304/507/332 305/508/333 301/509/329
f 22/19/1 24/21/13 485/510/334 297/502/325
f 40/22/14 33/25/17 401/511/335 400/512/336
f 30/26/18 32/28/20 308/513/337 302/500/330
f 300/497/328 307/514/338 306/515/339 298/495/326
f 302/500/330 308/513/337 307/516/338 300/501/328
f 320/517/340 310/518/341 309/519/342 319/520/343
f 313/521/344 406/522/345 405/523/346 314/524/347
f 310/525/341 402/526/348 406/522/345 313/521/344
f 33/25/17 34/43/33 399/527/349 401/511/335
f 310/518/341 313/528/344 312/529/350 309/519/342
f 303/503/331 483/530/351 304/504/332
f 52/47/36 28/50/39 315/531/352 327/532/353
f 327/532/353 484/533/354 482/534/355 325/535/356
f 309/519/342 312/529/350 27/55/44 26/54/43
f 319/520/343 309/519/342 26/54/43 39/56/45
f 298/495/326 306/515/339 25/57/46 23/2/2
f 326/536/357 317/537/358 35/60/49 53/59/48
f 301/509/329 305/508/333 31/63/52 29/62/51
f 301/499/329 29/64/51 30/26/18 302/500/330
f 35/60/49 317/537/358 316/538/359 54/65/53
f 314/539/347 323/540/360 321/541/361 313/528/344
f 306/515/339 319/520/343 39/56/45 25/57/46
f 318/542/362 307/516/338 308/513/337
f 307/514/338 320/517/340 319/520/343 306/515/339
f 32/28/20 40/22/14 400/512/336 308/513/337
f 322/543/363 487/544/364 216/545/60 45/546/59
f 312/529/350 322/547/363 45/75/59 27/55/44
f 34/43/33 44/78/62 323/548/360 399/527/349
f 313/528/344 321/541/361 322/547/363 312/529/350
f 305/508/333 324/549/365 49/79/63 31/63/52
f 326/536/357 334/550/366 333/551/367 317/537/358
f 24/21/13 48/83/67 325/535/356 485/510/334
f 324/549/365 337/552/368 326/536/357
f 324/549/365 326/536/357 53/59/48 49/79/63
f 325/535/356 482/534/355 483/530/351 303/503/331
f 48/83/67 52/47/36 327/532/353 325/535/356
f 317/537/358 333/551/367 332/553/369 316/538/359
f 339/554/370 351/555/371 340/556/372 328/557/373
f 316/558/359 315/531/352 28/50/39 54/91/53
f 332/559/369 344/560/374 343/561/375 331/562/376
f 337/552/368 349/563/377 346/564/378 334/550/366
f 329/565/379 341/566/380 342/567/381 330/568/382
f 334/550/366 346/564/378 345/569/383 333/551/367
f 330/568/382 342/567/381 349/563/377 337/552/368
f 305/508/333 330/568/382 337/552/368
f 316/558/359 332/559/369 331/562/376 315/531/352
f 315/531/352 331/562/376 336/570/384 484/533/354
f 343/561/375 353/571/385 358/572/386 348/573/387
f 351/555/371 361/574/388 338/575/389 340/556/372
f 344/560/374 354/576/390 353/571/385 343/561/375
f 349/563/377 359/577/391 356/578/392 346/564/378
f 341/566/380 335/579/393 352/580/394 342/567/381
f 346/564/378 356/578/392 355/581/395 345/569/383
f 331/562/376 343/561/375 348/573/387 336/570/384
f 336/570/384 348/573/387 351/555/371 339/554/370
f 333/551/367 345/569/383 344/582/374 332/553/369
f 328/557/373 340/556/372 341/583/380 329/584/379
f 358/572/386 368/585/396 371/586/397 361/574/388
f 353/571/385 363/587/398 368/585/396 358/572/386
f 361/574/388 371/586/397 350/588/399 523/589/400
f 354/576/390 525/590/401 353/571/385
f 359/577/391 369/591/402 366/592/403 356/578/392
f 335/579/393 347/593/404 352/580/394
f 348/573/387 358/572/386 361/574/388 351/555/371
f 345/569/383 355/581/395 354/594/390 344/582/374
f 340/556/372 338/575/389 335/595/393 341/583/380
f 342/567/381 352/580/394 359/577/391 349/563/377
f 365/596/405 526/597/406 364/598/407
f 368/599/396 378/600/408 381/601/409 371/602/397
f 363/603/398 373/604/410 378/600/408 368/599/396
f 371/602/397 381/601/409 524/605/411 350/606/399
f 364/607/407 526/608/406 373/604/410 363/603/398
f 369/609/402 379/610/412 376/611/413 366/612/403
f 355/581/395 365/613/405 525/614/401 354/594/390
f 338/575/389 523/589/400 347/615/404 335/595/393
f 352/580/394 362/616/414 369/591/402 359/577/391
f 356/578/392 366/592/403 365/613/405
f 375/617/415 385/618/416 384/619/417 374/620/418
f 378/600/408 387/621/419 389/622/420 381/601/409
f 373/604/410 383/623/421 387/621/419 378/600/408
f 381/601/409 389/622/420 370/624/422 360/625/423
f 374/626/418 384/627/417 383/623/421 373/604/410
f 379/610/412 388/628/424 386/629/425 376/611/413
f 350/606/399 524/605/411 347/630/404
f 362/631/414 372/632/426 379/610/412 369/609/402
f 366/612/403 376/611/413 365/596/405
f 347/633/404 357/634/427 372/632/426
f 618/635/428 390/636/429 396/637/430 614/638/431
f 613/639/432 380/640/433 377/641/434 610/642/435
f 615/643/436 393/644/437 392/645/438 611/646/439
f 612/647/440 395/648/441 397/649/442 617/650/443
f 616/651/444 391/652/445 395/648/441 612/647/440
f 617/650/443 397/649/442 380/640/433 613/639/432
f 360/625/423 370/624/422 367/653/446 357/654/427
f 372/632/426 382/655/447 388/628/424 379/610/412
f 376/611/413 386/629/425 385/618/416 375/617/415
f 357/634/427 367/656/446 382/655/447 372/632/426
f 507/657/448 495/658/449 494/659/450 503/660/451
f 506/661/452 491/662/453 498/663/454 505/664/455
f 501/665/456 489/666/457 490/667/458 502/668/459
f 503/660/451 494/659/450 493/669/460 504/670/461
f 497/671/462 520/672/463 521/673/464 492/674/462
f 504/675/461 514/676/465 509/677/466 392/678/438
f 619/679/467 394/680/468 393/644/437 615/643/436
f 610/681/435 377/682/434 390/636/429 618/635/428
f 614/638/431 396/637/430 394/680/468 619/679/467
f 611/683/439 392/684/438 391/652/445 616/651/444
f 328/557/373 329/584/379 304/504/332
f 399/527/349 314/685/347 311/686/469
f 323/548/360 314/685/347 399/527/349
f 311/686/469 318/542/362 400/512/336
f 400/512/336 318/542/362 308/513/337
f 399/527/349 311/686/469 401/511/335
f 401/511/335 311/686/469 400/512/336
f 402/526/348 408/687/470 412/688/471 406/522/345
f 407/689/472 413/690/473 408/687/470 402/526/348
f 311/691/469 404/692/474 403/693/475 318/694/362
f 318/694/362 415/695/476 414/696/477 320/697/340
f 314/698/347 405/699/346 404/692/474 311/691/469
f 320/697/340 407/689/472 402/526/348 310/525/341
f 409/700/478 410/701/479 398/702/480 408/703/470 413/704/473
f 410/701/479 411/705/481 412/706/471 408/703/470 398/702/480
f 404/692/474 410/701/479 409/700/478 403/693/475
f 409/700/478 419/707/482 418/708/483 403/693/475
f 405/699/346 411/705/481 410/701/479 404/692/474
f 406/522/345 412/688/471 411/709/481 405/523/346
f 418/708/483 424/710/484 421/711/485 415/695/476
f 416/712/486 422/713/487 425/714/488 419/707/482
f 407/689/472 417/715/489 416/716/486 413/690/473
f 320/697/340 414/696/477 417/715/489 407/689/472
f 403/693/475 418/708/483 415/695/476 318/694/362
f 413/704/473 416/712/486 419/707/482 409/700/478
f 425/714/488 431/717/490 430/718/491 424/710/484
f 423/719/492 429/720/493 428/721/494
f 417/715/489 423/719/492 422/722/487 416/716/486
f 419/707/482 425/714/488 424/710/484 418/708/483
f 414/696/477 420/723/495 423/719/492 417/715/489
f 415/695/476 421/711/485 420/723/495 414/696/477
f 428/724/494 434/725/496 437/726/497
f 427/727/498 432/728/499 426/729/500
f 420/723/495 426/730/500 429/720/493 423/719/492
f 421/711/485 427/731/498 420/723/495
f 422/713/487 428/732/494 425/714/488
f 424/710/484 430/718/491 427/731/498
f 560/733/501 438/734/502 441/735/503 558/736/504
f 559/737/505 443/738/506 442/739/507 557/740/508
f 430/741/491 436/742/509 427/727/498
f 429/743/493 435/744/510 428/745/494
f 431/746/490 437/726/497 436/742/509 430/741/491
f 426/729/500 432/728/499 435/744/510 429/743/493
f 479/747/511 444/748/512 477/749/513
f 478/750/514 448/751/515 476/752/516
f 561/753/517 439/754/518 438/734/502 560/733/501
f 562/755/519 440/756/520 443/738/506 559/737/505
f 557/740/508 442/739/507 439/754/518 561/753/517
f 558/736/504 441/735/503 440/757/520 562/758/519
f 473/759/521 454/760/522 451/761/523 472/762/524
f 471/763/525 452/764/526 455/765/527 470/766/528
f 480/767/529 444/768/512 479/769/511
f 481/770/530 446/771/531 449/772/532 478/773/514
f 476/774/516 448/775/515 480/767/529
f 477/776/513 447/777/533 446/771/531 481/770/530
f 451/778/523 454/779/522 453/780/534 450/781/535
f 454/779/522 455/782/527 452/783/526 453/780/534
f 474/784/536 453/785/534 452/764/526 471/763/525
f 470/786/528 455/787/527 454/788/522 473/789/521
f 475/790/537 450/791/535 453/792/534 474/793/536
f 472/762/524 451/761/523 450/794/535 475/795/537
f 441/796/503 458/797/538 461/798/539 440/799/520
f 442/800/507 456/801/540 460/802/541 439/803/518
f 440/799/520 461/798/539 457/804/542 443/805/506
f 439/803/518 460/802/541 459/806/543 438/807/502
f 443/808/506 457/809/542 456/810/540 442/811/507
f 441/796/503 463/812/544 465/813/545 458/797/538
f 465/814/545 469/815/546 468/816/547 464/817/548
f 458/818/538 465/814/545 464/817/548 459/819/543
f 459/806/543 464/820/548 462/821/549 438/807/502
f 438/822/502 462/823/549 463/824/544 441/825/503
f 466/826/550 468/827/547 469/828/546 467/829/551
f 464/820/548 468/830/547 466/831/550 462/821/549
f 463/812/544 467/832/551 469/833/546 465/813/545
f 462/823/549 466/826/550 467/829/551 463/824/544
f 445/834/552 472/762/524 444/768/512
f 444/748/512 475/790/537 474/793/536
f 449/835/532 470/786/528 448/751/515
f 447/777/533 474/784/536 471/763/525 446/771/531
f 446/771/531 471/763/525 470/766/528 449/772/532
f 448/775/515 473/759/521 472/762/524
f 458/797/538 477/776/513 481/770/530 461/798/539
f 456/801/540 476/774/516 480/767/529 460/802/541
f 461/798/539 481/770/530 478/773/514 457/804/542
f 460/802/541 480/767/529 479/769/511 459/806/543
f 457/809/542 478/750/514 476/752/516 456/810/540
f 459/819/543 479/747/511 477/749/513 458/818/538
f 336/570/384 339/554/370 482/534/355
f 483/530/351 328/557/373 304/504/332
f 482/534/355 339/554/370 483/530/351
f 484/533/354 336/570/384 482/534/355
f 484/533/354 327/532/353 315/531/352
f 339/554/370 328/557/373 483/530/351
f 337/552/368 334/550/366 326/536/357
f 337/552/368 324/549/365 305/508/333
f 329/565/379 330/568/382 305/508/333
f 485/510/334 303/503/331 297/502/325
f 325/535/356 303/503/331 485/510/334
f 216/366/256 487/836/553 486/837/554 488/838/555 215/367/257
f 323/839/360 488/840/556 486/841/557 321/842/361
f 44/375/62 215/376/261 488/840/556 323/839/360
f 321/842/361 486/841/557 487/544/364 322/543/363
f 304/507/332 329/565/379 305/508/333
f 499/843/462 493/844/460 494/845/450 495/846/449
f 497/671/462 492/674/462 493/844/460 499/843/462
f 489/847/457 500/848/462 496/849/462 490/850/458
f 490/850/458 496/849/462 498/851/454 491/852/453
f 500/848/462 497/671/462 499/843/462 496/849/462
f 496/849/462 499/843/462 495/846/449 498/851/454
f 502/853/459 490/854/458 491/662/453 506/661/452
f 505/664/455 498/663/454 495/658/449 507/657/448
f 489/847/457 522/855/558 517/856/559 500/848/462
f 492/674/462 521/673/464 515/857/560 493/844/460
f 395/858/441 512/859/561 513/860/562 397/861/442
f 391/862/445 508/863/563 512/859/561 395/858/441
f 396/864/430 505/664/455 507/657/448 394/865/468
f 377/866/434 502/853/459 506/661/452 390/867/429
f 397/861/442 513/860/562 511/868/564 380/869/433
f 392/870/438 509/871/466 508/863/563 391/862/445
f 393/872/437 503/660/451 504/670/461 392/873/438
f 380/874/433 501/665/456 502/668/459 377/875/434
f 390/867/429 506/661/452 505/664/455 396/864/430
f 394/865/468 507/657/448 503/660/451 393/872/437
f 519/876/565 520/877/463 517/878/559 516/879/566
f 518/880/567 521/881/464 520/877/463 519/876/565
f 514/882/465 515/883/560 521/881/464 518/880/567
f 516/879/566 517/878/559 522/884/558 510/885/568
f 513/860/562 516/879/566 510/885/568 511/868/564
f 509/871/466 514/882/465 518/880/567 508/863/563
f 508/863/563 518/880/567 519/876/565 512/859/561
f 512/859/561 519/876/565 516/879/566 513/860/562
f 500/848/462 517/856/559 520/672/463 497/671/462
f 501/665/456 510/886/568 522/887/558 489/666/457
f 493/888/460 515/889/560 514/676/465 504/675/461
f 380/874/433 511/890/564 510/886/568 501/665/456
f 428/721/494 422/722/487 423/719/492
f 435/744/510 434/891/496 428/745/494
f 428/732/494 431/717/490 425/714/488
f 437/726/497 431/746/490 428/724/494
f 427/731/498 421/711/485 424/710/484
f 436/742/509 433/892/569 427/727/498
f 427/731/498 426/730/500 420/723/495
f 432/728/499 427/727/498 433/892/569
f 523/589/400 350/588/399 347/615/404
f 523/589/400 338/575/389 361/574/388
f 524/605/411 360/625/423 357/654/427 347/630/404
f 381/601/409 360/625/423 524/605/411
f 347/593/404 362/616/414 352/580/394
f 372/632/426 362/631/414 347/633/404
f 365/613/405 364/893/407 525/614/401
f 525/590/401 364/894/407 363/587/398 353/571/385
f 526/608/406 374/626/418 373/604/410
f 526/597/406 365/596/405 375/617/415 374/620/418
f 365/613/405 355/581/395 356/578/392
f 376/611/413 375/617/415 365/596/405
f 527/895/570 215/896/280 264/897/279 530/898/571
f 530/898/572 264/897/279 259/899/283 528/900/573
f 536/901/574 540/902/575 541/903/576 534/904/577
f 531/905/578 538/906/579 545/907/580
f 265/441/291 531/905/578 556/908/581 282/442/292
f 532/909/582 541/903/576 542/910/583
f 536/901/574 534/904/577 535/911/584
f 534/904/577 550/912/585 549/913/586 548/914/587 530/898/572 528/900/573 533/915/588
f 532/909/582 527/895/570 551/916/589 547/917/590
f 527/895/570 488/918/591 215/896/280
f 532/909/582 486/919/557 488/918/591 527/895/570
f 267/920/305 533/915/588 528/900/573 259/899/283
f 270/921/306 535/911/584 533/915/588 267/920/305
f 260/457/307 529/922/592 535/923/584 270/458/306
f 265/441/291 275/462/310 544/924/593
f 531/905/578 546/925/594 543/926/595
f 272/465/313 537/927/596 538/906/579 544/924/593 284/466/314
f 539/928/597 542/910/583 541/903/576 540/902/575
f 280/469/317 539/929/597 537/927/596 272/465/313
f 279/930/318 542/910/583 539/928/597 280/931/317
f 537/927/596 539/929/597 540/932/575 538/906/579
f 536/933/574 535/923/584 529/922/592
f 536/933/574 529/922/592 543/926/595
f 544/924/593 275/462/310 284/466/314
f 544/924/593 538/906/579 531/905/578
f 540/932/575 545/907/580 538/906/579
f 545/907/580 536/933/574 546/925/594
f 546/925/594 531/905/578 545/907/580
f 546/925/594 536/933/574 543/926/595
f 534/904/577 533/915/588 535/911/584
f 549/934/586 554/935/598 552/936/599 548/937/587
f 534/938/577 555/939/600 550/940/585
f 527/895/570 530/898/571 548/914/587 551/916/589
f 552/941/599 534/942/577 547/943/590 553/944/601
f 555/945/600 534/942/577 552/941/599 554/946/598
f 551/947/589 553/948/601 547/949/590
f 550/940/585 555/939/600 554/935/598 549/934/586
f 548/937/587 552/936/599 553/948/601 551/947/589
f 541/903/576 547/917/590 534/904/577
f 547/917/590 541/903/576 532/909/582
f 279/930/318 216/950/324 487/951/602 542/910/583
f 542/910/583 487/951/602 532/909/582
f 544/924/593 531/905/578 265/441/291
f 556/908/581 543/926/595 529/922/592
f 531/905/578 543/926/595 556/908/581
f 556/908/581 529/922/592 260/457/307
f 556/908/581 260/457/307 282/442/292
f 444/748/512 447/952/533 477/749/513
f 474/793/536 447/952/533 444/748/512
f 444/768/512 480/767/529 445/834/552
f 472/762/524 475/795/537 444/768/512
f 448/775/515 445/834/552 480/767/529
f 472/762/524 445/834/552 448/775/515
f 448/751/515 478/750/514 449/835/532
f 470/786/528 473/789/521 448/751/515
f 487/951/602 486/919/557 532/909/582
f 160/425/276 567/284/221 563/270/207 162/274/210
f 163/277/214 565/269/206 627/269/213 622/277/273
f 159/261/201 566/265/202 567/284/221 160/425/276
f 162/274/210 563/270/207 565/269/206 163/277/214
f 161/257/196 564/266/203 566/265/202 159/261/201
f 435/744/510 558/736/504 562/758/519 434/891/496
f 436/742/509 557/740/508 561/753/517 433/892/569
f 434/725/496 562/755/519 559/737/505 437/726/497
f 433/892/569 561/753/517 560/733/501 432/728/499
f 437/726/497 559/737/505 557/740/508 436/742/509
f 432/728/499 560/733/501 558/736/504 435/744/510
f 156/254/194 155/253/193 620/253/275 621/254/197
f 11/31/22 38/953/23 36/70/57
f 285/439/289 269/474/284 276/473/287
f 318/542/362 320/954/340 307/516/338
f 540/932/575 536/933/574 545/907/580
f 258/955/603 264/956/279 570/957/604 569/958/605
f 258/955/603 569/958/605 571/959/606 288/960/607
f 264/956/279 530/961/608 572/962/609 570/957/604
f 548/963/610 573/964/611 572/962/609 530/961/608
f 573/964/611 578/965/612 577/966/613 572/962/609
f 569/958/605 574/967/614 576/968/615 571/959/606
f 570/957/604 572/962/609 577/966/613 575/969/616
f 569/958/605 570/957/604 575/969/616 574/967/614
f 575/969/616 577/966/613 581/970/617 580/971/618
f 574/967/614 575/969/616 580/971/618 579/972/619
f 582/955/620 587/958/621 588/957/622 583/956/623
f 582/955/620 584/960/624 589/959/625 587/958/621
f 583/956/623 588/957/622 590/962/626 585/961/627
f 586/963/628 585/961/627 590/962/626 591/964/629
f 591/964/629 590/962/626 595/966/630 596/965/631
f 587/958/621 589/959/625 594/968/632 592/967/633
f 588/957/622 593/969/634 595/966/630 590/962/626
f 587/958/621 592/967/633 593/969/634 588/957/622
f 593/969/634 598/971/635 599/970/636 595/966/630
f 592/967/633 597/972/637 598/971/635 593/969/634
f 586/963/628 591/964/629 573/964/611 548/963/610
f 591/964/629 596/965/631 578/965/612 573/964/611
f 596/965/631 595/966/630 577/966/613 578/965/612
f 595/966/630 599/970/636 581/970/617 577/966/613
f 599/970/636 598/971/635 580/971/618 581/970/617
f 598/971/635 597/972/637 579/972/619 580/971/618
f 597/972/637 592/967/633 574/967/614 579/972/619
f 592/967/633 594/968/632 576/968/615 574/967/614
f 594/968/632 589/959/625 571/959/606 576/968/615
f 589/959/625 584/960/624 288/960/607 571/959/606
f 113/161/124 609/212/167 604/169/129 115/162/125
f 109/188/147 608/168/128 600/214/133 94/189/146
f 112/153/118 605/176/136 609/212/167 113/161/124
f 97/158/123 603/172/132 607/181/141 116/154/119
f 114/155/120 602/180/140 606/184/144 110/156/121
f 116/154/119 607/181/141 602/180/140 114/155/120
f 111/152/117 601/177/137 605/176/136 112/153/118
f 94/187/146 600/173/133 603/172/132 97/158/123
f 115/162/125 604/169/129 608/168/128 109/188/147
f 384/627/417 611/683/439 616/651/444 383/623/421
f 110/156/121 606/184/144 601/216/137 111/160/117
f 388/628/424 614/638/431 619/679/467 386/629/425
f 367/656/446 610/681/435 618/635/428 382/655/447
f 386/629/425 619/679/467 615/643/436 385/618/416
f 389/622/420 617/650/443 613/639/432 370/624/422
f 383/623/421 616/651/444 612/647/440 387/621/419
f 387/621/419 612/647/440 617/650/443 389/622/420
f 385/618/416 615/643/436 611/646/439 384/619/417
f 370/624/422 613/639/432 610/642/435 367/653/446
f 382/655/447 618/635/428 614/638/431 388/628/424
f 620/973/275 622/277/273 623/974/638
f 621/258/197 620/975/275 624/257/198
f 624/257/198 620/975/275 623/976/638
f 622/277/273 620/973/275 625/276/274
f 622/277/273 627/269/213 626/275/212 623/974/638
f 623/976/638 626/287/212 628/266/639 624/257/198
f 564/266/203 161/257/196 624/257/198 628/266/639
f 568/287/211 564/266/203 628/266/639 626/287/212
