# Blender 5.1.1
# www.blender.org
mtllib phil.mtl
o phil
v -3.106557 2.156842 -5.250570
v -3.131145 2.526872 -5.274875
v -2.665627 2.153448 -5.258440
v -2.671830 2.526294 -5.289617
v -2.818254 2.152338 -5.125713
v -2.844786 2.525535 -5.163747
v -2.611972 2.154232 -5.547079
v -2.618432 2.525888 -5.547079
v -3.168085 2.152132 -5.547079
v -3.201609 2.526426 -5.547079
v -3.211342 2.770307 -5.243380
v -2.677027 2.769493 -5.256517
v -2.929275 2.769760 -5.125933
v -2.623194 2.768840 -5.547079
v -3.239488 2.770231 -5.547079
v -3.156058 3.048004 -5.104627
v -2.667575 3.136144 -5.210268
v -2.980653 3.050644 -5.097114
v -2.613445 3.135878 -5.547079
v -3.328715 3.138816 -5.547079
v -2.729581 3.342383 -5.237461
v -2.948279 3.490903 -5.165391
v -2.708047 3.361346 -5.547079
v -3.315407 3.332705 -5.547079
v -3.154060 3.617797 -5.450946
v -2.906096 3.522230 -5.444969
v -3.006659 3.568707 -5.401302
v -2.904850 3.519909 -5.547079
v -3.187929 3.619553 -5.547079
v -3.136366 1.693990 -5.506088
v -2.677560 1.694589 -5.506839
v -2.907025 1.693787 -5.505063
v -2.677256 1.693878 -5.547079
v -3.136344 1.705920 -5.547079
v -3.190670 1.954141 -5.414364
v -2.595850 1.956554 -5.414663
v -3.190681 1.960279 -5.547079
v -2.595680 1.956381 -5.547079
v -2.791979 3.234718 -5.111977
v -2.964182 3.308867 -4.774472
v -3.264675 3.214608 -4.882073
v -2.995554 3.428659 -5.016217
v -2.913313 3.343406 -4.885827
v -3.054304 3.425755 -4.834856
v -3.201742 3.376737 -4.887374
v -3.026235 3.438480 -5.042757
v -3.019962 3.426872 -4.939850
v -3.287237 3.118840 -5.254238
v -3.082554 3.152370 -4.504176
v -3.237684 3.114996 -4.570249
v -3.013616 3.294940 -4.480497
v -3.318227 3.224624 -4.613543
v -3.097028 3.408746 -4.523392
v -3.248545 3.372096 -4.590390
v -3.089164 3.163214 -4.395041
v -3.238937 3.136082 -4.444439
v -3.023407 3.292683 -4.376847
v -3.311470 3.237839 -4.475907
v -3.100289 3.398267 -4.409819
v -3.244402 3.369352 -4.459135
v -3.113374 3.164361 -4.298218
v -3.249971 3.137246 -4.345259
v -3.045312 3.291674 -4.288404
v -3.323127 3.239722 -4.381809
v -3.119587 3.394655 -4.325579
v -3.255753 3.366832 -4.372114
v -3.123841 3.174150 -4.175577
v -3.267264 3.145759 -4.219208
v -3.047137 3.297983 -4.185352
v -3.333522 3.244240 -4.274054
v -3.113570 3.396504 -4.239286
v -3.256712 3.368234 -4.282850
v -3.099363 3.186579 -4.030617
v -3.228379 3.142062 -4.043747
v -3.045528 3.324893 -4.048464
v -3.313688 3.237408 -4.075509
v -3.127959 3.425519 -4.081301
v -3.263139 3.379646 -4.095379
v -3.121189 3.278360 -3.571754
v -3.205767 3.271078 -3.562755
v -3.078039 3.350728 -3.575205
v -3.253594 3.332236 -3.558723
v -3.124389 3.409150 -3.567021
v -3.211159 3.400885 -3.560160
v -2.821348 1.951606 -5.121755
v -2.639985 1.867512 -5.197694
v -3.037925 1.914026 -5.156656
v -2.914527 1.534259 -5.514325
v -2.702518 1.570874 -5.479993
v -3.100768 1.618721 -5.435649
v -3.149875 1.776587 -5.288657
v -2.960923 0.943454 -5.143455
v -2.588145 1.709002 -5.351243
v -2.839919 1.519120 -5.099156
v -2.674019 1.464841 -5.182990
v -3.032092 1.505671 -5.135523
v -2.931720 1.289823 -5.515353
v -2.738848 1.302185 -5.478349
v -3.098153 1.343569 -5.430997
v -3.140318 1.432894 -5.272943
v -2.631404 1.374335 -5.340483
v -2.838897 0.909941 -5.186565
v -3.074671 0.969549 -5.199371
v -2.944273 0.920851 -5.489023
v -2.827914 0.893908 -5.431495
v -3.065314 0.954070 -5.445664
v -3.120123 0.974199 -5.325732
v -2.996987 0.620218 -5.163634
v -2.783910 0.889271 -5.306028
v -2.981585 0.781469 -5.154800
v -2.860705 0.735217 -5.197158
v -3.099419 0.823861 -5.212547
v -2.972094 0.767769 -5.496941
v -2.854163 0.725489 -5.439312
v -3.092826 0.814299 -5.454471
v -3.145560 0.837598 -5.336564
v -2.992565 0.358380 -5.166470
v -2.807858 0.712045 -5.315200
v -2.876289 0.580788 -5.205653
v -3.114111 0.654750 -5.220725
v -2.985570 0.602387 -5.503335
v -2.868516 0.568198 -5.446250
v -3.106214 0.642232 -5.461398
v -3.159717 0.664007 -5.344021
v -3.001902 -0.379705 -5.209088
v -2.822855 0.559387 -5.323014
v -2.866987 0.330262 -5.231657
v -3.134037 0.393093 -5.198121
v -3.042369 0.379461 -5.503449
v -2.901002 0.345036 -5.468046
v -3.171111 0.408265 -5.438490
v -3.209164 0.414008 -5.310594
v -2.829128 0.324804 -5.355609
v -2.921232 -0.351917 -5.266496
v -3.091237 -0.384268 -5.231744
v -3.029985 -0.385950 -5.450406
v -2.941391 -0.379779 -5.429573
v -3.120471 -0.383099 -5.404653
v -3.147363 -0.382426 -5.311364
v -2.899984 -0.352199 -5.342803
v -2.653421 -0.589929 -5.129271
v -2.544248 -0.589836 -5.291219
v -2.569259 -0.589813 -5.168665
v -2.597149 -0.589904 -5.364532
v -2.592516 -0.528096 -5.366431
v -2.540543 -0.528429 -5.291269
v -2.565721 -0.527654 -5.167472
v -2.649704 -0.526617 -5.125446
v -2.916796 -0.590778 -5.338887
v -3.145255 -0.589812 -5.311616
v -3.118532 -0.589827 -5.403497
v -2.946788 -0.590001 -5.427568
v -3.029329 -0.589830 -5.447879
v -3.089728 -0.589822 -5.233715
v -2.934473 -0.590778 -5.278245
v -3.005417 -0.589976 -5.212990
v -3.115003 3.319755 -3.323543
v -3.232394 3.308755 -3.324667
v -3.039401 3.360267 -3.326611
v -3.287940 3.338656 -3.328469
v -3.098348 3.422598 -3.313349
v -3.206437 3.414634 -3.310031
v -3.102495 3.323369 -3.104722
v -3.177862 3.315098 -3.105418
v -3.049133 3.361341 -3.092955
v -3.213548 3.344876 -3.092010
v -3.097800 3.383286 -3.079503
v -3.168010 3.378088 -3.078952
v -3.272452 3.330606 -3.457554
v -3.204462 3.418392 -3.436437
v -3.111521 3.427231 -3.442993
v -3.061322 3.359321 -3.458808
v -3.120399 3.302903 -3.455418
v -3.217529 3.291371 -3.456343
v -3.031140 3.249980 -3.509581
v -3.015179 3.306974 -3.503959
v -3.072477 3.264560 -3.467676
v -3.045741 3.329397 -3.456394
v -2.988266 3.225948 -3.399451
v -2.977950 3.272011 -3.399189
v -3.026237 3.239357 -3.382883
v -3.012939 3.290113 -3.378556
v -3.122936 3.743343 -5.442958
v -2.859493 3.643067 -5.446362
v -2.989228 3.705027 -5.397022
v -2.851866 3.623931 -5.547079
v -3.145039 3.746436 -5.547079
v -3.272776 3.331416 -5.233259
v -3.206165 3.452835 -5.180890
v -3.240211 3.244674 -5.034958
v -3.187798 3.397534 -5.054168
v -3.165062 3.391855 -5.052886
v -3.204109 3.360246 -4.969659
v -3.139847 1.938348 -5.277448
v -3.189080 3.868107 -5.429933
v -3.166209 4.152709 -5.408329
v -2.809446 4.152709 -5.408329
v -3.226944 3.828765 -5.547080
v -3.193960 4.033434 -5.395141
v -3.194990 4.184357 -5.547080
v -2.771374 4.184357 -5.547080
v -2.759907 3.964996 -5.395141
v -3.128263 3.801982 -5.395141
v -2.983182 4.184357 -5.361578
v -3.262942 4.033434 -5.547080
v -2.697861 3.948436 -5.547080
v -3.002367 3.983114 -5.328149
v -2.983182 4.250772 -5.547080
v -2.724197 3.646797 -5.475973
v -2.719527 3.634417 -5.547079
v -2.750382 3.763713 -5.425705
v -2.656048 3.807342 -5.547079
v -2.865409 3.753460 -5.381835
v -2.982347 3.899142 -5.333815
v -2.717226 3.887962 -5.547080
v -2.772751 3.883755 -5.406400
v -2.711998 3.771769 -5.547079
v -2.709458 3.795102 -5.503728
v -3.017580 3.813619 -5.352741
v -3.076664 3.875984 -5.340724
v -3.085573 3.979595 -5.349227
v -3.009083 3.976770 -5.302327
v -3.083380 3.873851 -5.318726
v -3.092289 3.977461 -5.316611
v -2.914268 1.699230 -5.547079
v -3.168727 3.924036 -5.364946
v -3.106557 2.156842 -5.843588
v -3.131145 2.526872 -5.819283
v -2.665627 2.153448 -5.835718
v -2.671830 2.526294 -5.804541
v -2.818254 2.152338 -5.968445
v -2.844786 2.525535 -5.930411
v -3.211342 2.770307 -5.850779
v -2.677027 2.769493 -5.837642
v -2.929275 2.769760 -5.968226
v -3.156058 3.048004 -5.989531
v -2.667575 3.136144 -5.883890
v -2.980455 3.049604 -5.996651
v -2.729581 3.342383 -5.856698
v -2.948279 3.490903 -5.928767
v -3.154060 3.617797 -5.643212
v -2.906096 3.522230 -5.649190
v -3.006659 3.568707 -5.692857
v -3.136366 1.693990 -5.588069
v -2.677560 1.694589 -5.587319
v -2.907025 1.693787 -5.589095
v -3.190670 1.954141 -5.679793
v -2.595850 1.956554 -5.679494
v -2.791979 3.234718 -5.982182
v -2.915519 3.318738 -6.217319
v -3.240670 3.258952 -6.184943
v -2.995554 3.428659 -6.077942
v -2.888544 3.330836 -6.076504
v -3.006035 3.446813 -6.184946
v -3.165768 3.414709 -6.169242
v -3.027159 3.449404 -5.958751
v -2.998522 3.455117 -6.081328
v -3.287237 3.118840 -5.839921
v -2.978982 3.160901 -6.503860
v -3.148275 3.141448 -6.477216
v -2.893209 3.295136 -6.513008
v -3.226143 3.260154 -6.457554
v -2.973352 3.418247 -6.494534
v -3.139315 3.399222 -6.466120
v -2.957820 3.166997 -6.611473
v -3.116924 3.156420 -6.599894
v -2.877689 3.288763 -6.615797
v -3.184933 3.265972 -6.589543
v -2.949899 3.402601 -6.605145
v -3.103688 3.389718 -6.592212
v -2.957552 3.165693 -6.711275
v -3.103366 3.153785 -6.698736
v -2.877436 3.285505 -6.706863
v -3.173143 3.264357 -6.683629
v -2.948398 3.396715 -6.691439
v -3.093739 3.384038 -6.679268
v -2.936931 3.170443 -6.832900
v -3.088624 3.157740 -6.825316
v -2.853564 3.286938 -6.807302
v -3.156568 3.264582 -6.790696
v -2.921452 3.393792 -6.773608
v -3.072846 3.381180 -6.766025
v -2.876915 3.173464 -6.967602
v -3.008821 3.141886 -6.985662
v -2.816208 3.306899 -6.940141
v -3.089838 3.246269 -6.978030
v -2.894209 3.416317 -6.930875
v -3.032422 3.384012 -6.949505
v -2.777811 3.244489 -7.419627
v -2.857933 3.244720 -7.449016
v -2.730159 3.312616 -7.407271
v -2.897318 3.309841 -7.466068
v -2.767370 3.374675 -7.427922
v -2.850219 3.374237 -7.455758
v -2.821348 1.951606 -5.972404
v -2.639985 1.867512 -5.896464
v -3.037925 1.914026 -5.937502
v -2.914527 1.534259 -5.579833
v -2.702518 1.570874 -5.614165
v -3.100768 1.618721 -5.658509
v -3.149875 1.776587 -5.805501
v -2.960923 0.943454 -5.950703
v -2.588145 1.709002 -5.742915
v -2.839919 1.519120 -5.995001
v -2.674019 1.464841 -5.911168
v -3.032092 1.505671 -5.958634
v -2.931720 1.289823 -5.578805
v -2.738848 1.302185 -5.615808
v -3.098153 1.343569 -5.663161
v -3.140318 1.432894 -5.821215
v -2.631404 1.374335 -5.753675
v -2.838897 0.909941 -5.907592
v -3.074671 0.969549 -5.894786
v -2.944273 0.920851 -5.605134
v -2.827914 0.893908 -5.662663
v -3.065314 0.954070 -5.648494
v -3.120123 0.974199 -5.768426
v -2.996987 0.620217 -5.930523
v -2.783910 0.889271 -5.788129
v -2.981585 0.781468 -5.939357
v -2.860705 0.735217 -5.896999
v -3.099419 0.823861 -5.881610
v -2.972094 0.767769 -5.597217
v -2.854163 0.725489 -5.654846
v -3.092826 0.814299 -5.639687
v -3.145560 0.837598 -5.757594
v -2.992565 0.358380 -5.927688
v -2.807858 0.712045 -5.778958
v -2.876289 0.580788 -5.888505
v -3.114111 0.654750 -5.873433
v -2.985570 0.602387 -5.590823
v -2.868516 0.568198 -5.647907
v -3.106214 0.642232 -5.632760
v -3.159717 0.664007 -5.750136
v -3.001902 -0.379705 -5.885069
v -2.822855 0.559387 -5.771144
v -2.866987 0.330262 -5.862501
v -3.134037 0.393093 -5.896037
v -3.042369 0.379461 -5.590708
v -2.901002 0.345036 -5.626112
v -3.171111 0.408265 -5.655668
v -3.209164 0.414008 -5.783564
v -2.829128 0.324803 -5.738549
v -2.921232 -0.351918 -5.827661
v -3.091237 -0.384268 -5.862413
v -3.029985 -0.385950 -5.643752
v -2.941391 -0.379779 -5.664585
v -3.120471 -0.383100 -5.689504
v -3.147363 -0.382426 -5.782794
v -2.899984 -0.352199 -5.751355
v -2.653421 -0.589929 -5.964887
v -2.544248 -0.589836 -5.802938
v -2.569259 -0.589813 -5.925492
v -2.597149 -0.589904 -5.729625
v -2.592516 -0.528096 -5.727726
v -2.540543 -0.528429 -5.802888
v -2.565721 -0.527654 -5.926685
v -2.649704 -0.526617 -5.968711
v -2.916796 -0.590778 -5.755270
v -3.145255 -0.589812 -5.782541
v -3.118532 -0.589827 -5.690660
v -2.946788 -0.590001 -5.666589
v -3.029329 -0.589830 -5.646278
v -3.089728 -0.589822 -5.860442
v -2.934473 -0.590778 -5.815912
v -3.005417 -0.589976 -5.881167
v -2.707620 3.273014 -7.659523
v -2.822219 3.273109 -7.687101
v -2.631574 3.306395 -7.638835
v -2.873916 3.308238 -7.697767
v -2.679337 3.373275 -7.667595
v -2.783593 3.375303 -7.697255
v -2.642046 3.264792 -7.868543
v -2.715728 3.263649 -7.886246
v -2.584097 3.297004 -7.867648
v -2.744091 3.295960 -7.908691
v -2.625717 3.322735 -7.893159
v -2.693830 3.324105 -7.910870
v -2.891093 3.305062 -7.568701
v -2.812042 3.385008 -7.574377
v -2.723108 3.385425 -7.545330
v -2.684934 3.313937 -7.516126
v -2.746462 3.263171 -7.532700
v -2.841510 3.260831 -7.555470
v -2.678493 3.204805 -7.457054
v -2.656330 3.259738 -7.459843
v -2.706823 3.221138 -7.508162
v -2.672145 3.282591 -7.513958
v -2.612638 3.171525 -7.552664
v -2.598259 3.216374 -7.551407
v -2.643986 3.187612 -7.578368
v -2.625298 3.236653 -7.580420
v -3.122936 3.743343 -5.651201
v -2.859493 3.643067 -5.647796
v -2.989228 3.705027 -5.697136
v -3.272776 3.331416 -5.860899
v -3.206165 3.452835 -5.913268
v -3.246721 3.253352 -6.011196
v -3.187798 3.397534 -6.039991
v -3.168062 3.417132 -5.982547
v -3.189845 3.407655 -6.095836
v -3.139847 1.938348 -5.816710
v -3.189080 3.868107 -5.664226
v -3.166209 4.152709 -5.685829
v -2.809446 4.152709 -5.685829
v -3.193960 4.033434 -5.699018
v -2.759907 3.964996 -5.699018
v -3.128263 3.801982 -5.699018
v -2.983182 4.184357 -5.732581
v -3.002367 3.983114 -5.766010
v -2.724197 3.646797 -5.618186
v -2.750382 3.763713 -5.668454
v -2.865409 3.753460 -5.712324
v -2.982347 3.899142 -5.760344
v -2.772751 3.883755 -5.687759
v -2.709458 3.795102 -5.590431
v -3.017580 3.813619 -5.741418
v -3.076664 3.875984 -5.753435
v -3.085573 3.979595 -5.744931
v -3.009083 3.976770 -5.791831
v -3.083380 3.873851 -5.775433
v -3.092289 3.977461 -5.777548
v -3.168727 3.924036 -5.729213
v -2.845442 0.897966 -5.440161
v -3.118461 3.266888 -3.629111
v -3.124835 3.411196 -3.631307
v -3.217656 3.398230 -3.627062
v -3.261106 3.320383 -3.623321
v -3.073976 3.347499 -3.634363
v -3.208594 3.254951 -3.622879
v -2.790199 3.235611 -7.363124
v -2.783225 3.379880 -7.365791
v -2.872994 3.375459 -7.392476
v -2.921383 3.301895 -7.405064
v -2.740915 3.311901 -7.348880
v -2.876794 3.231866 -7.391096
vn 0.9954 0.0960 -0.0000
vn 0.9999 0.0162 -0.0000
vn 0.8500 0.0274 0.5261
vn 0.8440 0.1093 0.5250
vn 0.1477 0.1283 0.9807
vn 0.1524 -0.0246 0.9880
vn -0.7586 -0.1536 0.6331
vn -0.7535 0.0738 0.6533
vn -0.9870 -0.1607 -0.0000
vn -0.9975 0.0712 -0.0000
vn 0.9999 -0.0149 -0.0000
vn 0.8022 -0.0393 0.5957
vn -0.7837 -0.2839 0.5525
vn -0.9722 -0.2341 -0.0000
vn 0.0552 -0.1802 0.9821
vn 0.8280 0.0643 0.5570
vn 0.3897 -0.4655 0.7946
vn 0.9879 0.1548 -0.0000
vn -0.9221 -0.0788 0.3788
vn -0.9972 -0.0749 -0.0000
vn -0.6292 -0.5396 0.5594
vn 0.7589 0.5420 0.3610
vn 0.3179 0.8790 0.3554
vn 0.7149 0.0538 0.6972
vn 0.8211 0.5708 -0.0000
vn -0.9556 0.2025 0.2140
vn -0.9889 -0.0896 -0.1188
vn -0.9997 0.0251 -0.0017
vn -0.4511 -0.8879 0.0903
vn -0.9956 -0.0750 -0.0554
vn 0.8106 0.4502 0.3745
vn 0.1919 0.5608 0.8054
vn 0.9746 0.2240 -0.0000
vn 0.4938 0.8284 0.2645
vn -0.7630 0.5910 0.2619
vn -0.9054 0.0533 -0.4211
vn 0.7396 0.1555 -0.6549
vn -0.9669 0.2551 -0.0000
vn 0.7434 -0.4658 -0.4800
vn 0.9965 0.0239 0.0800
vn 0.9934 -0.0871 -0.0740
vn 0.5264 -0.1001 -0.8443
vn -0.7887 -0.5445 -0.2854
vn -0.0524 -0.7171 -0.6950
vn -0.1067 -0.0745 -0.9915
vn -0.7934 -0.1638 -0.5862
vn -0.9878 0.0091 0.1555
vn -1.0000 0.0064 -0.0000
vn -0.7013 -0.7129 -0.0000
vn 0.9976 -0.0691 -0.0000
vn 0.5982 -0.8014 -0.0000
vn -0.0126 -0.9999 -0.0000
vn -0.9380 -0.0723 0.3391
vn 0.7752 0.0648 0.6284
vn 0.9412 0.1379 0.3085
vn 0.8406 0.2737 0.4673
vn 0.1651 0.9734 0.1589
vn 0.1788 0.9726 0.1489
vn -0.7147 0.4567 0.5297
vn -0.9293 0.3693 -0.0000
vn -0.6543 0.7540 -0.0582
vn -0.6622 0.7487 -0.0302
vn -0.7502 0.6611 -0.0145
vn -0.6219 0.7137 0.3224
vn -0.3825 -0.9223 0.0543
vn -0.9979 -0.0630 -0.0164
vn 0.9823 0.1183 0.1450
vn 0.2969 0.9508 0.0889
vn 0.3711 0.9236 0.0959
vn 0.9806 0.0838 0.1771
vn 0.5894 -0.7902 0.1681
vn -0.6053 0.7945 -0.0490
vn 0.3178 0.9468 0.0512
vn -0.6054 0.7959 -0.0055
vn 0.6050 -0.7845 0.1360
vn 0.5557 -0.8225 0.1215
vn 0.9921 0.0565 0.1122
vn 0.9992 0.0363 -0.0184
vn 0.5845 -0.8105 0.0371
vn -0.4244 -0.9038 0.0551
vn 0.4070 0.9099 -0.0805
vn 0.9921 0.1253 0.0082
vn 0.6527 -0.7529 0.0845
vn -0.6014 0.7983 -0.0319
vn -0.6526 0.7576 -0.0124
vn 0.3150 0.9476 -0.0542
vn 0.9903 -0.0346 0.1343
vn 0.4151 0.9097 0.0057
vn 0.4747 0.8798 -0.0239
vn 0.9976 -0.0093 0.0679
vn -0.9982 -0.0584 -0.0140
vn -0.6052 0.7956 0.0282
vn -0.9845 -0.0972 0.1463
vn -0.9986 -0.0444 0.0277
vn -0.5298 0.8465 -0.0515
vn -0.3428 -0.9066 0.2462
vn -0.3399 -0.9234 0.1785
vn -0.2836 -0.9483 0.1427
vn -0.9844 -0.1352 0.1130
vn 0.3738 0.9225 -0.0959
vn -0.4525 0.8895 -0.0632
vn -0.4276 0.8985 0.0993
vn 0.3472 0.9364 0.0517
vn -0.9907 -0.1235 -0.0576
vn -0.9900 -0.0887 0.1097
vn 0.3524 0.9358 0.0130
vn 0.3828 0.9201 -0.0829
vn 0.6044 -0.7751 0.1842
vn 0.9914 0.1074 0.0742
vn 0.9430 0.2424 -0.2281
vn 0.3854 -0.9224 -0.0239
vn -0.5010 0.0723 0.8625
vn -0.9848 -0.0269 0.1716
vn -0.5424 -0.0033 0.8401
vn 0.9754 -0.2053 -0.0804
vn 0.5849 -0.1548 -0.7962
vn 0.1393 0.1094 0.9842
vn 0.1053 -0.0241 0.9941
vn 0.7159 -0.1161 0.6885
vn -0.0986 -0.0467 -0.9940
vn -0.8628 0.0442 0.5037
vn -0.0248 -0.0779 0.9967
vn 0.6433 -0.1689 0.7468
vn 0.6911 -0.1487 -0.7073
vn 0.3606 -0.0778 -0.9295
vn 0.0173 -0.0230 -0.9996
vn -0.7572 -0.0214 -0.6529
vn -0.6781 0.0690 -0.7318
vn -0.9975 0.0661 0.0256
vn 0.9759 -0.2153 0.0358
vn 0.6485 -0.1172 0.7521
vn 0.9920 -0.1191 0.0430
vn -0.6742 0.0062 0.7385
vn -0.0796 -0.0524 0.9955
vn -0.6552 0.1271 -0.7446
vn 0.0585 0.0378 -0.9976
vn -0.6597 0.1020 -0.7445
vn -0.9896 0.1357 -0.0467
vn -0.9909 0.1339 -0.0162
vn -0.7013 0.0739 0.7090
vn -0.7457 0.0518 0.6643
vn 0.7051 -0.0314 -0.7085
vn 0.0416 0.0241 -0.9988
vn 0.6753 -0.0745 0.7337
vn 0.7335 -0.0571 -0.6773
vn -0.0292 -0.0211 0.9993
vn 0.0955 -0.0351 0.9948
vn 0.7648 -0.0651 0.6409
vn 0.6132 -0.0523 -0.7882
vn -0.1029 -0.0249 -0.9944
vn -0.7626 0.0304 -0.6461
vn -0.9912 0.0616 0.1169
vn 0.9979 -0.0643 0.0050
vn 0.9927 -0.0662 -0.1013
vn -0.7691 -0.0448 -0.6375
vn -0.9858 -0.0452 0.1616
vn 0.6401 0.4801 0.5999
vn 0.8499 0.4919 -0.1888
vn -0.6101 0.0225 0.7920
vn -0.5652 -0.0382 0.8241
vn -0.0232 0.0979 0.9949
vn -0.1171 -0.0410 -0.9923
vn 0.4316 0.1058 -0.8958
vn 0.8838 0.4312 -0.1817
vn 0.5436 0.3509 -0.7624
vn 0.0038 -1.0000 -0.0016
vn 0.0015 -1.0000 -0.0049
vn 0.0023 -1.0000 -0.0056
vn 0.0023 -1.0000 -0.0047
vn 0.1517 0.3454 0.9261
vn 0.7180 0.4260 0.5504
vn 0.0028 -1.0000 0.0028
vn 0.0001 -1.0000 0.0054
vn 0.7842 -0.0671 0.6169
vn 0.9758 -0.0672 -0.2080
vn 0.0943 -0.0430 0.9946
vn 0.5246 -0.0452 -0.8501
vn -0.9859 -0.0112 0.1667
vn -0.5638 -0.0122 0.8258
vn -0.2388 -0.0168 0.9709
vn 0.2044 -0.0169 -0.9787
vn -0.1135 -0.0129 -0.9935
vn -0.7685 -0.0114 -0.6398
vn -0.0008 -1.0000 0.0051
vn -0.0003 -1.0000 0.0062
vn -0.7266 -0.1086 0.6784
vn -0.2580 0.4399 0.8602
vn -0.2655 -0.9596 0.0934
vn -0.1283 -0.8421 0.5238
vn 0.1175 -0.9309 0.3460
vn 0.9267 0.3412 0.1579
vn 0.9962 -0.0868 -0.0119
vn 0.3394 -0.9400 0.0342
vn -0.2861 -0.9547 0.0822
vn 0.2444 -0.8189 0.5193
vn 0.8543 -0.0900 0.5120
vn 0.2720 0.4548 0.8480
vn 0.3437 -0.8003 -0.4914
vn -0.5785 -0.6977 0.4224
vn 0.3240 0.6752 0.6626
vn -0.4317 -0.5005 0.7505
vn -0.0093 0.5437 0.8392
vn 0.8714 0.2689 -0.4102
vn 0.5561 -0.7841 0.2756
vn 0.9331 0.1865 0.3075
vn 0.5963 -0.8028 -0.0000
vn 0.4314 -0.5388 0.7236
vn -0.7153 -0.2963 0.6329
vn -0.9835 -0.1808 -0.0000
vn -0.0577 -0.2595 0.9640
vn -0.0038 -1.0000 -0.0010
vn -0.7128 0.1412 0.6870
vn -0.5496 0.5582 0.6216
vn -0.6854 0.7282 -0.0000
vn -0.9953 0.0969 -0.0000
vn 1.0000 0.0040 -0.0000
vn 0.7189 0.6951 -0.0000
vn 0.5571 0.5319 0.6377
vn 0.6926 0.0341 0.7205
vn 0.6429 -0.0668 0.7630
vn 0.2706 -0.1915 0.9435
vn 0.2207 -0.2860 0.9325
vn 0.6735 -0.1141 0.7303
vn 0.0118 0.6316 0.7752
vn 0.2946 0.3986 0.8685
vn -0.5543 -0.5008 0.6648
vn -0.7849 -0.4333 0.4430
vn -0.6242 -0.0977 0.7751
vn -0.9194 -0.3933 -0.0000
vn -0.8457 -0.3270 0.4218
vn 0.0034 1.0000 -0.0000
vn 0.9257 -0.3782 -0.0000
vn 0.8732 -0.0126 0.4873
vn 0.6594 -0.5928 0.4624
vn 0.7065 -0.7077 -0.0000
vn 0.9996 0.0288 -0.0000
vn -0.4770 0.4217 0.7712
vn -0.6884 -0.4572 0.5631
vn -0.7190 0.4928 0.4900
vn -0.0818 -0.3891 0.9176
vn 0.9969 -0.0783 -0.0000
vn 0.3948 0.4887 0.7780
vn 0.8440 0.1093 -0.5250
vn 0.8500 0.0274 -0.5261
vn 0.1477 0.1283 -0.9807
vn -0.7535 0.0738 -0.6533
vn -0.7586 -0.1536 -0.6331
vn 0.1524 -0.0246 -0.9880
vn 0.8022 -0.0392 -0.5958
vn -0.7837 -0.2839 -0.5525
vn 0.0552 -0.1800 -0.9821
vn 0.3865 -0.4673 -0.7951
vn 0.8280 0.0642 -0.5570
vn -0.9221 -0.0788 -0.3788
vn -0.6274 -0.5059 -0.5920
vn 0.7589 0.5420 -0.3610
vn 0.6920 0.0366 -0.7210
vn 0.3187 0.8688 -0.3789
vn -0.9524 0.1992 -0.2309
vn -0.9949 -0.0184 -0.0992
vn -0.9966 -0.0121 -0.0818
vn -0.9828 0.0014 -0.1845
vn -0.5070 -0.8388 -0.1984
vn 0.1919 0.5608 -0.8054
vn 0.8106 0.4502 -0.3745
vn 0.8078 0.5771 0.1201
vn 0.1878 0.1625 0.9687
vn -0.5116 -0.0250 0.8588
vn -0.8772 0.4447 -0.1810
vn 0.7434 -0.4658 0.4800
vn 0.5264 -0.1001 0.8443
vn 0.9934 -0.0871 0.0740
vn 0.9965 0.0239 -0.0800
vn -0.7887 -0.5445 0.2854
vn -0.7934 -0.1638 0.5862
vn -0.1067 -0.0745 0.9915
vn -0.0524 -0.7171 0.6950
vn -0.9878 0.0091 -0.1555
vn -0.9380 -0.0723 -0.3391
vn 0.7752 0.0648 -0.6284
vn 0.9822 0.1325 -0.1334
vn 0.3328 0.9393 -0.0833
vn 0.4070 0.8945 0.1848
vn 0.8666 0.2816 -0.4119
vn -0.7147 0.4567 -0.5297
vn -0.5910 0.8033 -0.0741
vn -0.5715 0.8061 -0.1538
vn -0.7014 0.7123 -0.0259
vn -0.6250 0.7092 -0.3262
vn -0.9733 0.0243 -0.2283
vn -0.4494 -0.8847 -0.1242
vn 0.9954 0.0510 0.0806
vn 0.4050 0.9136 -0.0367
vn 0.5540 -0.8315 -0.0419
vn -0.5163 0.8478 -0.1212
vn -0.4532 -0.8894 -0.0596
vn -0.9906 0.0177 -0.1358
vn -0.9726 0.0287 -0.2309
vn -0.4874 -0.8626 -0.1356
vn -0.5056 0.8471 -0.1636
vn 0.5384 -0.8419 0.0364
vn -0.5079 0.8504 -0.1371
vn 0.4916 -0.8613 0.1281
vn 0.9635 -0.0493 0.2631
vn 0.4831 -0.8747 0.0392
vn 0.5753 -0.8121 0.0975
vn 0.9717 0.0386 0.2332
vn 0.4653 0.8713 0.1558
vn 0.3871 0.9158 0.1069
vn -0.5570 0.8134 -0.1677
vn -0.4972 0.8451 -0.1963
vn -0.4384 0.8931 -0.1014
vn -0.9615 0.0409 -0.2717
vn -0.9241 -0.0182 -0.3817
vn -0.3786 -0.8955 -0.2338
vn -0.3634 -0.8819 -0.3004
vn -0.3356 -0.9237 -0.1848
vn -0.9357 -0.0545 -0.3484
vn 0.4310 0.8877 0.1622
vn 0.4424 0.8967 0.0127
vn -0.2969 0.9283 -0.2238
vn -0.3618 0.9295 -0.0720
vn -0.9375 -0.0075 -0.3478
vn -0.9821 -0.0346 -0.1851
vn 0.4380 0.8975 0.0514
vn 0.4425 0.8838 0.1519
vn 0.5506 -0.8347 -0.0108
vn 0.2721 -0.9519 0.1408
vn 0.8784 0.1697 0.4469
vn 0.9853 0.0179 0.1696
vn -0.5010 0.0723 -0.8625
vn -0.5424 -0.0033 -0.8401
vn -0.9848 -0.0269 -0.1716
vn 0.5849 -0.1548 0.7962
vn 0.9754 -0.2053 0.0804
vn 0.7159 -0.1161 -0.6885
vn 0.1053 -0.0241 -0.9941
vn 0.1393 0.1094 -0.9842
vn -0.0986 -0.0467 0.9940
vn -0.8628 0.0442 -0.5037
vn 0.6433 -0.1689 -0.7468
vn -0.0248 -0.0779 -0.9967
vn 0.0173 -0.0230 0.9996
vn 0.6914 -0.1495 0.7068
vn -0.9975 0.0661 -0.0256
vn -0.6781 0.0690 0.7318
vn -0.7572 -0.0214 0.6529
vn 0.9759 -0.2153 -0.0358
vn 0.9920 -0.1191 -0.0430
vn 0.6485 -0.1172 -0.7521
vn -0.0796 -0.0524 -0.9955
vn -0.6742 0.0062 -0.7385
vn -0.6552 0.1271 0.7446
vn 0.0585 0.0378 0.9976
vn -0.7457 0.0518 -0.6643
vn -0.9896 0.1357 0.0467
vn -0.7013 0.0739 -0.7090
vn -0.9909 0.1339 0.0162
vn 0.7334 -0.0568 0.6774
vn 0.7051 -0.0314 0.7085
vn 0.9979 -0.0643 -0.0050
vn 0.6753 -0.0745 -0.7337
vn 0.0416 0.0241 0.9988
vn 0.7648 -0.0651 -0.6409
vn 0.0955 -0.0351 -0.9948
vn -0.0292 -0.0211 -0.9993
vn -0.1029 -0.0249 0.9944
vn 0.6132 -0.0523 0.7882
vn -0.9912 0.0616 -0.1169
vn -0.7626 0.0304 0.6461
vn -0.6597 0.1020 0.7445
vn 0.9927 -0.0662 0.1013
vn -0.9858 -0.0452 -0.1616
vn -0.7691 -0.0448 0.6375
vn 0.8499 0.4919 0.1888
vn 0.6401 0.4801 -0.5999
vn -0.0232 0.0979 -0.9949
vn -0.5652 -0.0382 -0.8241
vn -0.6101 0.0225 -0.7920
vn -0.1171 -0.0410 0.9923
vn 0.4316 0.1058 0.8958
vn 0.5436 0.3509 0.7624
vn 0.8838 0.4312 0.1817
vn 0.0038 -1.0000 0.0016
vn 0.0023 -1.0000 0.0047
vn 0.0023 -1.0000 0.0056
vn 0.0015 -1.0000 0.0049
vn 0.7180 0.4260 -0.5504
vn 0.1517 0.3454 -0.9261
vn 0.0028 -1.0000 -0.0028
vn 0.0001 -1.0000 -0.0054
vn 0.9758 -0.0672 0.2080
vn 0.7842 -0.0671 -0.6169
vn 0.0943 -0.0430 -0.9946
vn 0.5246 -0.0452 0.8501
vn -0.5638 -0.0122 -0.8258
vn -0.9859 -0.0112 -0.1667
vn -0.2388 -0.0168 -0.9709
vn 0.2044 -0.0169 0.9787
vn -0.1135 -0.0129 0.9935
vn -0.7685 -0.0114 0.6398
vn -0.0008 -1.0000 -0.0051
vn -0.0003 -1.0000 -0.0062
vn 0.0052 0.4210 -0.9071
vn -0.5474 -0.0757 -0.8335
vn -0.0830 -0.8507 -0.5190
vn -0.3314 -0.9342 -0.1324
vn 0.1021 -0.9533 -0.2842
vn 0.2399 -0.9680 0.0734
vn 0.9504 -0.1721 0.2592
vn 0.9655 0.2517 0.0668
vn -0.3534 -0.9269 -0.1267
vn 0.9405 -0.1867 -0.2838
vn 0.2787 -0.8616 -0.4243
vn 0.5140 0.3899 -0.7640
vn -0.5263 -0.6618 -0.5339
vn 0.1303 -0.8039 0.5803
vn 0.5411 0.6120 -0.5768
vn 0.2501 0.5031 -0.8272
vn -0.2854 -0.4942 -0.8212
vn 0.7679 0.2104 0.6050
vn 0.5252 -0.8436 -0.1115
vn 0.9932 0.0910 -0.0726
vn 0.4314 -0.5388 -0.7236
vn -0.7153 -0.2963 -0.6329
vn -0.0577 -0.2595 -0.9640
vn -0.0038 -1.0000 0.0010
vn -0.7128 0.1412 -0.6870
vn -0.5496 0.5582 -0.6216
vn 0.6926 0.0341 -0.7205
vn 0.5571 0.5319 -0.6377
vn 0.6429 -0.0668 -0.7630
vn 0.6735 -0.1141 -0.7303
vn 0.2207 -0.2860 -0.9325
vn 0.2706 -0.1915 -0.9435
vn 0.2946 0.3986 -0.8685
vn 0.0118 0.6316 -0.7752
vn -0.5543 -0.5008 -0.6648
vn -0.6242 -0.0977 -0.7751
vn -0.7849 -0.4333 -0.4430
vn -0.8457 -0.3270 -0.4218
vn 0.6594 -0.5928 -0.4624
vn 0.8732 -0.0126 -0.4873
vn -0.4770 0.4217 -0.7712
vn -0.7190 0.4928 -0.4900
vn -0.6884 -0.4572 -0.5631
vn -0.0818 -0.3891 -0.9176
vn 0.3948 0.4887 -0.7780
vn -0.3699 -0.9290 -0.0092
vn -0.9912 -0.0732 -0.1100
vt 0.397894 0.595043
vt 0.472122 0.595043
vt 0.472668 0.645087
vt 0.397720 0.646922
vt 0.010675 0.505106
vt 0.084226 0.500252
vt 0.093916 0.557096
vt 0.018232 0.563293
vt 0.473315 0.685961
vt 0.397991 0.686540
vt 0.096145 0.613635
vt 0.020467 0.613635
vt 0.519762 0.595043
vt 0.521418 0.651102
vt 0.148967 0.555277
vt 0.146637 0.613635
vt 0.522783 0.705865
vt 0.133751 0.501953
vt 0.589481 0.654696
vt 0.580360 0.720846
vt 0.585895 0.595043
vt 0.213467 0.560487
vt 0.217037 0.613636
vt 0.198904 0.522799
vt 0.625380 0.649833
vt 0.670391 0.672620
vt 0.613680 0.679820
vt 0.627856 0.595043
vt 0.044161 0.866517
vt 0.106545 0.879169
vt 0.098182 0.901087
vt 0.064364 0.898515
vt 0.156906 0.879087
vt 0.150541 0.901206
vt 0.676589 0.614778
vt 0.696008 0.625795
vt 0.677139 0.595043
vt 0.046005 0.782106
vt 0.038054 0.748651
vt 0.066775 0.752842
vt 0.063999 0.776988
vt 0.251323 0.554255
vt 0.250899 0.613636
vt 0.136225 0.209998
vt 0.064691 0.197807
vt 0.107745 0.170336
vt 0.156157 0.177627
vt 0.401834 0.311627
vt 0.349961 0.313312
vt 0.340412 0.288282
vt 0.387871 0.283381
vt 0.463334 0.298868
vt 0.463276 0.323941
vt 0.403063 0.323941
vt 0.065896 0.223778
vt 0.134971 0.223778
vt 0.352011 0.323941
vt 0.030567 0.223778
vt 0.024603 0.181098
vt 0.504577 0.278732
vt 0.498180 0.323941
vt 0.435058 0.266791
vt 0.068705 0.154501
vt 0.102423 0.820521
vt 0.070877 0.812062
vt 0.081892 0.783712
vt 0.101382 0.787705
vt 0.309652 0.595833
vt 0.307776 0.613636
vt 0.059743 0.834343
vt 0.018584 0.796958
vt 0.111275 0.848716
vt 0.094946 0.931892
vt 0.154153 0.929360
vt 0.102681 0.756819
vt 0.088860 0.750317
vt 0.080062 0.928716
vt 0.275363 0.543525
vt 0.184943 0.877658
vt 0.181058 0.899763
vt 0.169648 0.822429
vt 0.165382 0.797401
vt 0.192321 0.801774
vt 0.194555 0.824742
vt 0.166205 0.850490
vt 0.161646 0.766295
vt 0.203513 0.776374
vt 0.205327 0.802846
vt 0.198590 0.925502
vt 0.184931 0.926010
vt 0.190700 0.773531
vt 0.191450 0.849527
vt 0.206859 0.850399
vt 0.902145 0.024453
vt 0.901581 0.046788
vt 0.874991 0.021057
vt 0.874651 0.047649
vt 0.846995 0.040423
vt 0.924075 0.037776
vt 0.926234 0.019076
vt 0.901974 0.074500
vt 0.877529 0.075706
vt 0.952775 0.030088
vt 0.949385 0.070420
vt 0.923464 0.070768
vt 0.378673 0.874555
vt 0.381651 0.852182
vt 0.394657 0.851110
vt 0.392423 0.874077
vt 0.953819 0.011036
vt 0.799916 0.035368
vt 0.797188 0.017068
vt 0.825725 0.032734
vt 0.836283 0.164004
vt 0.850009 0.159117
vt 0.852412 0.171786
vt 0.840532 0.176785
vt 0.862593 0.155773
vt 0.863717 0.167636
vt 0.854723 0.072733
vt 0.833193 0.070431
vt 0.806537 0.074532
vt 0.295231 0.872660
vt 0.319342 0.875025
vt 0.319196 0.910591
vt 0.290244 0.908934
vt 0.346719 0.868908
vt 0.346719 0.907975
vt 0.905914 0.157697
vt 0.922048 0.161239
vt 0.918143 0.174213
vt 0.903407 0.170115
vt 0.878569 0.154484
vt 0.892950 0.155385
vt 0.891661 0.166940
vt 0.878718 0.165738
vt 0.469728 0.244477
vt 0.374559 0.228477
vt 0.403571 0.208506
vt 0.158728 0.126661
vt 0.190875 0.133747
vt 0.039970 0.131629
vt 0.103633 0.089773
vt 0.128407 0.113944
vt 0.200814 0.184153
vt 0.222750 0.147240
vt 0.524875 0.230335
vt 0.493286 0.212962
vt 0.192855 0.212133
vt 0.465811 0.272237
vt 0.010790 0.150421
vt 0.190608 0.029565
vt 0.207762 0.045790
vt 0.244287 0.076818
vt 0.246879 0.079219
vt 0.261495 0.092759
vt 0.343303 0.240196
vt 0.286592 0.193855
vt 0.303595 0.176573
vt 0.226071 0.061238
vt 0.314005 0.257189
vt 0.423761 0.178968
vt 0.232173 0.024539
vt 0.249961 0.037879
vt 0.326979 0.136316
vt 0.317507 0.156672
vt 0.301949 0.122322
vt 0.647698 0.480436
vt 0.622624 0.473122
vt 0.647583 0.445757
vt 0.672321 0.485132
vt 0.672418 0.449871
vt 0.697883 0.450490
vt 0.697753 0.484661
vt 0.269305 0.209317
vt 0.248225 0.191357
vt 0.282107 0.162293
vt 0.294121 0.144049
vt 0.862372 0.428431
vt 0.838934 0.391175
vt 0.863520 0.396265
vt 0.266276 0.177093
vt 0.280938 0.072392
vt 0.789039 0.424122
vt 0.764594 0.430315
vt 0.789982 0.393622
vt 0.266243 0.053881
vt 0.765561 0.398824
vt 0.764594 0.348385
vt 0.791135 0.345530
vt 0.838942 0.348105
vt 0.866112 0.352632
vt 0.650411 0.400463
vt 0.672938 0.402307
vt 0.814269 0.390249
vt 0.814684 0.345102
vt 0.837570 0.421966
vt 0.812919 0.420351
vt 0.723587 0.479353
vt 0.723587 0.446831
vt 0.662775 0.252982
vt 0.679973 0.254313
vt 0.799628 0.214556
vt 0.813211 0.215053
vt 0.723080 0.394913
vt 0.696385 0.400004
vt 0.697295 0.254103
vt 0.713995 0.253965
vt 0.624841 0.394692
vt 0.644969 0.250108
vt 0.622512 0.439750
vt 0.829938 0.210366
vt 0.846321 0.208024
vt 0.782690 0.208533
vt 0.886045 0.198401
vt 0.902292 0.206215
vt 0.898113 0.284238
vt 0.884901 0.277003
vt 0.544390 0.336854
vt 0.530246 0.346214
vt 0.528766 0.276428
vt 0.539824 0.264426
vt 0.917992 0.205953
vt 0.934633 0.197607
vt 0.930114 0.276907
vt 0.917547 0.284531
vt 0.556934 0.337904
vt 0.562881 0.264426
vt 0.920057 0.292473
vt 0.895984 0.293272
vt 0.934633 0.284818
vt 0.880370 0.285509
vt 0.806539 0.949104
vt 0.823731 0.948695
vt 0.823880 0.986709
vt 0.806565 0.986709
vt 0.225192 0.235327
vt 0.263122 0.235327
vt 0.262729 0.306465
vt 0.253440 0.306976
vt 0.506623 0.772748
vt 0.506974 0.734874
vt 0.576951 0.763918
vt 0.576429 0.772922
vt 0.490438 0.735634
vt 0.490411 0.772922
vt 0.840739 0.948723
vt 0.841067 0.986591
vt 0.570480 0.349068
vt 0.572840 0.277973
vt 0.789803 0.948616
vt 0.790066 0.986545
vt 0.858852 0.949107
vt 0.859259 0.986393
vt 0.317825 0.970264
vt 0.306299 0.964685
vt 0.868181 0.551720
vt 0.881419 0.548535
vt 0.911108 0.599537
vt 0.904897 0.607100
vt 0.902901 0.497658
vt 0.922505 0.498117
vt 0.934585 0.536666
vt 0.913877 0.540771
vt 0.874160 0.509042
vt 0.275119 0.864602
vt 0.270705 0.905840
vt 0.860550 0.515606
vt 0.928761 0.596614
vt 0.942855 0.600155
vt 0.280623 0.969909
vt 0.292085 0.965472
vt 0.850920 0.488819
vt 0.864363 0.479499
vt 0.281487 0.830899
vt 0.299549 0.835409
vt 0.880644 0.468630
vt 0.912914 0.463752
vt 0.915037 0.476695
vt 0.322427 0.837945
vt 0.342141 0.837422
vt 0.923149 0.487227
vt 0.933232 0.468675
vt 0.942855 0.472582
vt 0.883125 0.449545
vt 0.913051 0.453146
vt 0.262715 0.862220
vt 0.255690 0.850736
vt 0.931835 0.465507
vt 0.940319 0.459117
vt 0.243284 0.882530
vt 0.236306 0.877112
vt 0.707772 0.879816
vt 0.688481 0.879682
vt 0.688481 0.855073
vt 0.706608 0.852400
vt 0.777633 0.878787
vt 0.759405 0.876361
vt 0.761340 0.850023
vt 0.779774 0.852130
vt 0.729194 0.877243
vt 0.733560 0.849090
vt 0.040602 0.906860
vt 0.024026 0.884867
vt 0.057948 0.931137
vt 0.011397 0.748651
vt 0.719476 0.686334
vt 0.328903 0.573428
vt 0.569755 0.365557
vt 0.557955 0.378239
vt 0.540821 0.376792
vt 0.529649 0.362422
vt 0.429024 0.069099
vt 0.457740 0.061173
vt 0.482319 0.090814
vt 0.440826 0.113372
vt 0.774192 0.109877
vt 0.774293 0.179653
vt 0.733630 0.171196
vt 0.731031 0.123541
vt 0.725372 0.102167
vt 0.663906 0.122268
vt 0.689976 0.073907
vt 0.723889 0.068515
vt 0.693128 0.200621
vt 0.664150 0.147842
vt 0.411280 0.014487
vt 0.469759 0.011618
vt 0.368216 0.069157
vt 0.381815 0.042604
vt 0.401408 0.064076
vt 0.382896 0.119227
vt 0.350215 0.112356
vt 0.349639 0.084540
vt 0.389774 0.083721
vt 0.520763 0.039392
vt 0.740741 0.238455
vt 0.759279 0.053211
vt 0.752575 0.067177
vt 0.727959 0.038471
vt 0.689279 0.038470
vt 0.696690 0.011078
vt 0.737691 0.023413
vt 0.768410 0.093490
vt 0.963864 0.183638
vt 0.952115 0.153257
vt 0.959744 0.153014
vt 0.966781 0.171166
vt 0.370519 0.012633
vt 0.356697 0.036726
vt 0.322464 0.051508
vt 0.313229 0.011618
vt 0.774293 0.065298
vt 0.955955 0.122125
vt 0.981983 0.166010
vt 0.989450 0.140691
vt 0.989450 0.170663
vt 0.411872 0.038658
vt 0.194462 0.223778
vt 0.283416 0.035581
vt 0.188549 0.495462
vt 0.397720 0.543163
vt 0.472668 0.544998
vt 0.010675 0.722164
vt 0.018232 0.663978
vt 0.093916 0.670175
vt 0.084226 0.727019
vt 0.397990 0.503545
vt 0.473315 0.504125
vt 0.521418 0.538983
vt 0.148966 0.671994
vt 0.522783 0.484221
vt 0.133751 0.725318
vt 0.580360 0.469239
vt 0.589481 0.535389
vt 0.213467 0.666784
vt 0.198904 0.704473
vt 0.625380 0.540253
vt 0.613680 0.510266
vt 0.670391 0.517466
vt 0.542817 0.915853
vt 0.522614 0.947851
vt 0.488796 0.950423
vt 0.480433 0.928504
vt 0.436437 0.950542
vt 0.430072 0.928422
vt 0.696008 0.564290
vt 0.676589 0.575307
vt 0.540973 0.831442
vt 0.522979 0.826324
vt 0.520202 0.802178
vt 0.548924 0.797986
vt 0.251323 0.673017
vt 0.136225 0.237558
vt 0.156157 0.269929
vt 0.107745 0.277220
vt 0.064691 0.249748
vt 0.401834 0.336254
vt 0.387871 0.364500
vt 0.340412 0.359600
vt 0.349961 0.334569
vt 0.463334 0.349013
vt 0.024603 0.266458
vt 0.504577 0.369149
vt 0.435058 0.381090
vt 0.068705 0.293055
vt 0.484555 0.869857
vt 0.485596 0.837040
vt 0.505086 0.833047
vt 0.516101 0.861397
vt 0.309652 0.631438
vt 0.527235 0.883679
vt 0.568393 0.846293
vt 0.475703 0.898052
vt 0.492032 0.981228
vt 0.432825 0.978695
vt 0.484297 0.806155
vt 0.498118 0.799653
vt 0.506916 0.978051
vt 0.275363 0.683746
vt 0.405920 0.949099
vt 0.402035 0.926994
vt 0.417330 0.871765
vt 0.421596 0.846737
vt 0.420773 0.899826
vt 0.425332 0.815631
vt 0.383465 0.825710
vt 0.964541 0.898723
vt 0.967523 0.922759
vt 0.945826 0.919801
vt 0.938137 0.898531
vt 0.402047 0.975346
vt 0.396278 0.822866
vt 0.395528 0.898862
vt 0.943191 0.945609
vt 0.961491 0.948337
vt 0.390850 0.949079
vt 0.388389 0.974837
vt 0.930911 0.870874
vt 0.931772 0.843945
vt 0.957503 0.870534
vt 0.380119 0.899734
vt 0.386182 0.926263
vt 0.902853 0.867996
vt 0.904060 0.843551
vt 0.940783 0.821450
vt 0.907792 0.822061
vt 0.908140 0.796140
vt 0.948472 0.792750
vt 0.213341 0.011074
vt 0.959484 0.819292
vt 0.967523 0.791706
vt 0.954106 0.843380
vt 0.814556 0.909243
vt 0.801774 0.904993
vt 0.806774 0.893114
vt 0.819443 0.895516
vt 0.810923 0.881808
vt 0.822786 0.882932
vt 0.905827 0.890803
vt 0.908129 0.912332
vt 0.904027 0.938988
vt 0.888627 0.728421
vt 0.883640 0.692146
vt 0.912592 0.690489
vt 0.912738 0.726055
vt 0.940115 0.693105
vt 0.940115 0.732172
vt 0.820863 0.839611
vt 0.808445 0.842118
vt 0.804346 0.827383
vt 0.817321 0.823477
vt 0.824076 0.866956
vt 0.812822 0.866808
vt 0.811620 0.853865
vt 0.823175 0.852575
vt 0.469728 0.403404
vt 0.403571 0.439375
vt 0.374559 0.419405
vt 0.190875 0.313808
vt 0.158728 0.320895
vt 0.128407 0.333612
vt 0.103633 0.357783
vt 0.039970 0.315927
vt 0.200814 0.263403
vt 0.222750 0.300315
vt 0.524874 0.417546
vt 0.493286 0.434919
vt 0.192854 0.235422
vt 0.465811 0.375644
vt 0.010790 0.297134
vt 0.207762 0.401765
vt 0.190608 0.417991
vt 0.261495 0.354797
vt 0.244287 0.370737
vt 0.303595 0.471308
vt 0.286592 0.454026
vt 0.343303 0.407685
vt 0.226071 0.386318
vt 0.314005 0.390692
vt 0.423761 0.468914
vt 0.249961 0.409676
vt 0.232173 0.423017
vt 0.326979 0.511565
vt 0.301949 0.525560
vt 0.317507 0.491209
vt 0.266277 0.470789
vt 0.248225 0.456524
vt 0.294121 0.503833
vt 0.282107 0.485588
vt 0.269305 0.438565
vt 0.231393 0.733312
vt 0.265564 0.733182
vt 0.266183 0.758648
vt 0.230922 0.758744
vt 0.768468 0.668643
vt 0.767104 0.637852
vt 0.791769 0.636927
vt 0.793118 0.667028
vt 0.816999 0.670800
vt 0.816056 0.640300
vt 0.841444 0.676992
vt 0.743666 0.675108
vt 0.742518 0.642942
vt 0.280938 0.375164
vt 0.213341 0.436482
vt 0.266243 0.393675
vt 0.814903 0.592207
vt 0.841444 0.595062
vt 0.840477 0.645501
vt 0.739926 0.599309
vt 0.767095 0.594782
vt 0.313747 0.758128
vt 0.315591 0.780655
vt 0.270297 0.783482
vt 0.791354 0.591779
vt 0.235618 0.783367
vt 0.242932 0.808441
vt 0.236701 0.707479
vt 0.269222 0.707479
vt 0.461741 0.751093
vt 0.463072 0.768290
vt 0.792826 0.461730
vt 0.806410 0.461233
vt 0.321141 0.707986
vt 0.462089 0.717071
vt 0.461951 0.733770
vt 0.316050 0.734680
vt 0.465946 0.786097
vt 0.321362 0.806225
vt 0.276304 0.808553
vt 0.759717 0.454701
vt 0.776099 0.457043
vt 0.823348 0.455210
vt 0.894267 0.411706
vt 0.893124 0.333103
vt 0.906335 0.325869
vt 0.910514 0.403891
vt 0.053652 0.039193
vt 0.126080 0.043759
vt 0.114078 0.054817
vt 0.044291 0.053337
vt 0.926214 0.404154
vt 0.925769 0.325576
vt 0.938337 0.333199
vt 0.942855 0.412499
vt 0.052601 0.026649
vt 0.126079 0.020701
vt 0.904206 0.316835
vt 0.928279 0.317633
vt 0.942855 0.325289
vt 0.888592 0.324597
vt 0.193957 0.988962
vt 0.193983 0.951356
vt 0.211298 0.951356
vt 0.211149 0.989371
vt 0.642731 0.940115
vt 0.571082 0.911867
vt 0.571593 0.902578
vt 0.642731 0.902184
vt 0.751229 0.939940
vt 0.681423 0.940115
vt 0.680901 0.931111
vt 0.750878 0.902067
vt 0.767414 0.902826
vt 0.767441 0.940115
vt 0.228485 0.951475
vt 0.228157 0.989343
vt 0.041438 0.013102
vt 0.112533 0.010743
vt 0.177221 0.989450
vt 0.177484 0.951521
vt 0.246677 0.951672
vt 0.246270 0.988959
vt 0.899695 0.636395
vt 0.911221 0.630816
vt 0.113183 0.394012
vt 0.168563 0.430729
vt 0.161000 0.436940
vt 0.109998 0.407250
vt 0.059120 0.428733
vt 0.102234 0.439709
vt 0.098128 0.460417
vt 0.059579 0.448337
vt 0.070505 0.399992
vt 0.868515 0.736478
vt 0.864101 0.695240
vt 0.077069 0.386381
vt 0.161618 0.468687
vt 0.158077 0.454593
vt 0.885481 0.635609
vt 0.874019 0.631171
vt 0.050282 0.376752
vt 0.040962 0.390194
vt 0.874883 0.770181
vt 0.892945 0.765671
vt 0.030092 0.406476
vt 0.038157 0.440868
vt 0.025215 0.438746
vt 0.915823 0.763135
vt 0.935537 0.763659
vt 0.048689 0.448981
vt 0.034045 0.468687
vt 0.030138 0.459063
vt 0.014609 0.438883
vt 0.011007 0.408957
vt 0.849086 0.750345
vt 0.856111 0.738860
vt 0.026969 0.457666
vt 0.020579 0.466151
vt 0.829702 0.723968
vt 0.836680 0.718551
vt 0.669190 0.879816
vt 0.670354 0.852400
vt 0.599329 0.878787
vt 0.597188 0.852130
vt 0.615623 0.850023
vt 0.617557 0.876361
vt 0.643402 0.849090
vt 0.647768 0.877243
vt 0.562952 0.934202
vt 0.546376 0.956196
vt 0.529030 0.980472
vt 0.575580 0.797986
vt 0.719476 0.503751
vt 0.328903 0.653843
vt 0.028084 0.053933
vt 0.013714 0.042762
vt 0.012267 0.025628
vt 0.024949 0.013828
vt 0.556471 0.116143
vt 0.512198 0.104341
vt 0.534756 0.062849
vt 0.564397 0.087428
vt 0.695051 0.823528
vt 0.708714 0.780366
vt 0.756370 0.782966
vt 0.764827 0.823628
vt 0.687341 0.774708
vt 0.653688 0.773225
vt 0.659080 0.739312
vt 0.707442 0.713241
vt 0.733016 0.713486
vt 0.785795 0.742464
vt 0.611083 0.133888
vt 0.613952 0.075409
vt 0.556414 0.176952
vt 0.561494 0.143759
vt 0.582966 0.163352
vt 0.506343 0.162272
vt 0.541849 0.155394
vt 0.541030 0.195528
vt 0.513214 0.194953
vt 0.586178 0.024405
vt 0.823628 0.790077
vt 0.638385 0.808615
vt 0.623644 0.777294
vt 0.652351 0.801911
vt 0.623644 0.738614
vt 0.596252 0.746026
vt 0.608587 0.787027
vt 0.678664 0.817746
vt 0.637250 0.961123
vt 0.624779 0.964040
vt 0.606626 0.957003
vt 0.606869 0.949374
vt 0.612937 0.174649
vt 0.613952 0.231939
vt 0.574062 0.222704
vt 0.588844 0.188471
vt 0.650472 0.823628
vt 0.575737 0.953214
vt 0.619622 0.979242
vt 0.594303 0.986709
vt 0.624275 0.986709
vt 0.586913 0.133296
vt 0.589989 0.261752
vt 0.188549 0.731809
vt 0.200796 0.876928
vt 0.196128 0.899744
vt 0.208305 0.825219
vt 0.822766 0.011036
vt 0.846802 0.014018
s 1
usemtl Character_04.007
f 7/1/1 8/2/2 4/3/3 3/4/4
f 5/5/5 6/6/6 2/7/7 1/8/8
f 3/4/4 4/3/3 6/9/6 5/10/5
f 1/8/8 2/7/7 10/11/9 9/12/10
f 4/3/3 8/2/2 14/13/11 12/14/12
f 10/11/9 2/7/7 11/15/13 15/16/14
f 6/9/6 4/3/3 12/14/12 13/17/15
f 2/7/7 6/6/6 13/18/15 11/15/13
f 13/17/15 12/14/12 17/19/16 18/20/17
f 12/14/12 14/13/11 19/21/18 17/19/16
f 15/16/14 11/15/13 48/22/19 20/23/20
f 13/18/15 16/24/21 11/15/13
f 21/25/22 22/26/23 39/27/24
f 17/19/16 19/21/18 23/28/25 21/25/22
f 188/29/26 16/30/21 41/31/27 190/32/28
f 41/31/27 16/30/21 50/33/29 52/34/30
f 22/26/23 21/25/22 26/35/31 27/36/32
f 21/25/22 23/28/25 28/37/33 26/35/31
f 42/38/34 191/39/35 192/40/36 46/41/37
f 20/23/20 48/22/19 188/42/26 24/43/38
f 31/44/39 36/45/40 93/46/41 89/47/42
f 30/48/43 32/49/44 88/50/45 90/51/46
f 35/52/47 37/53/48 34/54/49 30/48/43
f 38/55/50 36/45/40 31/44/39 33/56/51
f 34/54/49 225/57/52 32/49/44 30/48/43
f 7/58/1 3/59/4 36/45/40 38/55/50
f 1/60/8 9/61/10 37/53/48 35/52/47
f 35/52/47 30/48/43 90/51/46 91/62/53
f 36/45/40 3/59/4 86/63/54 93/46/41
f 40/64/55 43/65/56 47/66/57 44/67/58
f 188/42/26 48/22/19 16/24/21
f 24/43/38 188/42/26 25/68/59 29/69/60
f 39/70/24 22/71/23 42/38/34 43/65/56
f 18/72/17 39/70/24 43/65/56 40/64/55
f 45/73/61 41/31/27 52/34/30 54/74/62
f 45/75/61 44/67/58 47/66/57 46/41/37 192/40/36 193/76/63
f 190/32/28 41/31/27 45/73/61 193/77/63
f 43/65/56 42/38/34 46/41/37 47/66/57
f 188/42/26 189/78/64 25/68/59
f 48/22/19 11/15/13 16/24/21
f 52/34/30 50/33/29 56/79/65 58/80/66
f 51/81/67 53/82/68 59/83/69 57/84/70
f 16/30/21 18/72/17 49/85/71 50/33/29
f 40/64/55 44/67/58 53/82/68 51/81/67
f 18/72/17 40/64/55 51/81/67 49/85/71
f 44/67/58 45/75/61 54/86/62 53/82/68
f 59/83/69 66/87/72 65/88/73
f 58/80/66 66/89/72 60/90/74
f 54/74/62 52/34/30 58/80/66 60/90/74
f 53/82/68 54/86/62 60/91/74 59/83/69
f 49/85/71 51/81/67 57/84/70 55/92/75
f 50/33/29 49/85/71 55/92/75 56/79/65
f 55/92/75 57/84/70 61/93/76
f 63/94/77 69/95/78 61/96/76
f 67/97/79 68/98/80 61/96/76
f 71/99/81 69/95/78 63/94/77 65/100/73
f 55/92/75 61/93/76 56/79/65
f 67/97/79 69/95/78 75/101/82 73/102/83
f 71/99/81 72/103/84 78/104/85 77/105/86
f 273/106/87 275/107/88 269/108/89 267/109/90
f 65/100/73 66/110/72 71/99/81
f 72/111/84 66/112/72 70/113/91
f 427/114/92 428/115/93 82/116/94 84/117/95
f 428/115/93 430/118/96 80/119/97 82/116/94
f 68/98/80 67/97/79 73/102/83 74/120/98
f 69/95/78 71/99/81 77/105/86 75/101/82
f 70/113/91 68/98/80 74/120/98 76/121/99
f 72/111/84 70/113/91 76/121/99 78/122/85
f 171/123/100 170/124/101 162/125/102 161/126/103
f 170/124/101 169/127/104 160/128/105 162/125/102
f 426/129/106 427/130/92 84/131/95 83/132/107
f 425/133/108 429/134/109 81/135/110 79/136/111
f 430/118/96 425/133/108 79/136/111 80/119/97
f 429/134/109 426/129/106 83/132/107 81/135/110
f 87/137/112 91/62/53 100/138/113 96/139/114
f 89/47/42 93/46/41 101/140/115 98/141/116
f 86/63/54 85/142/117 94/143/118 95/144/119
f 88/145/45 89/47/42 98/141/116 97/146/120
f 5/147/5 1/60/8 87/137/112 85/148/117
f 32/149/44 31/44/39 89/47/42 88/145/45
f 1/60/8 194/150/121 87/137/112
f 3/59/4 5/151/5 85/142/117 86/63/54
f 95/144/119 94/143/118 92/152/122 102/153/123
f 97/146/120 98/141/116 105/154/124 424/155/125 104/156/126
f 100/138/113 99/157/127 106/158/128 107/159/129
f 101/140/115 95/144/119 102/153/123 109/160/130
f 90/51/46 88/50/45 97/161/120 99/157/127
f 85/148/117 87/137/112 96/139/114 94/162/118
f 93/46/41 86/63/54 95/144/119 101/140/115
f 91/62/53 90/51/46 99/157/127 100/138/113
f 109/160/130 102/153/123 111/163/131 118/164/132
f 92/165/122 103/166/133 110/167/134
f 115/168/135 113/169/136 123/170/137
f 116/171/138 124/172/139 120/173/140 112/174/141
f 98/141/116 101/140/115 109/160/130 105/154/124
f 96/139/114 100/138/113 107/159/129 103/166/133
f 99/157/127 97/161/120 104/175/126 106/158/128
f 94/162/118 96/139/114 103/166/133 92/165/122
f 104/175/126 113/176/136 106/158/128
f 103/166/133 107/159/129 116/177/138 112/178/141
f 113/179/136 122/180/142 121/181/143
f 107/159/129 106/158/128 115/182/135 116/177/138
f 104/156/126 424/155/125 113/183/136
f 111/184/131 110/185/134 119/186/144
f 109/160/130 118/164/132 114/187/145 105/154/124
f 119/186/144 108/188/146 117/189/147 127/190/148
f 121/181/143 122/180/142 130/191/149 129/192/150
f 124/172/139 123/170/137 131/193/151 132/194/152
f 126/195/153 119/186/144 127/190/148 133/196/154
f 126/195/153 122/180/142 114/197/145 118/198/132
f 110/199/134 120/173/140 108/200/146
f 118/198/132 111/184/131 119/186/144 126/195/153
f 116/171/138 115/168/135 123/170/137 124/172/139
f 132/194/152 131/193/151 138/201/155 139/202/156
f 133/196/154 127/190/148 134/203/157 140/204/158
f 117/205/147 128/206/159 135/207/160 125/208/161
f 131/193/151 129/209/150 136/210/162 138/201/155
f 122/180/142 126/195/153 133/196/154 130/191/149
f 120/173/140 124/172/139 132/194/152 128/206/159
f 123/170/137 121/211/143 129/209/150 131/193/151
f 108/200/146 120/173/140 128/206/159 117/205/147
f 129/192/150 130/191/149 137/212/163 136/213/162
f 127/190/148 117/189/147 125/214/161 134/203/157
f 130/191/149 133/196/154 140/204/158 137/212/163
f 128/206/159 132/194/152 139/202/156 135/207/160
f 137/215/163 140/216/158 146/217/164 145/218/165
f 149/219/166 152/220/167 144/221/168 142/222/169
f 134/223/157 125/224/161 148/225/170 147/226/171
f 155/227/172 149/219/166 142/222/169 143/228/173
f 140/216/158 134/223/157 147/226/171 146/217/164
f 146/217/164 147/226/171 143/229/174 142/230/175
f 147/226/171 148/225/170 141/231/176 143/229/174
f 145/218/165 146/217/164 142/230/175 144/232/177
f 135/233/160 139/234/156 150/235/178 154/236/179
f 125/237/161 156/238/180 141/239/176 148/240/170
f 152/241/181 137/242/163 145/243/165 144/244/177
f 136/245/162 137/242/163 152/241/181 153/246/182
f 139/234/156 138/247/155 151/248/183 150/235/178
f 156/249/184 155/227/172 143/228/173 141/250/185
f 125/251/161 135/233/160 154/236/179 156/252/180
f 138/247/155 136/253/162 153/254/182 151/248/183
f 162/125/102 160/128/105 166/255/186 168/256/187
f 160/257/105 158/258/188 164/259/189 166/260/186
f 173/261/190 172/262/191 159/263/192 157/264/193
f 174/265/194 173/261/190 157/264/193 158/258/188
f 172/266/191 171/123/100 161/126/103 159/267/192
f 169/268/104 174/265/194 158/258/188 160/257/105
f 164/259/189 163/269/195 165/270/196 166/260/186
f 166/255/186 165/271/196 167/272/197 168/256/187
f 161/126/103 162/125/102 168/256/187 167/272/197
f 157/264/193 159/263/192 165/270/196 163/269/195
f 158/258/188 157/264/193 163/269/195 164/259/189
f 159/267/192 161/126/103 167/272/197 165/271/196
f 82/273/94 80/274/97 174/265/194 169/268/104
f 81/275/110 83/276/107 171/123/100 172/266/191
f 80/274/97 79/277/111 173/261/190 174/265/194
f 173/261/190 79/277/111 175/278/198 177/279/199
f 84/280/95 82/281/94 169/127/104 170/124/101
f 83/276/107 84/280/95 170/124/101 171/123/100
f 178/282/200 177/279/199 181/283/201 182/284/202
f 172/262/191 173/261/190 177/279/199 178/282/200
f 79/277/111 81/285/110 176/286/203 175/278/198
f 81/275/110 172/266/191 178/287/200 176/288/203
f 179/289/204 180/290/205 182/284/202 181/283/201
f 177/279/199 175/278/198 179/289/204 181/283/201
f 176/288/203 178/287/200 182/291/202 180/292/205
f 175/278/198 176/286/203 180/290/205 179/289/204
f 26/293/31 28/294/33 186/295/206 184/296/207
f 29/297/60 25/298/59 183/299/208 187/300/209
f 25/298/59 27/301/32 185/302/210 183/299/208
f 27/301/32 26/293/31 184/296/207 185/302/210
f 39/27/24 18/20/17 17/19/16
f 17/19/16 21/25/22 39/27/24
f 188/29/26 190/32/28 191/303/35 189/304/64
f 192/305/36 191/303/35 190/32/28 193/77/63
f 22/71/23 189/306/64 191/39/35 42/38/34
f 189/307/64 22/26/23 27/36/32
f 189/78/64 27/308/32 25/68/59
f 152/220/167 149/219/166 155/227/172 156/249/184 154/309/211 150/310/211 151/311/211 153/312/211
f 91/62/53 194/150/121 35/52/47
f 87/137/112 194/150/121 91/62/53
f 35/52/47 194/150/121 1/60/8
f 199/313/212 196/314/213 200/315/214 205/316/215
f 206/317/216 201/318/217 197/319/218 202/320/219
f 216/321/220 214/322/221 213/323/222 211/324/223
f 202/320/219 197/319/218 204/325/224 207/326/225
f 207/327/225 204/328/224 196/314/213 199/313/212
f 203/329/226 220/330/227 226/331/228
f 198/332/229 187/333/209 183/334/208 203/329/226 195/335/230
f 208/336/231 200/315/214 196/314/213 204/328/224
f 201/318/217 208/337/231 204/325/224 197/319/218
f 217/338/232 218/339/233 211/324/223 209/340/234
f 209/340/234 211/324/223 213/323/222 184/341/207
f 186/342/206 210/343/235 209/340/234 184/341/207
f 215/344/236 216/321/220 211/324/223 218/339/233
f 206/317/216 202/320/219 216/321/220 215/344/236
f 202/320/219 207/326/225 214/322/221 216/321/220
f 221/345/237 220/346/227 223/347/238 224/348/239
f 210/343/235 217/338/232 209/340/234
f 214/349/221 219/350/240 185/351/210 213/352/222
f 195/335/230 199/313/212 205/316/215 198/332/229
f 218/339/233 217/338/232 212/353/241
f 218/339/233 212/353/241 215/344/236
f 220/346/227 219/354/240 223/347/238
f 219/350/240 220/330/227 203/329/226 185/351/210
f 222/355/242 223/347/238 219/354/240 214/356/221
f 222/355/242 224/348/239 223/347/238
f 214/356/221 207/357/225 222/355/242
f 207/357/225 221/345/237 224/348/239 222/355/242
f 185/351/210 203/329/226 183/334/208
f 199/313/212 195/335/230 226/331/228
f 199/313/212 226/331/228 221/358/237
f 199/313/212 221/358/237 207/327/225
f 32/149/44 225/359/52 33/56/51 31/44/39
f 226/331/228 195/335/230 203/329/226
f 221/358/237 226/331/228 220/330/227
f 213/352/222 185/351/210 184/360/207
f 13/18/15 18/361/17 16/24/21
f 7/1/1 229/362/243 230/363/244 8/2/2
f 231/364/245 227/365/246 228/366/247 232/367/248
f 229/362/243 231/368/245 232/369/248 230/363/244
f 227/365/246 9/12/10 10/11/9 228/366/247
f 230/363/244 234/370/249 14/13/11 8/2/2
f 10/11/9 15/16/14 233/371/250 228/366/247
f 232/369/248 235/372/251 234/370/249 230/363/244
f 228/366/247 233/371/250 235/373/251 232/367/248
f 235/372/251 238/374/252 237/375/253 234/370/249
f 234/370/249 237/375/253 19/21/18 14/13/11
f 15/16/14 20/23/20 258/376/254 233/371/250
f 235/373/251 233/371/250 236/377/255
f 239/378/256 249/379/257 240/380/258
f 237/375/253 239/378/256 23/28/25 19/21/18
f 396/381/259 398/382/260 251/383/261 236/384/255
f 251/383/261 262/385/262 260/386/263 236/384/255
f 240/380/258 243/387/264 242/388/265 239/378/256
f 239/378/256 242/388/265 28/37/33 23/28/25
f 252/389/266 256/390/267 400/391/268 399/392/269
f 20/23/20 24/43/38 396/393/259 258/376/254
f 245/394/270 299/395/271 303/396/272 248/397/273
f 244/398/274 300/399/275 298/400/276 246/401/277
f 247/402/278 244/398/274 34/54/49 37/53/48
f 38/55/50 33/56/51 245/394/270 248/397/273
f 34/54/49 244/398/274 246/401/277 225/57/52
f 7/58/1 38/55/50 248/397/273 229/403/243
f 227/404/246 247/402/278 37/53/48 9/61/10
f 247/402/278 301/405/279 300/399/275 244/398/274
f 248/397/273 303/396/272 296/406/280 229/403/243
f 250/407/281 254/408/282 257/409/283 253/410/284
f 396/393/259 236/377/255 258/376/254
f 24/43/38 29/69/60 241/411/285 396/393/259
f 249/412/257 253/410/284 252/389/266 240/413/258
f 238/414/252 250/407/281 253/410/284 249/412/257
f 255/415/286 264/416/287 262/385/262 251/383/261
f 255/417/286 401/418/288 400/391/268 256/390/267 257/409/283 254/408/282
f 398/382/260 401/419/288 255/415/286 251/383/261
f 253/410/284 257/409/283 256/390/267 252/389/266
f 396/393/259 241/411/285 397/420/289
f 258/376/254 236/377/255 233/371/250
f 262/385/262 268/421/290 266/422/291 260/386/263
f 261/423/292 267/109/90 269/108/89 263/424/293
f 236/384/255 260/386/263 259/425/294 238/414/252
f 250/407/281 261/423/292 263/424/293 254/408/282
f 238/414/252 259/425/294 261/423/292 250/407/281
f 254/408/282 263/424/293 264/426/287 255/417/286
f 269/108/89 275/107/88 276/427/295
f 272/428/296 274/429/297 280/430/298 278/431/299
f 264/416/287 270/432/300 268/421/290 262/385/262
f 263/424/293 269/108/89 270/433/300 264/426/287
f 259/425/294 265/434/301 267/109/90 261/423/292
f 260/386/263 266/422/291 265/434/301 259/425/294
f 282/435/302 280/430/298 276/436/295
f 274/437/297 268/421/290 276/438/295
f 277/439/303 279/440/304 271/441/305
f 277/439/303 271/441/305 278/431/299
f 273/106/87 267/109/90 271/442/305
f 272/443/296 271/442/305 266/422/291
f 277/439/303 283/444/306 285/445/307 279/440/304
f 281/446/308 287/447/309 288/448/310 282/449/302
f 92/152/122 110/450/134 102/153/123
f 275/451/88 281/446/308 276/452/295
f 281/446/308 275/451/88 273/453/87 279/440/304
f 433/454/311 294/455/312 292/456/313 434/457/314
f 434/457/314 292/456/313 290/458/315 436/459/316
f 278/431/299 284/460/317 283/444/306 277/439/303
f 279/440/304 285/445/307 287/447/309 281/446/308
f 280/430/298 286/461/318 284/460/317 278/431/299
f 282/435/302 288/462/310 286/461/318 280/430/298
f 381/463/319 371/464/320 372/465/321 380/466/322
f 380/466/322 372/465/321 370/467/323 379/468/324
f 432/469/325 293/470/326 294/471/312 433/472/311
f 431/473/327 289/474/328 291/475/329 435/476/330
f 436/459/316 290/458/315 289/474/328 431/473/327
f 435/476/330 291/475/329 293/470/326 432/469/325
f 297/477/331 306/478/332 310/479/333 301/405/279
f 299/395/271 308/480/334 311/481/335 303/396/272
f 296/406/280 305/482/336 304/483/337 295/484/338
f 298/485/276 307/486/339 308/480/334 299/395/271
f 231/487/245 295/488/338 297/477/331 227/404/246
f 246/489/277 298/485/276 299/395/271 245/394/270
f 227/404/246 297/477/331 402/490/340
f 229/403/243 296/406/280 295/484/338 231/491/245
f 305/482/336 312/492/341 302/493/342 304/483/337
f 307/486/339 314/494/343 315/495/344 308/480/334
f 310/479/333 317/496/345 316/497/346 309/498/347
f 311/481/335 319/499/348 312/492/341 305/482/336
f 300/399/275 309/498/347 307/500/339 298/400/276
f 295/488/338 304/501/337 306/478/332 297/477/331
f 303/396/272 311/481/335 305/482/336 296/406/280
f 301/405/279 310/479/333 309/498/347 300/399/275
f 319/499/348 328/502/349 321/503/350 312/492/341
f 302/504/342 320/505/351 313/506/352
f 316/497/346 325/507/353 323/508/354
f 313/506/352 322/509/355 326/510/356 317/496/345
f 308/480/334 315/495/344 319/499/348 311/481/335
f 306/478/332 313/506/352 317/496/345 310/479/333
f 309/498/347 316/497/346 314/511/343 307/500/339
f 304/501/337 302/504/342 313/506/352 306/478/332
f 322/512/355 330/513/357 334/514/358 326/515/356
f 324/516/359 332/517/360 336/518/361 328/519/349
f 321/520/350 329/521/362 320/522/351
f 323/523/354 331/524/363 332/517/360
f 317/496/345 326/510/356 325/507/353 316/497/346
f 314/494/343 323/525/354 315/495/344
f 312/492/341 321/503/350 320/526/351
f 315/495/344 324/527/359 328/502/349 319/499/348
f 329/521/362 337/528/364 327/529/365 318/530/366
f 331/524/363 339/531/367 340/532/368 332/517/360
f 334/514/358 342/533/369 341/534/370 333/535/371
f 336/518/361 343/536/372 337/528/364 329/521/362
f 325/537/353 333/535/371 323/538/354
f 320/539/351 318/540/366 330/513/357
f 328/519/349 336/518/361 329/521/362 321/520/350
f 326/515/356 334/514/358 333/535/371 325/537/353
f 342/533/369 349/541/373 348/542/374 341/534/370
f 343/536/372 350/543/375 344/544/376 337/528/364
f 327/545/365 335/546/377 345/547/378 338/548/379
f 341/534/370 348/542/374 346/549/380 339/550/367
f 332/517/360 340/532/368 343/536/372 336/518/361
f 330/513/357 338/548/379 342/533/369 334/514/358
f 333/535/371 341/534/370 339/550/367 331/551/363
f 318/540/366 327/545/365 338/548/379 330/513/357
f 339/531/367 346/552/380 347/553/381 340/532/368
f 337/528/364 344/544/376 335/554/377 327/529/365
f 340/532/368 347/553/381 350/543/375 343/536/372
f 338/548/379 345/547/378 349/541/373 342/533/369
f 347/555/381 355/556/382 356/557/383 350/558/375
f 359/559/384 352/560/385 354/561/386 362/562/387
f 344/563/376 357/564/388 358/565/389 335/566/377
f 365/567/390 353/568/391 352/560/385 359/559/384
f 350/558/375 356/557/383 357/564/388 344/563/376
f 356/557/383 352/569/392 353/570/393 357/564/388
f 357/564/388 353/570/393 351/571/394 358/565/389
f 355/556/382 354/572/395 352/569/392 356/557/383
f 345/573/378 364/574/396 360/575/397 349/576/373
f 335/577/377 358/578/389 351/579/394 366/580/398
f 362/581/399 354/582/395 355/583/382 347/584/381
f 346/585/380 363/586/400 362/581/399 347/584/381
f 349/576/373 360/575/397 361/587/401 348/588/374
f 366/589/402 351/590/403 353/568/391 365/567/390
f 335/591/377 366/592/398 364/574/396 345/573/378
f 348/588/374 361/587/401 363/593/400 346/594/380
f 372/465/321 378/595/404 376/596/405 370/467/323
f 370/597/323 376/598/405 374/599/406 368/600/407
f 383/601/408 367/602/409 369/603/410 382/604/411
f 384/605/412 368/600/407 367/602/409 383/601/408
f 382/606/411 369/607/410 371/464/320 381/463/319
f 379/608/324 370/597/323 368/600/407 384/605/412
f 374/599/406 376/598/405 375/609/413 373/610/414
f 376/596/405 378/595/404 377/611/415 375/612/413
f 371/464/320 377/611/415 378/595/404 372/465/321
f 367/602/409 373/610/414 375/609/413 369/603/410
f 368/600/407 374/599/406 373/610/414 367/602/409
f 369/607/410 375/612/413 377/611/415 371/464/320
f 292/613/313 379/608/324 384/605/412 290/614/315
f 291/615/329 382/606/411 381/463/319 293/616/326
f 290/614/315 384/605/412 383/601/408 289/617/328
f 383/601/408 387/618/416 385/619/417 289/617/328
f 294/620/312 380/466/322 379/468/324 292/621/313
f 293/616/326 381/463/319 380/466/322 294/620/312
f 388/622/418 392/623/419 391/624/420 387/618/416
f 382/604/411 388/622/418 387/618/416 383/601/408
f 289/617/328 385/619/417 386/625/421 291/626/329
f 291/615/329 386/627/421 388/628/418 382/606/411
f 389/629/422 391/624/420 392/623/419 390/630/423
f 387/618/416 391/624/420 389/629/422 385/619/417
f 386/627/421 390/631/423 392/632/419 388/628/418
f 385/619/417 389/629/422 390/630/423 386/625/421
f 242/633/265 394/634/424 186/295/206 28/294/33
f 29/635/60 187/636/209 393/637/425 241/638/285
f 241/638/285 393/637/425 395/639/426 243/640/264
f 243/640/264 395/639/426 394/634/424 242/633/265
f 249/379/257 237/375/253 238/374/252
f 237/375/253 249/379/257 239/378/256
f 396/381/259 397/641/289 399/642/269 398/382/260
f 400/643/268 401/419/288 398/382/260 399/642/269
f 240/413/258 252/389/266 399/392/269 397/644/289
f 397/645/289 243/387/264 240/380/258
f 397/420/289 241/411/285 243/646/264
f 362/562/387 363/647/427 361/648/427 360/649/427 364/650/427 366/589/402 365/567/390 359/559/384
f 301/405/279 247/402/278 402/490/340
f 297/477/331 301/405/279 402/490/340
f 247/402/278 227/404/246 402/490/340
f 406/651/428 205/652/215 200/653/214 404/654/429
f 206/655/216 407/656/430 405/657/431 201/658/217
f 415/659/432 412/660/433 413/661/434 414/662/435
f 407/656/430 410/663/436 409/664/437 405/657/431
f 410/665/436 406/651/428 404/654/429 409/666/437
f 408/667/438 423/668/439 418/669/440
f 198/670/229 403/671/441 408/667/438 393/672/425 187/673/209
f 208/674/231 409/666/437 404/654/429 200/653/214
f 201/658/217 405/657/431 409/664/437 208/675/231
f 217/676/232 411/677/442 412/660/433 416/678/443
f 411/677/442 394/679/424 413/661/434 412/660/433
f 186/680/206 394/679/424 411/677/442 210/681/235
f 215/682/236 416/678/443 412/660/433 415/659/432
f 206/655/216 215/682/236 415/659/432 407/656/430
f 407/656/430 415/659/432 414/662/435 410/663/436
f 419/683/444 422/684/445 421/685/446 418/686/440
f 210/681/235 411/677/442 217/676/232
f 414/687/435 413/688/434 395/689/426 417/690/447
f 403/671/441 198/670/229 205/652/215 406/651/428
f 416/678/443 212/691/241 217/676/232
f 416/678/443 215/682/236 212/691/241
f 418/686/440 421/685/446 417/692/447
f 417/690/447 395/689/426 408/667/438 418/669/440
f 420/693/448 414/694/435 417/692/447 421/685/446
f 420/693/448 421/685/446 422/684/445
f 414/694/435 420/693/448 410/695/436
f 410/695/436 420/693/448 422/684/445 419/683/444
f 395/689/426 393/672/425 408/667/438
f 406/651/428 423/668/439 403/671/441
f 406/651/428 419/696/444 423/668/439
f 406/651/428 410/665/436 419/696/444
f 246/489/277 245/394/270 33/56/51 225/359/52
f 423/668/439 408/667/438 403/671/441
f 419/696/444 418/669/440 423/668/439
f 413/688/434 394/697/424 395/689/426
f 235/373/251 236/377/255 238/698/252
f 58/80/66 56/79/65 62/699/449 64/700/450
f 61/93/76 57/84/70 63/701/77
f 70/113/91 66/112/72 64/702/450
f 66/89/72 58/80/66 64/700/450
f 71/99/81 66/110/72 72/103/84
f 66/87/72 59/83/69 60/91/74
f 61/96/76 69/95/78 67/97/79
f 123/170/137 113/169/136 121/211/143
f 106/158/128 113/176/136 115/182/135
f 120/173/140 110/199/134 112/174/141
f 110/167/134 103/166/133 112/178/141
f 122/180/142 113/179/136 114/197/145
f 113/183/136 424/155/125 105/154/124 114/187/145
f 119/186/144 110/185/134 108/188/146
f 102/153/123 110/450/134 111/163/131
f 59/83/69 65/88/73 63/701/77 57/84/70
f 61/96/76 68/98/80 62/703/449
f 56/79/65 61/93/76 62/699/449
f 272/443/296 266/422/291 268/421/290 274/437/297
f 276/427/295 270/433/300 269/108/89
f 276/452/295 281/446/308 282/449/302
f 276/438/295 268/421/290 270/432/300
f 276/436/295 280/430/298 274/429/297
f 271/442/305 267/109/90 265/434/301
f 271/441/305 279/440/304 273/453/87
f 278/431/299 271/441/305 272/428/296
f 266/422/291 271/442/305 265/434/301
f 68/98/80 70/113/91 64/702/450 62/703/449
f 284/460/317 436/459/316 431/473/327 283/444/306
f 285/445/307 435/476/330 432/469/325 287/447/309
f 78/122/85 76/121/99 428/115/93 427/114/92
f 76/121/99 74/120/98 430/118/96 428/115/93
f 77/105/86 78/104/85 427/130/92 426/129/106
f 73/102/83 75/101/82 429/134/109 425/133/108
f 313/506/352 320/505/351 322/509/355
f 323/538/354 333/535/371 331/551/363
f 323/508/354 314/511/343 316/497/346
f 332/517/360 324/516/359 323/523/354
f 315/495/344 323/525/354 324/527/359
f 74/120/98 73/102/83 425/133/108 430/118/96
f 75/101/82 77/105/86 426/129/106 429/134/109
f 288/462/310 433/454/311 434/457/314 286/461/318
f 286/461/318 434/457/314 436/459/316 284/460/317
f 287/447/309 432/469/325 433/472/311 288/448/310
f 283/444/306 431/473/327 435/476/330 285/445/307
f 320/522/351 329/521/362 318/530/366
f 320/526/351 302/493/342 312/492/341
f 330/513/357 322/512/355 320/539/351
